<svg width="24" height="53" viewBox="0 0 24 53" fill="none" xmlns="http://www.w3.org/2000/svg">
<g clip-path="url(#clip0_30_90)">
<path fill-rule="evenodd" clip-rule="evenodd" d="M11.2237 0.763536C11.6268 0.537317 12.1232 0.537317 12.5258 0.763536C14.5178 1.88157 20.5123 5.24694 22.5049 6.36497C22.9081 6.5906 23.1562 7.0086 23.1562 7.46104C23.1562 9.6971 23.1562 16.4273 23.1562 18.6633C23.1562 19.1158 22.9081 19.5338 22.5049 19.76C20.5129 20.878 14.5184 24.2434 12.5258 25.3614C12.1226 25.5876 11.6262 25.5876 11.2237 25.3614C9.23162 24.2434 3.23713 20.878 1.2445 19.76C0.841938 19.5338 0.59375 19.1163 0.59375 18.6639C0.59375 16.4278 0.59375 9.69769 0.59375 7.46163C0.59375 7.00919 0.841938 6.59119 1.24509 6.36497C3.23653 5.24694 9.23222 1.88157 11.2237 0.763536Z" fill="#283593"/>
<path fill-rule="evenodd" clip-rule="evenodd" d="M0.77425 19.2399C0.616312 19.0285 0.59375 18.8279 0.59375 18.5577C0.59375 16.3347 0.59375 9.64314 0.59375 7.41955C0.59375 6.96948 0.841344 6.55386 1.24331 6.32942C3.22822 5.21792 9.20253 1.87214 11.1874 0.760045C11.5894 0.535014 12.1339 0.539764 12.5358 0.764795C14.5208 1.8763 20.4749 5.19358 22.4598 6.30508C22.6201 6.39533 22.7424 6.50398 22.8517 6.64708L0.77425 19.2399Z" fill="#5C6BC0"/>
<path fill-rule="evenodd" clip-rule="evenodd" d="M11.875 4.75C16.4629 4.75 20.1875 8.47459 20.1875 13.0625C20.1875 17.6504 16.4629 21.375 11.875 21.375C7.28709 21.375 3.5625 17.6504 3.5625 13.0625C3.5625 8.47459 7.28709 4.75 11.875 4.75ZM11.875 8.90625C14.1687 8.90625 16.0312 10.7682 16.0312 13.0625C16.0312 15.3562 14.1687 17.2188 11.875 17.2188C9.58134 17.2188 7.71875 15.3562 7.71875 13.0625C7.71875 10.7682 9.58075 8.90625 11.875 8.90625Z" fill="white"/>
<path fill-rule="evenodd" clip-rule="evenodd" d="M22.8505 6.65295C23.1569 6.93974 23.1509 7.37199 23.1509 7.7122C23.1509 9.96549 23.1319 16.3744 23.1563 18.6277C23.1586 18.8628 23.0809 19.1104 22.9645 19.2969L11.6334 13.0625L22.8505 6.65295Z" fill="#3949AB"/>
</g>
<path d="M11.2922 36.065C11.1055 36.105 10.9589 36.1783 10.8522 36.285C10.8255 36.3117 10.7989 36.3583 10.7722 36.425C10.7589 36.4783 10.7455 36.5183 10.7322 36.545C10.7055 36.585 10.6789 36.8183 10.6522 37.245C10.6389 37.6717 10.6255 38.1783 10.6122 38.765C10.5989 39.3517 10.5922 39.965 10.5922 40.605C10.5922 41.2317 10.6122 41.7783 10.6522 42.245C10.6922 42.6317 10.7922 43.0117 10.9522 43.385C11.1255 43.745 11.4055 43.9783 11.7922 44.085C12.0855 44.1117 12.3589 44.0717 12.6122 43.965C12.8789 43.845 13.0789 43.6517 13.2122 43.385C13.3589 43.0783 13.4189 42.7583 13.3922 42.425C13.3789 42.0783 13.4055 41.7383 13.4722 41.405C13.6589 41.4317 13.8655 41.4383 14.0922 41.425C14.3322 41.4117 14.5722 41.405 14.8122 41.405C15.0522 41.405 15.2855 41.4117 15.5122 41.425C15.7522 41.4383 15.9655 41.4717 16.1522 41.525C16.3789 42.2183 16.4389 42.9117 16.3322 43.605C16.2255 44.285 15.9922 44.8983 15.6322 45.445C15.2722 45.9917 14.7989 46.445 14.2122 46.805C13.6389 47.1517 12.9855 47.3317 12.2522 47.345C11.7722 47.4117 11.2789 47.4117 10.7722 47.345C10.2655 47.2917 9.79219 47.165 9.35219 46.965C8.91219 46.7517 8.53885 46.4583 8.23219 46.085C7.93885 45.7117 7.76552 45.245 7.71219 44.685C7.68552 44.205 7.66552 43.705 7.65219 43.185C7.63885 42.665 7.62552 42.085 7.61219 41.445C7.61219 40.7917 7.61219 40.0583 7.61219 39.245C7.62552 38.4183 7.63885 37.465 7.65219 36.385C7.62552 36.1583 7.63219 35.9317 7.67219 35.705C7.72552 35.465 7.79219 35.245 7.87219 35.045C7.99219 34.6983 8.13885 34.3783 8.31219 34.085C8.49885 33.7917 8.71885 33.5317 8.97219 33.305C9.11885 33.1983 9.27885 33.1117 9.45219 33.045C9.62552 32.965 9.80552 32.8983 9.99219 32.845C10.6055 32.645 11.2122 32.565 11.8122 32.605C12.4122 32.645 12.9722 32.785 13.4922 33.025C14.0255 33.2517 14.5055 33.5583 14.9322 33.945C15.3589 34.3317 15.6989 34.7783 15.9522 35.285C16.2055 35.7783 16.3589 36.3183 16.4122 36.905C16.4655 37.4917 16.3855 38.0917 16.1722 38.705C15.6789 38.8117 15.1922 38.8517 14.7122 38.825C14.2455 38.785 13.7589 38.7183 13.2522 38.625C13.2122 38.3717 13.1855 38.085 13.1722 37.765C13.1722 37.445 13.1389 37.1517 13.0722 36.885C13.0055 36.605 12.8789 36.3783 12.6922 36.205C12.5189 36.0317 12.2389 35.9517 11.8522 35.965C11.6789 35.9917 11.4922 36.025 11.2922 36.065Z" fill="white"/>
<defs>
<clipPath id="clip0_30_90">
<rect width="23.75" height="26.125" fill="white"/>
</clipPath>
</defs>
</svg>
