<svg width="30" height="53" viewBox="0 0 30 53" fill="none" xmlns="http://www.w3.org/2000/svg">
<g clip-path="url(#clip0_30_60)">
<path d="M3.91138 2.09522L5.64447 21.7352C5.71638 22.5512 6.2844 23.2393 7.07211 23.4643L14.0935 25.4705C14.686 25.6401 15.3134 25.6401 15.9058 25.4705L22.9272 23.4643C23.7149 23.2393 24.2829 22.5519 24.3549 21.7352L26.0879 2.09522C26.1566 1.32335 25.549 0.659668 24.7744 0.659668H5.22555C4.45103 0.659668 3.84343 1.32335 3.91138 2.09522Z" fill="url(#paint0_linear_30_60)"/>
<path d="M15 2.63892V23.6841L21.5154 21.8223C22.0412 21.6719 22.4199 21.2127 22.4674 20.6685L23.9755 3.35603C24.0092 2.9701 23.7057 2.63892 23.3184 2.63892H15Z" fill="#35C1F1"/>
<path d="M21.0035 5.9375H15V8.57639H18.2326L18.0347 11.2153H15V13.8542H17.9028L17.7049 16.8229L15 17.7465V20.5174L20.2118 18.8021L20.6736 11.2153L21.0035 5.9375Z" fill="white"/>
<path d="M15 5.9375V8.57639H9.12846L8.93054 5.9375H15ZM11.9653 11.2153L12.0972 13.8542H15V11.2153H11.9653ZM12.2292 15.1736H9.59026L9.78818 18.8021L15 20.5174V17.7465L12.2951 16.8229L12.2292 15.1736Z" fill="#D6E0E9"/>
<path opacity="0.05" d="M21.0035 5.93755L20.6736 11.2153L20.2118 18.8021L15 20.5174L9.78818 18.8021L9.59026 15.1737H12.2292L12.2951 16.823L15 17.7466L17.7048 16.823L17.9028 13.8542H15H12.0972L11.9653 11.2153H15H18.0347L18.2326 8.57644H15H9.12846L8.93054 5.93755H15H21.0035ZM21.7054 5.27783H21.0035H15H8.93054H8.21936L8.2728 5.98703L8.47071 8.62592L8.51624 9.23617H9.12846H15H17.5214L17.4225 10.5556H15H11.9653H11.2719L11.3062 11.2483L11.4381 13.8872L11.4698 14.5139H9.59026H8.8936L8.93186 15.2093L9.12978 18.8378L9.15419 19.2877L9.58235 19.4289L14.7942 21.1442L15 21.2121L15.2065 21.1442L20.4183 19.4289L20.8431 19.289L20.8702 18.8424L21.332 11.2556L21.6619 5.97912L21.7054 5.27783ZM12.8631 14.5139H15H17.1975L17.0755 16.3407L15 17.0493L12.9364 16.3447L12.8882 15.1473L12.8631 14.5139Z" fill="black"/>
<path opacity="0.07" d="M21.0035 5.93753L20.6736 11.2153L20.2118 18.8021L15 20.5174L9.78818 18.8021L9.59026 15.1736H12.2292L12.2951 16.8229L15 17.7466L17.7048 16.8229L17.9028 13.8542H15H12.0972L11.9653 11.2153H15H18.0347L18.2326 8.57642H15H9.12846L8.93054 5.93753H15H21.0035ZM21.3544 5.60767H21.0035H15H8.93054H8.57495L8.60134 5.96194L8.79926 8.60083L8.82235 8.90628H9.12846H15H17.877L17.7286 10.8854H15H11.9653H11.6183L11.6354 11.2318L11.7673 13.8707L11.7832 14.1841H12.0972H15H17.5505L17.3908 16.5815L15 17.3982L12.6157 16.5841L12.559 15.1604L12.5458 14.8438H12.2292H9.59026H9.24193L9.26106 15.1915L9.45898 18.8199L9.47151 19.0449L9.68526 19.1155L14.8971 20.8308L15 20.8644L15.1029 20.8308L20.3147 19.1155L20.5271 19.0455L20.541 18.8219L21.0028 11.2351L21.3327 5.95798L21.3544 5.60767Z" fill="black"/>
</g>
<path d="M4.71016 36.3289C4.52349 36.3689 4.37682 36.4422 4.27016 36.5489C4.24349 36.5756 4.21682 36.6222 4.19016 36.6889C4.17682 36.7422 4.16349 36.7822 4.15016 36.8089C4.12349 36.8489 4.09682 37.0822 4.07016 37.5089C4.05682 37.9356 4.04349 38.4422 4.03016 39.0289C4.01682 39.6156 4.01016 40.2289 4.01016 40.8689C4.01016 41.4956 4.03016 42.0422 4.07016 42.5089C4.11016 42.8956 4.21016 43.2756 4.37016 43.6489C4.54349 44.0089 4.82349 44.2422 5.21016 44.3489C5.50349 44.3756 5.77682 44.3356 6.03016 44.2289C6.29682 44.1089 6.49682 43.9156 6.63016 43.6489C6.77682 43.3422 6.83682 43.0222 6.81016 42.6889C6.79682 42.3422 6.82349 42.0022 6.89016 41.6689C7.07682 41.6956 7.28349 41.7022 7.51016 41.6889C7.75016 41.6756 7.99016 41.6689 8.23016 41.6689C8.47016 41.6689 8.70349 41.6756 8.93016 41.6889C9.17016 41.7022 9.38349 41.7356 9.57016 41.7889C9.79682 42.4822 9.85682 43.1756 9.75016 43.8689C9.64349 44.5489 9.41016 45.1622 9.05016 45.7089C8.69016 46.2556 8.21682 46.7089 7.63016 47.0689C7.05682 47.4156 6.40349 47.5956 5.67016 47.6089C5.19016 47.6756 4.69682 47.6756 4.19016 47.6089C3.68349 47.5556 3.21016 47.4289 2.77016 47.2289C2.33016 47.0156 1.95682 46.7222 1.65016 46.3489C1.35682 45.9756 1.18349 45.5089 1.13016 44.9489C1.10349 44.4689 1.08349 43.9689 1.07016 43.4489C1.05682 42.9289 1.04349 42.3489 1.03016 41.7089C1.03016 41.0556 1.03016 40.3222 1.03016 39.5089C1.04349 38.6822 1.05682 37.7289 1.07016 36.6489C1.04349 36.4222 1.05016 36.1956 1.09016 35.9689C1.14349 35.7289 1.21016 35.5089 1.29016 35.3089C1.41016 34.9622 1.55682 34.6422 1.73016 34.3489C1.91682 34.0556 2.13682 33.7956 2.39016 33.5689C2.53682 33.4622 2.69682 33.3756 2.87016 33.3089C3.04349 33.2289 3.22349 33.1622 3.41016 33.1089C4.02349 32.9089 4.63016 32.8289 5.23016 32.8689C5.83016 32.9089 6.39016 33.0489 6.91016 33.2889C7.44349 33.5156 7.92349 33.8222 8.35016 34.2089C8.77682 34.5956 9.11682 35.0422 9.37016 35.5489C9.62349 36.0422 9.77682 36.5822 9.83016 37.1689C9.88349 37.7556 9.80349 38.3556 9.59016 38.9689C9.09682 39.0756 8.61016 39.1156 8.13016 39.0889C7.66349 39.0489 7.17682 38.9822 6.67016 38.8889C6.63016 38.6356 6.60349 38.3489 6.59016 38.0289C6.59016 37.7089 6.55682 37.4156 6.49016 37.1489C6.42349 36.8689 6.29682 36.6422 6.11016 36.4689C5.93682 36.2956 5.65682 36.2156 5.27016 36.2289C5.09682 36.2556 4.91016 36.2889 4.71016 36.3289ZM19.1958 35.4289C19.5424 36.0822 19.6224 36.9089 19.4358 37.9089H19.4158C18.9491 37.9889 18.4491 38.0422 17.9158 38.0689C17.3824 38.0822 16.8824 38.0222 16.4158 37.8889C16.4958 37.5289 16.4224 37.2289 16.1958 36.9889C15.9691 36.7489 15.6958 36.5956 15.3758 36.5289C15.0558 36.4622 14.7424 36.4956 14.4358 36.6289C14.1424 36.7622 13.9691 37.0156 13.9158 37.3889C13.8891 37.4822 13.8758 37.5756 13.8758 37.6689C13.8891 37.7489 13.9024 37.8356 13.9158 37.9289C14.0224 38.2489 14.1958 38.4622 14.4358 38.5689C14.6758 38.6756 14.9358 38.7489 15.2158 38.7889C15.9224 38.8689 16.5758 39.0956 17.1758 39.4689C17.7891 39.8422 18.2891 40.3156 18.6758 40.8889C18.9158 41.1956 19.0958 41.5289 19.2158 41.8889C19.3358 42.2356 19.4024 42.5956 19.4158 42.9689C19.4424 43.3422 19.4158 43.7222 19.3358 44.1089C19.2691 44.4822 19.1558 44.8422 18.9958 45.1889C18.8358 45.6022 18.6224 45.9556 18.3558 46.2489C18.0891 46.5422 17.7824 46.7822 17.4358 46.9689C17.1024 47.1556 16.7358 47.2956 16.3358 47.3889C15.9491 47.4689 15.5491 47.5022 15.1358 47.4889C14.5491 47.4756 13.9624 47.3756 13.3758 47.1889C12.8024 46.9889 12.2891 46.7156 11.8358 46.3689C11.3824 46.0222 11.0224 45.6022 10.7558 45.1089C10.4891 44.6022 10.3758 44.0289 10.4158 43.3889V43.3289V43.2689C10.8824 43.2022 11.3958 43.1889 11.9558 43.2289C12.5158 43.2556 13.0224 43.2622 13.4758 43.2489C13.5024 43.6756 13.6691 43.9956 13.9758 44.2089C14.2958 44.4222 14.6291 44.5289 14.9758 44.5289C15.3358 44.5156 15.6424 44.3956 15.8958 44.1689C16.1624 43.9422 16.2558 43.5956 16.1758 43.1289C16.1358 42.8089 16.0158 42.5556 15.8158 42.3689C15.6158 42.1689 15.3758 42.0089 15.0958 41.8889C14.8291 41.7689 14.5358 41.6822 14.2158 41.6289C13.8958 41.5622 13.5958 41.5022 13.3158 41.4489C13.0491 41.3956 12.8024 41.3089 12.5758 41.1889C12.3491 41.0689 12.1424 40.9289 11.9558 40.7689C11.3424 40.1822 10.9424 39.5356 10.7558 38.8289C10.5824 38.1222 10.5758 37.4356 10.7358 36.7689C10.8958 36.1022 11.1958 35.4956 11.6358 34.9489C12.0891 34.4022 12.6358 33.9956 13.2758 33.7289C13.5958 33.5956 13.9491 33.5089 14.3358 33.4689C14.7224 33.4156 15.1091 33.4022 15.4958 33.4289C15.8958 33.4422 16.2824 33.4956 16.6558 33.5889C17.0424 33.6822 17.3958 33.8022 17.7158 33.9489C18.3558 34.2822 18.8491 34.7756 19.1958 35.4289ZM28.9028 35.4289C29.2495 36.0822 29.3295 36.9089 29.1428 37.9089H29.1228C28.6561 37.9889 28.1561 38.0422 27.6228 38.0689C27.0895 38.0822 26.5895 38.0222 26.1228 37.8889C26.2028 37.5289 26.1295 37.2289 25.9028 36.9889C25.6761 36.7489 25.4028 36.5956 25.0828 36.5289C24.7628 36.4622 24.4495 36.4956 24.1428 36.6289C23.8495 36.7622 23.6761 37.0156 23.6228 37.3889C23.5961 37.4822 23.5828 37.5756 23.5828 37.6689C23.5961 37.7489 23.6095 37.8356 23.6228 37.9289C23.7295 38.2489 23.9028 38.4622 24.1428 38.5689C24.3828 38.6756 24.6428 38.7489 24.9228 38.7889C25.6295 38.8689 26.2828 39.0956 26.8828 39.4689C27.4961 39.8422 27.9961 40.3156 28.3828 40.8889C28.6228 41.1956 28.8028 41.5289 28.9228 41.8889C29.0428 42.2356 29.1095 42.5956 29.1228 42.9689C29.1495 43.3422 29.1228 43.7222 29.0428 44.1089C28.9761 44.4822 28.8628 44.8422 28.7028 45.1889C28.5428 45.6022 28.3295 45.9556 28.0628 46.2489C27.7961 46.5422 27.4895 46.7822 27.1428 46.9689C26.8095 47.1556 26.4428 47.2956 26.0428 47.3889C25.6561 47.4689 25.2561 47.5022 24.8428 47.4889C24.2561 47.4756 23.6695 47.3756 23.0828 47.1889C22.5095 46.9889 21.9961 46.7156 21.5428 46.3689C21.0895 46.0222 20.7295 45.6022 20.4628 45.1089C20.1961 44.6022 20.0828 44.0289 20.1228 43.3889V43.3289V43.2689C20.5895 43.2022 21.1028 43.1889 21.6628 43.2289C22.2228 43.2556 22.7295 43.2622 23.1828 43.2489C23.2095 43.6756 23.3761 43.9956 23.6828 44.2089C24.0028 44.4222 24.3361 44.5289 24.6828 44.5289C25.0428 44.5156 25.3495 44.3956 25.6028 44.1689C25.8695 43.9422 25.9628 43.5956 25.8828 43.1289C25.8428 42.8089 25.7228 42.5556 25.5228 42.3689C25.3228 42.1689 25.0828 42.0089 24.8028 41.8889C24.5361 41.7689 24.2428 41.6822 23.9228 41.6289C23.6028 41.5622 23.3028 41.5022 23.0228 41.4489C22.7561 41.3956 22.5095 41.3089 22.2828 41.1889C22.0561 41.0689 21.8495 40.9289 21.6628 40.7689C21.0495 40.1822 20.6495 39.5356 20.4628 38.8289C20.2895 38.1222 20.2828 37.4356 20.4428 36.7689C20.6028 36.1022 20.9028 35.4956 21.3428 34.9489C21.7961 34.4022 22.3428 33.9956 22.9828 33.7289C23.3028 33.5956 23.6561 33.5089 24.0428 33.4689C24.4295 33.4156 24.8161 33.4022 25.2028 33.4289C25.6028 33.4422 25.9895 33.4956 26.3628 33.5889C26.7495 33.6822 27.1028 33.8022 27.4228 33.9489C28.0628 34.2822 28.5561 34.7756 28.9028 35.4289Z" fill="white"/>
<defs>
<linearGradient id="paint0_linear_30_60" x1="9.93992" y1="-4.45186" x2="20.4711" y2="24.4816" gradientUnits="userSpaceOnUse">
<stop stop-color="#2AA4F4"/>
<stop offset="1" stop-color="#007AD9"/>
</linearGradient>
<clipPath id="clip0_30_60">
<rect width="23.75" height="26.3889" fill="white" transform="translate(3.125)"/>
</clipPath>
</defs>
</svg>
