<svg width="47" height="61" viewBox="0 0 47 61" fill="none" xmlns="http://www.w3.org/2000/svg">
<path d="M18.8242 32.1367C15.8731 32.1367 13.4805 29.7441 13.4805 26.793C13.4805 23.8419 15.8731 21.4492 18.8242 21.4492H24.168V26.793C24.168 29.7441 21.7753 32.1367 18.8242 32.1367Z" fill="#BAE0BD"/>
<path d="M19.0469 11.207C16.2187 11.207 13.9258 13.4999 13.9258 16.3281C13.9258 19.1563 16.2187 21.4492 19.0469 21.4492H24.168V11.207H19.0469Z" fill="#BDC9F2"/>
<path d="M29.5086 21.4555C32.2157 21.4555 34.4102 19.261 34.4102 16.5539C34.4102 13.8468 32.2157 11.6523 29.5086 11.6523C26.8016 11.6523 24.6071 13.8468 24.6071 16.5539C24.6071 19.261 26.8016 21.4555 29.5086 21.4555Z" fill="#C2FBFF"/>
<path d="M29.2891 11.207C32.1172 11.207 34.4102 8.91412 34.4102 6.08594C34.4102 3.25776 32.1172 0.964844 29.2891 0.964844H24.168V11.207H29.2891Z" fill="#F78FAE"/>
<path d="M19.0469 0.964844C16.2187 0.964844 13.9258 3.25776 13.9258 6.08594C13.9258 8.91412 16.2187 11.207 19.0469 11.207H24.168V0.964844H19.0469Z" fill="#F78F8F"/>
<path d="M18.8242 32.1367C15.8731 32.1367 13.4805 29.7441 13.4805 26.793C13.4805 23.8419 15.8731 21.4492 18.8242 21.4492H24.168V26.793C24.168 29.7441 21.7753 32.1367 18.8242 32.1367Z" stroke="#5E9C76" stroke-miterlimit="10" stroke-linecap="round" stroke-linejoin="round"/>
<path d="M19.0469 11.207C16.2187 11.207 13.9258 13.4999 13.9258 16.3281C13.9258 19.1563 16.2187 21.4492 19.0469 21.4492H24.168V11.207H19.0469Z" stroke="#7575A1" stroke-miterlimit="10" stroke-linecap="round" stroke-linejoin="round"/>
<path d="M29.5086 21.4555C32.2157 21.4555 34.4102 19.261 34.4102 16.5539C34.4102 13.8468 32.2157 11.6523 29.5086 11.6523C26.8016 11.6523 24.6071 13.8468 24.6071 16.5539C24.6071 19.261 26.8016 21.4555 29.5086 21.4555Z" stroke="#689DBA" stroke-miterlimit="10" stroke-linecap="round" stroke-linejoin="round"/>
<path d="M29.2891 11.207C32.1172 11.207 34.4102 8.91412 34.4102 6.08594C34.4102 3.25776 32.1172 0.964844 29.2891 0.964844H24.168V11.207H29.2891Z" stroke="#C7435B" stroke-miterlimit="10" stroke-linecap="round" stroke-linejoin="round"/>
<path d="M19.0469 0.964844C16.2187 0.964844 13.9258 3.25776 13.9258 6.08594C13.9258 8.91412 16.2187 11.207 19.0469 11.207H24.168V0.964844H19.0469Z" stroke="#C74343" stroke-miterlimit="10" stroke-linecap="round" stroke-linejoin="round"/>
<path d="M7.34852 49.8806C7.34852 49.9073 7.32852 49.9206 7.28852 49.9206C6.87518 49.9873 6.44185 50.0406 5.98852 50.0806C5.54852 50.1073 5.12852 50.154 4.72852 50.2206H4.70852C4.64185 51.0606 4.60185 51.9006 4.58852 52.7406C4.57518 53.5673 4.56185 54.3606 4.54852 55.1206C4.28185 55.1473 3.96185 55.1673 3.58852 55.1806C3.22852 55.194 2.86852 55.2006 2.50852 55.2006C2.14852 55.2006 1.82852 55.194 1.54852 55.1806C1.28185 55.1673 1.12185 55.1473 1.06852 55.1206L1.04852 55.1006C1.04852 54.3006 1.04852 53.554 1.04852 52.8606C1.04852 52.154 1.04852 51.474 1.04852 50.8206C1.06185 50.1673 1.06852 49.514 1.06852 48.8606C1.06852 48.194 1.06852 47.494 1.06852 46.7606C1.08185 46.0273 1.08852 45.2406 1.08852 44.4006C1.08852 43.5473 1.08852 42.6006 1.08852 41.5606V41.5406C1.31518 41.5006 1.64185 41.4606 2.06852 41.4206C2.49518 41.3806 2.97518 41.3406 3.50852 41.3006C4.05518 41.2606 4.62852 41.234 5.22852 41.2206C5.84185 41.194 6.44185 41.1873 7.02852 41.2006C7.61518 41.2006 8.16852 41.2273 8.68852 41.2806C9.20852 41.334 9.65518 41.4073 10.0285 41.5006C10.0285 41.674 10.0285 41.894 10.0285 42.1606C10.0418 42.4273 10.0485 42.7073 10.0485 43.0006C10.0485 43.2806 10.0485 43.554 10.0485 43.8206C10.0485 44.074 10.0418 44.2873 10.0285 44.4606C9.66852 44.4873 9.26185 44.514 8.80852 44.5406C8.36852 44.5673 7.90852 44.594 7.42852 44.6206C6.96185 44.634 6.48852 44.654 6.00852 44.6806C5.54185 44.7073 5.10185 44.7406 4.68852 44.7806C4.54185 45.1273 4.48185 45.4606 4.50852 45.7806C4.53518 46.1006 4.60852 46.3673 4.72852 46.5806C4.74185 46.594 4.75518 46.6006 4.76852 46.6006C4.95518 46.6273 5.16185 46.6473 5.38852 46.6606C5.62852 46.6606 5.86185 46.6606 6.08852 46.6606C6.31518 46.6606 6.53518 46.654 6.74852 46.6406C6.96185 46.6273 7.14185 46.614 7.28852 46.6006C7.32852 46.694 7.34852 46.874 7.34852 47.1406C7.36185 47.4073 7.36185 47.7073 7.34852 48.0406C7.33518 48.3606 7.32185 48.6873 7.30852 49.0206C7.30852 49.354 7.32185 49.6406 7.34852 49.8806ZM12.1713 45.0806C12.478 45.094 12.8447 45.094 13.2713 45.0806H13.6113V45.1406C13.598 46.754 13.5647 48.4006 13.5113 50.0806C13.4713 51.7606 13.498 53.4073 13.5913 55.0206C13.5247 55.1006 13.358 55.1406 13.0913 55.1406C12.8247 55.154 12.5313 55.154 12.2113 55.1406C11.9047 55.1406 11.6113 55.134 11.3313 55.1206C11.0513 55.1073 10.8647 55.114 10.7713 55.1406C10.838 54.3006 10.8647 53.4473 10.8513 52.5806C10.8513 51.714 10.838 50.854 10.8113 50.0006C10.7847 49.1473 10.7713 48.3073 10.7713 47.4806C10.7713 46.6406 10.8113 45.8273 10.8913 45.0406V45.0206C10.9447 45.0073 11.0313 45.0073 11.1513 45.0206C11.2847 45.034 11.3847 45.0406 11.4513 45.0406C11.6247 45.054 11.8647 45.0673 12.1713 45.0806ZM10.8313 42.2806C10.8047 41.854 10.798 41.334 10.8113 40.7206L13.5313 40.7806C13.5313 40.8606 13.5313 41.0073 13.5313 41.2206C13.5447 41.4206 13.5513 41.6473 13.5513 41.9006C13.5647 42.1406 13.5713 42.394 13.5713 42.6606C13.5847 42.914 13.5913 43.1406 13.5913 43.3406C13.538 43.4206 13.4113 43.474 13.2113 43.5006C13.0247 43.5273 12.798 43.5406 12.5313 43.5406C12.278 43.5273 12.0047 43.514 11.7113 43.5006C11.418 43.474 11.1447 43.4673 10.8913 43.4806C10.8913 43.094 10.8713 42.694 10.8313 42.2806ZM16.952 50.0206C16.952 50.1406 16.952 50.2673 16.952 50.4006V50.5806C16.952 51.2606 17.152 51.8406 17.552 52.3206C17.792 52.614 18.112 52.794 18.512 52.8606C18.912 52.914 19.2853 52.8873 19.632 52.7806C19.752 52.7406 19.8453 52.6806 19.912 52.6006C19.9786 52.5073 20.032 52.4073 20.072 52.3006C20.112 52.1806 20.1386 52.0606 20.152 51.9406C20.1786 51.8073 20.1986 51.6806 20.212 51.5606C20.212 51.0273 20.1986 50.4873 20.172 49.9406C20.1586 49.3806 20.0853 48.8473 19.952 48.3406C19.872 48.1406 19.7386 47.9873 19.552 47.8806C19.3786 47.7606 19.1853 47.6873 18.972 47.6606C18.7586 47.634 18.5453 47.654 18.332 47.7206C18.132 47.774 17.952 47.8673 17.792 48.0006C17.592 48.2273 17.4186 48.4806 17.272 48.7606C17.1386 49.0273 17.0453 49.314 16.992 49.6206C16.9653 49.754 16.952 49.8873 16.952 50.0206ZM20.932 59.0606C20.7453 59.1006 20.572 59.1273 20.412 59.1406C20.2786 59.1673 20.0386 59.174 19.692 59.1606C19.3453 59.1473 18.8986 59.1406 18.352 59.1406C17.7253 59.1406 17.1653 59.0073 16.672 58.7406C16.1786 58.474 15.7786 58.114 15.472 57.6606C15.4186 57.5673 15.3653 57.4406 15.312 57.2806C15.272 57.134 15.232 56.9806 15.192 56.8206C15.1653 56.6606 15.1453 56.5073 15.132 56.3606C15.132 56.214 15.1386 56.0873 15.152 55.9806C15.2853 55.9273 15.4653 55.8873 15.692 55.8606C15.9186 55.8473 16.152 55.8406 16.392 55.8406C16.6453 55.854 16.8853 55.8673 17.112 55.8806C17.352 55.9073 17.552 55.934 17.712 55.9606C17.712 56.3073 17.8186 56.5806 18.032 56.7806C18.2586 56.994 18.5053 57.114 18.772 57.1406C19.052 57.1673 19.3186 57.1006 19.572 56.9406C19.8386 56.7806 20.012 56.514 20.092 56.1406C20.1053 56.0073 20.1186 55.8673 20.132 55.7206C20.1453 55.5873 20.1453 55.4673 20.132 55.3606C20.1053 55.134 20.1053 54.9006 20.132 54.6606C19.9986 54.8073 19.8386 54.914 19.652 54.9806C19.4786 55.0473 19.2853 55.094 19.072 55.1206C18.872 55.1473 18.6653 55.1606 18.452 55.1606C18.2386 55.1606 18.0386 55.1673 17.852 55.1806C17.5986 55.1806 17.3386 55.1606 17.072 55.1206C16.8186 55.0806 16.572 55.014 16.332 54.9206C16.1053 54.8273 15.8986 54.7006 15.712 54.5406C15.5253 54.3806 15.372 54.174 15.252 53.9206C15.0653 53.5606 14.932 53.1873 14.852 52.8006C14.772 52.4006 14.7186 51.994 14.692 51.5806C14.692 50.954 14.7053 50.2806 14.732 49.5606C14.7586 48.8406 14.872 48.1673 15.072 47.5406C15.2853 46.9006 15.6186 46.3673 16.072 45.9406C16.5253 45.5006 17.1786 45.254 18.032 45.2006C18.4586 45.174 18.852 45.234 19.212 45.3806C19.5853 45.514 19.852 45.7673 20.012 46.1406C20.0653 46.1673 20.092 46.1473 20.092 46.0806C20.1053 46.0006 20.1053 45.9073 20.092 45.8006C20.092 45.6806 20.0853 45.5673 20.072 45.4606C20.072 45.3406 20.092 45.2473 20.132 45.1806C20.572 45.1273 21.0186 45.114 21.472 45.1406C21.9253 45.154 22.3786 45.1606 22.832 45.1606C22.8853 46.8273 22.912 48.574 22.912 50.4006C22.9253 52.214 22.892 54.0806 22.812 56.0006C22.7986 56.3206 22.7986 56.634 22.812 56.9406C22.8253 57.2606 22.7653 57.5273 22.632 57.7406C22.4453 58.034 22.252 58.2673 22.052 58.4406C21.8653 58.614 21.6786 58.7473 21.492 58.8406C21.3053 58.9473 21.1186 59.0206 20.932 59.0606ZM26.9279 45.7206C26.9279 45.8673 26.9346 46.034 26.9479 46.2206C27.0146 46.1806 27.0946 46.134 27.1879 46.0806C27.2946 46.0273 27.3812 45.974 27.4479 45.9206C27.7279 45.7206 28.0412 45.5606 28.3879 45.4406C28.7346 45.3206 29.0879 45.254 29.4479 45.2406C29.8212 45.2273 30.1812 45.2673 30.5279 45.3606C30.8746 45.454 31.1879 45.6206 31.4679 45.8606C31.5346 45.9273 31.6012 46.0406 31.6679 46.2006C31.7346 46.1606 31.8146 46.1206 31.9079 46.0806C32.0012 46.0273 32.0812 45.974 32.1479 45.9206C32.4279 45.7206 32.7412 45.5606 33.0879 45.4406C33.4346 45.3206 33.7879 45.254 34.1479 45.2406C34.5212 45.2273 34.8812 45.2673 35.2279 45.3606C35.5746 45.454 35.8879 45.6206 36.1679 45.8606C36.3012 45.9806 36.4012 46.234 36.4679 46.6206C36.5479 46.994 36.5946 47.4473 36.6079 47.9806C36.6346 48.514 36.6412 49.1006 36.6279 49.7406C36.6279 50.3673 36.6212 51.0073 36.6079 51.6606C36.5946 52.3006 36.5812 52.9206 36.5679 53.5206C36.5546 54.1206 36.5612 54.6473 36.5879 55.1006C36.1212 55.1673 35.7012 55.194 35.3279 55.1806C34.9679 55.1806 34.5546 55.1806 34.0879 55.1806C34.0612 54.874 34.0479 54.5273 34.0479 54.1406C34.0479 53.754 34.0479 53.354 34.0479 52.9406C34.0612 52.5273 34.0612 52.114 34.0479 51.7006C34.0479 51.2873 34.0346 50.9006 34.0079 50.5406C33.9946 50.3806 33.9812 50.2073 33.9679 50.0206C33.9546 49.8206 33.9279 49.6273 33.8879 49.4406C33.8612 49.254 33.8146 49.0873 33.7479 48.9406C33.6946 48.794 33.6146 48.6806 33.5079 48.6006C33.4946 48.5873 33.4812 48.5806 33.4679 48.5806C33.4546 48.5806 33.4412 48.574 33.4279 48.5606C33.3479 48.5206 33.2479 48.4873 33.1279 48.4606C33.0079 48.434 32.8746 48.4206 32.7279 48.4206C32.5946 48.4206 32.4546 48.4473 32.3079 48.5006C32.1746 48.5406 32.0479 48.6073 31.9279 48.7006C31.9412 49.2206 31.9412 49.774 31.9279 50.3606C31.9146 50.934 31.9012 51.5073 31.8879 52.0806C31.8746 52.6406 31.8612 53.1873 31.8479 53.7206C31.8479 54.2406 31.8612 54.7006 31.8879 55.1006C31.4212 55.1673 31.0012 55.194 30.6279 55.1806C30.2679 55.1806 29.8546 55.1806 29.3879 55.1806C29.3612 54.874 29.3479 54.5273 29.3479 54.1406C29.3479 53.754 29.3479 53.354 29.3479 52.9406C29.3612 52.5273 29.3612 52.114 29.3479 51.7006C29.3479 51.2873 29.3346 50.9006 29.3079 50.5406C29.2946 50.3806 29.2812 50.2073 29.2679 50.0206C29.2546 49.8206 29.2279 49.6273 29.1879 49.4406C29.1612 49.254 29.1146 49.0873 29.0479 48.9406C28.9946 48.794 28.9146 48.6806 28.8079 48.6006C28.7946 48.5873 28.7812 48.5806 28.7679 48.5806C28.7546 48.5806 28.7412 48.574 28.7279 48.5606C28.6212 48.5073 28.4612 48.4673 28.2479 48.4406C28.0479 48.4006 27.8479 48.414 27.6479 48.4806C27.4479 48.534 27.2679 48.654 27.1079 48.8406C26.9479 49.014 26.8546 49.2806 26.8279 49.6406C26.8012 50.1073 26.7946 50.5673 26.8079 51.0206C26.8212 51.4606 26.8346 51.9073 26.8479 52.3606C26.8746 52.8006 26.8879 53.2406 26.8879 53.6806C26.8879 54.1206 26.8612 54.5606 26.8079 55.0006V55.0806C26.5812 55.1473 26.3812 55.1873 26.2079 55.2006C26.0479 55.214 25.8812 55.214 25.7079 55.2006C25.5346 55.2006 25.3412 55.194 25.1279 55.1806C24.9146 55.1673 24.6479 55.174 24.3279 55.2006C24.3279 53.5606 24.3079 51.9206 24.2679 50.2806C24.2412 48.6406 24.2546 46.9406 24.3079 45.1806C24.4679 45.194 24.6012 45.2073 24.7079 45.2206C24.8146 45.2206 24.9146 45.2206 25.0079 45.2206C25.1012 45.2206 25.2012 45.2206 25.3079 45.2206C25.4146 45.2073 25.5479 45.194 25.7079 45.1806C25.7612 45.1806 25.8546 45.174 25.9879 45.1606C26.1212 45.134 26.2546 45.114 26.3879 45.1006C26.5212 45.0873 26.6412 45.0873 26.7479 45.1006C26.8546 45.1006 26.9079 45.1206 26.9079 45.1606C26.9346 45.3873 26.9412 45.574 26.9279 45.7206ZM44.8998 45.1206C45.2331 45.134 45.6131 45.154 46.0398 45.1806C46.0531 45.2606 46.0598 45.3406 46.0598 45.4206C46.0731 45.5006 46.0798 45.5806 46.0798 45.6606V45.8606C46.0398 47.3006 46.0464 48.7206 46.0998 50.1206C46.1531 51.5073 46.1331 52.914 46.0398 54.3406C46.0398 54.514 46.0331 54.6873 46.0198 54.8606C46.0198 55.034 45.9398 55.134 45.7798 55.1606H45.5398C45.3264 55.1606 45.1064 55.154 44.8798 55.1406C44.6664 55.114 44.4531 55.1006 44.2398 55.1006C44.0931 55.1006 43.9464 55.114 43.7998 55.1406C43.6664 55.154 43.5264 55.1606 43.3798 55.1606C43.2864 55.134 43.2198 55.0806 43.1798 55.0006C43.1531 54.9206 43.1398 54.8273 43.1398 54.7206C43.1398 54.574 43.1531 54.454 43.1798 54.3606C43.2064 54.2673 43.2198 54.154 43.2198 54.0206C42.8998 54.3406 42.4931 54.614 41.9998 54.8406C41.5198 55.0673 41.0464 55.1806 40.5798 55.1806C40.0598 55.1806 39.6131 55.0006 39.2398 54.6406C38.8798 54.2806 38.5798 53.834 38.3398 53.3006C38.0998 52.7673 37.9198 52.1873 37.7998 51.5606C37.6931 50.934 37.6398 50.354 37.6398 49.8206C37.6398 49.154 37.7264 48.5406 37.8998 47.9806C38.0731 47.4206 38.3064 46.9406 38.5998 46.5406C38.9064 46.1273 39.2664 45.8073 39.6798 45.5806C40.0931 45.3406 40.5331 45.214 40.9998 45.2006C41.2398 45.2006 41.4598 45.2073 41.6598 45.2206C41.8731 45.2206 42.0664 45.254 42.2398 45.3206C42.4131 45.374 42.5664 45.4673 42.6998 45.6006C42.8331 45.7206 42.9464 45.894 43.0398 46.1206C43.0264 45.9073 43.0331 45.7273 43.0598 45.5806C43.0998 45.4206 43.1198 45.2606 43.1198 45.1006C43.1198 45.0873 43.1598 45.0806 43.2398 45.0806C43.3331 45.0673 43.4331 45.0673 43.5398 45.0806C43.6464 45.0806 43.7531 45.0806 43.8598 45.0806C43.9664 45.0806 44.0398 45.0806 44.0798 45.0806C44.3064 45.094 44.5798 45.1073 44.8998 45.1206ZM40.7798 48.2806C40.4731 48.534 40.2864 48.8273 40.2198 49.1606C40.1664 49.334 40.1331 49.514 40.1198 49.7006C40.1064 49.874 40.0998 50.0473 40.0998 50.2206C40.0998 50.8206 40.2531 51.334 40.5598 51.7606C40.8798 52.174 41.3198 52.3806 41.8798 52.3806C42.2131 52.3806 42.4598 52.3273 42.6198 52.2206C42.7931 52.1006 42.9131 51.9406 42.9798 51.7406C43.0598 51.5273 43.0998 51.274 43.0998 50.9806C43.1131 50.674 43.1198 50.334 43.1198 49.9606C43.1198 49.494 43.1131 49.1273 43.0998 48.8606C43.0998 48.5806 43.0664 48.3673 42.9998 48.2206C42.9464 48.074 42.8464 47.9806 42.6998 47.9406C42.5664 47.9006 42.3598 47.8806 42.0798 47.8806C41.5331 47.8806 41.0998 48.014 40.7798 48.2806Z" fill="white"/>
</svg>
