<svg width="49" height="50" viewBox="0 0 49 50" fill="none" xmlns="http://www.w3.org/2000/svg">
<path d="M35.875 10.6875L25.6875 0.5C25.375 0.1875 24.9375 0 24.5 0C24.0625 0 23.625 0.1875 23.3125 0.5L21.125 2.6875L23.6875 5.25C23.9375 5.125 24.1875 5.0625 24.5 5.0625C25.5625 5.0625 26.375 5.875 26.375 6.9375C26.375 7.25 26.3125 7.5 26.1875 7.75L28.6875 10.25C28.9375 10.125 29.1875 10.0625 29.5 10.0625C30.5625 10.0625 31.375 10.875 31.375 11.9375C31.375 13 30.5625 13.8125 29.5 13.8125C28.4375 13.8125 27.625 13 27.625 11.9375C27.625 11.625 27.6875 11.375 27.8125 11.125L25.3125 8.625C25.25 8.625 25.1875 8.6875 25.125 8.6875V15.1875C25.875 15.4375 26.375 16.125 26.375 16.9375C26.375 18 25.5625 18.8125 24.5 18.8125C23.4375 18.8125 22.625 18 22.625 16.9375C22.625 16.125 23.125 15.4375 23.875 15.1875V8.625C23.125 8.375 22.625 7.6875 22.625 6.875C22.625 6.5625 22.6875 6.3125 22.8125 6.0625L20.25 3.5L13.125 10.6875C12.8125 11 12.625 11.4375 12.625 11.875C12.625 12.3125 12.8125 12.75 13.125 13.0625L23.3125 23.25C23.625 23.5625 24.0625 23.75 24.5 23.75C24.9375 23.75 25.375 23.5625 25.6875 23.25L35.875 13.0625C36.1875 12.75 36.375 12.3125 36.375 11.875C36.375 11.4375 36.1875 11 35.875 10.6875Z" fill="#F4511E"/>
<path d="M4.945 37.81C4.945 37.81 4.95833 37.8033 4.985 37.79C5.15833 37.6833 5.43833 37.6233 5.825 37.61C6.225 37.5833 6.645 37.5767 7.085 37.59C7.525 37.6033 7.93167 37.63 8.305 37.67C8.69167 37.6967 8.95167 37.71 9.085 37.71H9.125L9.145 37.73C9.225 38.4367 9.27833 39.19 9.305 39.99C9.33167 40.7767 9.27833 41.53 9.145 42.25C9.07833 42.93 8.87167 43.45 8.525 43.81C8.17833 44.17 7.75167 44.4433 7.245 44.63C6.91167 44.7233 6.565 44.8033 6.205 44.87C5.845 44.95 5.47833 45.0033 5.105 45.03C4.73167 45.07 4.365 45.07 4.005 45.03C3.65833 44.99 3.325 44.9033 3.005 44.77C2.47167 44.5433 2.065 44.2367 1.785 43.85C1.505 43.4633 1.285 42.9833 1.125 42.41C1.085 42.2633 1.03833 42.0633 0.985 41.81C0.945 41.5433 0.911667 41.2767 0.885 41.01C0.845 40.5833 0.811667 40.1967 0.785 39.85C0.758333 39.5033 0.731667 39.1633 0.705 38.83C0.691667 38.4833 0.678333 38.1233 0.665 37.75C0.665 37.3633 0.671667 36.9233 0.685 36.43C0.698333 36.0033 0.718333 35.57 0.745 35.13C0.771667 34.6767 0.818333 34.2367 0.885 33.81C0.951667 33.37 1.065 32.9433 1.225 32.53C1.39833 32.1167 1.67833 31.7767 2.065 31.51C2.33167 31.2833 2.63167 31.1167 2.965 31.01C3.29833 30.9033 3.645 30.8233 4.005 30.77C4.73833 30.6767 5.43833 30.7033 6.105 30.85C6.77167 30.9833 7.345 31.23 7.825 31.59C8.305 31.95 8.665 32.43 8.905 33.03C9.145 33.6167 9.21833 34.3167 9.125 35.13L9.105 35.25C9.07833 35.29 9.01833 35.31 8.925 35.31C8.83167 35.31 8.67833 35.3167 8.465 35.33C8.265 35.33 8.09167 35.3367 7.945 35.35C7.81167 35.35 7.67167 35.35 7.525 35.35C7.39167 35.35 7.25167 35.3433 7.105 35.33C6.95833 35.3167 6.785 35.2967 6.585 35.27C6.545 35.1367 6.485 34.9767 6.405 34.79C6.33833 34.59 6.245 34.41 6.125 34.25C6.01833 34.0767 5.89167 33.93 5.745 33.81C5.59833 33.6767 5.425 33.61 5.225 33.61C4.99833 33.5967 4.77833 33.59 4.565 33.59C4.35167 33.59 4.165 33.67 4.005 33.83C3.97833 33.8567 3.93833 33.93 3.885 34.05C3.845 34.1567 3.81167 34.2633 3.785 34.37C3.69167 34.69 3.61167 35.0767 3.545 35.53C3.49167 35.9833 3.45167 36.47 3.425 36.99C3.39833 37.4967 3.39167 38.0233 3.405 38.57C3.41833 39.1167 3.445 39.6367 3.485 40.13C3.51167 40.4233 3.565 40.7433 3.645 41.09C3.725 41.4367 3.89167 41.71 4.145 41.91C4.265 41.99 4.41833 42.05 4.605 42.09C4.805 42.1167 5.01167 42.11 5.225 42.07C5.45167 42.03 5.65833 41.9767 5.845 41.91C5.99167 41.8433 6.11833 41.7567 6.225 41.65C6.33167 41.53 6.41167 41.3767 6.465 41.19C6.47833 41.1367 6.49167 41.05 6.505 40.93C6.53167 40.7967 6.545 40.6633 6.545 40.53C6.55833 40.3967 6.55833 40.2767 6.545 40.17C6.545 40.0633 6.525 40.0033 6.485 39.99C6.405 39.9767 6.29167 39.9767 6.145 39.99C6.01167 39.99 5.865 39.9967 5.705 40.01C5.55833 40.01 5.41833 40.01 5.285 40.01C5.165 39.9967 5.07167 39.9767 5.005 39.95C4.97833 39.7367 4.95833 39.55 4.945 39.39C4.945 39.23 4.945 39.0767 4.945 38.93C4.95833 38.77 4.965 38.61 4.965 38.45C4.965 38.29 4.95167 38.09 4.925 37.85V37.83C4.925 37.8167 4.93167 37.81 4.945 37.81ZM11.8139 34.69C12.1206 34.7033 12.4872 34.7033 12.9139 34.69H13.2539V34.75C13.2406 36.3633 13.2072 38.01 13.1539 39.69C13.1139 41.37 13.1406 43.0167 13.2339 44.63C13.1672 44.71 13.0006 44.75 12.7339 44.75C12.4672 44.7633 12.1739 44.7633 11.8539 44.75C11.5472 44.75 11.2539 44.7433 10.9739 44.73C10.6939 44.7167 10.5072 44.7233 10.4139 44.75C10.4806 43.91 10.5072 43.0567 10.4939 42.19C10.4939 41.3233 10.4806 40.4633 10.4539 39.61C10.4272 38.7567 10.4139 37.9167 10.4139 37.09C10.4139 36.25 10.4539 35.4367 10.5339 34.65V34.63C10.5872 34.6167 10.6739 34.6167 10.7939 34.63C10.9272 34.6433 11.0272 34.65 11.0939 34.65C11.2672 34.6633 11.5072 34.6767 11.8139 34.69ZM10.4739 31.89C10.4472 31.4633 10.4406 30.9433 10.4539 30.33L13.1739 30.39C13.1739 30.47 13.1739 30.6167 13.1739 30.83C13.1872 31.03 13.1939 31.2567 13.1939 31.51C13.2072 31.75 13.2139 32.0033 13.2139 32.27C13.2272 32.5233 13.2339 32.75 13.2339 32.95C13.1806 33.03 13.0539 33.0833 12.8539 33.11C12.6672 33.1367 12.4406 33.15 12.1739 33.15C11.9206 33.1367 11.6472 33.1233 11.3539 33.11C11.0606 33.0833 10.7872 33.0767 10.5339 33.09C10.5339 32.7033 10.5139 32.3033 10.4739 31.89ZM17.5145 31.09C17.7412 31.1033 17.9679 31.0967 18.1945 31.07V33.75C18.1945 33.9233 18.1945 34.1033 18.1945 34.29C18.2079 34.4767 18.2145 34.67 18.2145 34.87C18.6279 34.8567 19.0612 34.8367 19.5145 34.81C19.9812 34.7833 20.5545 34.75 21.2345 34.71C21.3279 34.8167 21.3812 34.9767 21.3945 35.19C21.4079 35.39 21.4079 35.61 21.3945 35.85C21.3812 36.09 21.3612 36.3367 21.3345 36.59C21.3212 36.83 21.3279 37.0367 21.3545 37.21H18.2545C18.2545 37.93 18.2545 38.6367 18.2545 39.33C18.2545 40.01 18.2612 40.65 18.2745 41.25C18.4079 41.4367 18.6012 41.5833 18.8545 41.69C19.1079 41.7967 19.3812 41.8833 19.6745 41.95C19.9679 42.0033 20.2612 42.0367 20.5545 42.05C20.8612 42.0633 21.1279 42.0633 21.3545 42.05C21.3812 42.2367 21.4079 42.4433 21.4345 42.67C21.4612 42.8967 21.4812 43.13 21.4945 43.37C21.5079 43.61 21.5012 43.85 21.4745 44.09C21.4612 44.33 21.4212 44.55 21.3545 44.75C20.8212 44.7767 20.2679 44.7767 19.6945 44.75C19.1212 44.71 18.5812 44.63 18.0745 44.51C17.5679 44.39 17.1145 44.21 16.7145 43.97C16.3279 43.73 16.0479 43.4033 15.8745 42.99C15.7012 41.9633 15.6012 40.9967 15.5745 40.09C15.5479 39.17 15.5412 38.2233 15.5545 37.25C15.3412 37.2633 15.1145 37.27 14.8745 37.27C14.6479 37.27 14.3945 37.27 14.1145 37.27L14.1745 34.83C14.4412 34.8433 14.6879 34.85 14.9145 34.85C15.1545 34.85 15.3812 34.85 15.5945 34.85C15.5945 34.5567 15.5879 34.2433 15.5745 33.91C15.5612 33.5633 15.5545 33.2167 15.5545 32.87C15.5545 32.5233 15.5545 32.19 15.5545 31.87C15.5679 31.55 15.5879 31.2633 15.6145 31.01C15.7879 30.9833 15.9745 30.9767 16.1745 30.99C16.3879 31.0033 16.6079 31.0233 16.8345 31.05C17.0612 31.0633 17.2879 31.0767 17.5145 31.09ZM24.9689 35.33C24.9689 35.61 24.9689 35.7767 24.9689 35.83C25.0356 35.79 25.1156 35.7433 25.2089 35.69C25.3156 35.6367 25.4022 35.5833 25.4689 35.53C25.7489 35.33 26.0622 35.17 26.4089 35.05C26.7556 34.93 27.1089 34.8633 27.4689 34.85C27.8422 34.8367 28.2022 34.8767 28.5489 34.97C28.8956 35.0633 29.2089 35.23 29.4889 35.47C29.6222 35.59 29.7222 35.8433 29.7889 36.23C29.8689 36.6033 29.9156 37.0567 29.9289 37.59C29.9556 38.1233 29.9622 38.71 29.9489 39.35C29.9489 39.9767 29.9422 40.6167 29.9289 41.27C29.9156 41.91 29.9022 42.53 29.8889 43.13C29.8756 43.73 29.8822 44.2567 29.9089 44.71C29.4422 44.7767 29.0222 44.8033 28.6489 44.79C28.2889 44.79 27.8756 44.79 27.4089 44.79C27.3822 44.4833 27.3689 44.1367 27.3689 43.75C27.3689 43.3633 27.3689 42.9633 27.3689 42.55C27.3822 42.1367 27.3822 41.7233 27.3689 41.31C27.3689 40.8967 27.3556 40.51 27.3289 40.15C27.3156 39.99 27.3022 39.8167 27.2889 39.63C27.2756 39.43 27.2489 39.2367 27.2089 39.05C27.1822 38.8633 27.1356 38.6967 27.0689 38.55C27.0156 38.4033 26.9356 38.29 26.8289 38.21C26.8156 38.1967 26.8022 38.19 26.7889 38.19C26.7756 38.19 26.7622 38.1833 26.7489 38.17C26.6422 38.1167 26.4822 38.0767 26.2689 38.05C26.0689 38.01 25.8689 38.0233 25.6689 38.09C25.4689 38.1433 25.2889 38.2633 25.1289 38.45C24.9689 38.6233 24.8756 38.89 24.8489 39.25C24.8222 39.7167 24.8156 40.1767 24.8289 40.63C24.8422 41.07 24.8556 41.5167 24.8689 41.97C24.8956 42.41 24.9089 42.85 24.9089 43.29C24.9089 43.73 24.8822 44.17 24.8289 44.61V44.69C24.6022 44.7567 24.4022 44.7967 24.2289 44.81C24.0689 44.8233 23.9022 44.8233 23.7289 44.81C23.5556 44.81 23.3622 44.8033 23.1489 44.79C22.9356 44.7767 22.6689 44.7833 22.3489 44.81C22.3489 44.2633 22.3422 43.61 22.3289 42.85C22.3289 42.0767 22.3222 41.25 22.3089 40.37C22.3089 39.49 22.3089 38.5833 22.3089 37.65C22.3089 36.7033 22.3089 35.7833 22.3089 34.89C22.3089 33.9967 22.3089 33.1567 22.3089 32.37C22.3222 31.57 22.3356 30.8767 22.3489 30.29C22.5089 30.3033 22.6422 30.3167 22.7489 30.33C22.8556 30.33 22.9556 30.33 23.0489 30.33C23.1422 30.33 23.2422 30.33 23.3489 30.33C23.4556 30.3167 23.5889 30.3033 23.7489 30.29C23.8022 30.29 23.8956 30.2833 24.0289 30.27C24.1622 30.2433 24.2956 30.2233 24.4289 30.21C24.5622 30.1967 24.6822 30.1967 24.7889 30.21C24.8956 30.21 24.9489 30.23 24.9489 30.27C24.9622 30.3367 24.9689 30.5167 24.9689 30.81C24.9689 31.09 24.9689 31.43 24.9689 31.83C24.9689 32.2167 24.9689 32.6367 24.9689 33.09C24.9689 33.53 24.9689 33.9433 24.9689 34.33C24.9689 34.7167 24.9689 35.05 24.9689 35.33ZM36.2138 44.17C36.2271 44.0233 36.2271 43.8567 36.2138 43.67C36.1471 43.71 36.0604 43.7567 35.9538 43.81C35.8604 43.8633 35.7804 43.9167 35.7138 43.97C35.4338 44.17 35.1204 44.33 34.7738 44.45C34.4271 44.57 34.0671 44.6367 33.6938 44.65C33.3338 44.6633 32.9804 44.6233 32.6338 44.53C32.2871 44.4367 31.9738 44.27 31.6938 44.03C31.5604 43.91 31.4538 43.6633 31.3738 43.29C31.3071 42.9033 31.2604 42.4433 31.2338 41.91C31.2204 41.3767 31.2138 40.7967 31.2138 40.17C31.2271 39.53 31.2404 38.89 31.2537 38.25C31.2671 37.5967 31.2804 36.97 31.2938 36.37C31.3071 35.77 31.3004 35.2433 31.2738 34.79C31.7404 34.7233 32.1538 34.6967 32.5138 34.71C32.8871 34.71 33.3071 34.71 33.7738 34.71C33.8004 35.0167 33.8138 35.3633 33.8138 35.75C33.8138 36.1367 33.8071 36.5367 33.7938 36.95C33.7938 37.3633 33.7938 37.7767 33.7938 38.19C33.8071 38.6033 33.8271 38.99 33.8538 39.35C33.8671 39.51 33.8804 39.69 33.8938 39.89C33.9071 40.0767 33.9271 40.2633 33.9538 40.45C33.9938 40.6367 34.0404 40.8033 34.0938 40.95C34.1604 41.0967 34.2471 41.21 34.3538 41.29C34.3671 41.3033 34.3804 41.31 34.3938 41.31C34.4071 41.31 34.4204 41.3167 34.4338 41.33C34.5404 41.3833 34.6938 41.43 34.8938 41.47C35.1071 41.4967 35.3138 41.4833 35.5138 41.43C35.7138 41.3633 35.8938 41.2433 36.0538 41.07C36.2138 40.8833 36.3071 40.61 36.3338 40.25C36.3604 39.7967 36.3671 39.3433 36.3538 38.89C36.3404 38.4367 36.3204 37.99 36.2938 37.55C36.2804 37.0967 36.2671 36.65 36.2538 36.21C36.2538 35.77 36.2871 35.33 36.3538 34.89V34.81C36.5804 34.7433 36.7738 34.7033 36.9338 34.69C37.1071 34.6767 37.2804 34.6767 37.4538 34.69C37.6271 34.69 37.8204 34.6967 38.0338 34.71C38.2471 34.7233 38.5138 34.7167 38.8338 34.69C38.8338 36.33 38.8471 37.97 38.8738 39.61C38.9138 41.25 38.9071 42.95 38.8538 44.71C38.6938 44.6967 38.5604 44.69 38.4538 44.69C38.3471 44.6767 38.2471 44.67 38.1538 44.67C38.0604 44.67 37.9604 44.6767 37.8538 44.69C37.7471 44.69 37.6138 44.6967 37.4538 44.71C37.4004 44.71 37.3071 44.7233 37.1738 44.75C37.0404 44.7633 36.9071 44.7767 36.7738 44.79C36.6404 44.8033 36.5204 44.8033 36.4138 44.79C36.3071 44.79 36.2538 44.77 36.2538 44.73C36.2271 44.5033 36.2138 44.3167 36.2138 44.17ZM42.6577 30.65C42.8443 30.6633 42.9377 30.6767 42.9377 30.69V30.91C42.951 31.1767 42.9577 31.3833 42.9577 31.53C42.971 31.6633 42.9777 31.79 42.9777 31.91C42.991 32.0167 42.9977 32.1367 42.9977 32.27C43.011 32.39 43.0177 32.57 43.0177 32.81C43.0177 33.0367 43.0177 33.3433 43.0177 33.73C43.0177 34.1167 43.011 34.6233 42.9977 35.25C43.0243 35.13 43.171 35.0233 43.4377 34.93C43.7043 34.8367 44.031 34.7767 44.4177 34.75C44.8043 34.71 45.211 34.71 45.6377 34.75C46.0777 34.7767 46.4777 34.8567 46.8377 34.99C47.131 35.0967 47.3777 35.2833 47.5777 35.55C47.791 35.8033 47.9577 36.1167 48.0777 36.49C48.211 36.85 48.3043 37.25 48.3577 37.69C48.4243 38.13 48.4577 38.5833 48.4577 39.05C48.431 39.7167 48.3843 40.3767 48.3177 41.03C48.251 41.6833 48.1043 42.2767 47.8777 42.81C47.6643 43.33 47.3377 43.7633 46.8977 44.11C46.4577 44.4433 45.8577 44.6367 45.0977 44.69C44.7243 44.7433 44.371 44.7167 44.0377 44.61C43.7043 44.49 43.4377 44.23 43.2377 43.83C43.1977 43.75 43.1577 43.73 43.1177 43.77C43.091 43.7967 43.0643 43.8433 43.0377 43.91C43.0377 44.0567 43.031 44.17 43.0177 44.25C43.0177 44.33 43.0177 44.4367 43.0177 44.57C43.0177 44.6367 43.011 44.6833 42.9977 44.71C42.5977 44.7633 42.151 44.7767 41.6577 44.75C41.1643 44.7367 40.711 44.73 40.2977 44.73C40.271 43.77 40.2577 42.7767 40.2577 41.75C40.271 40.71 40.2843 39.6567 40.2977 38.59C40.3243 37.51 40.351 36.4167 40.3777 35.31C40.4043 34.2033 40.4177 33.0967 40.4177 31.99V30.67C40.631 30.63 40.8843 30.61 41.1777 30.61C41.471 30.5967 41.7443 30.5967 41.9977 30.61C42.2643 30.61 42.4843 30.6233 42.6577 30.65ZM46.1577 39.03C46.1443 38.83 46.1043 38.6367 46.0377 38.45C45.971 37.9833 45.771 37.63 45.4377 37.39C45.1177 37.15 44.6843 37.03 44.1377 37.03C43.8577 37.03 43.631 37.0567 43.4577 37.11C43.2977 37.15 43.1777 37.25 43.0977 37.41C43.0177 37.57 42.9643 37.8033 42.9377 38.11C42.9243 38.4033 42.9177 38.81 42.9177 39.33C42.9177 39.7567 42.9243 40.15 42.9377 40.51C42.9643 40.8567 43.0243 41.1567 43.1177 41.41C43.2243 41.6633 43.371 41.8633 43.5577 42.01C43.7443 42.1567 44.011 42.23 44.3577 42.23C44.6377 42.23 44.891 42.1567 45.1177 42.01C45.3443 41.8633 45.5377 41.67 45.6977 41.43C45.8577 41.1767 45.9777 40.8967 46.0577 40.59C46.1377 40.27 46.1777 39.9433 46.1777 39.61C46.1777 39.4233 46.171 39.23 46.1577 39.03Z" fill="white"/>
</svg>
