<?xml version="1.0" encoding="UTF-8" standalone="no"?>
<svg xmlns="http://www.w3.org/2000/svg" width="55" height="55" viewBox="0 0 55 55">
  <rect width="55" height="55" fill="#24292E"/>
  <path d="M27.5 10C17.835 10 10 17.835 10 27.5C10 35.245 15.077 41.847 22.0312 43.9844C22.9062 44.1406 23.2344 43.5781 23.2344 43.1094C23.2344 42.6875 23.2188 41.5156 23.2188 40.1562C18.75 41.0938 17.6562 38.4062 17.6562 38.4062C16.8125 36.4688 15.5781 35.9062 15.5781 35.9062C13.8594 34.9219 15.7031 34.9219 15.7031 34.9219C17.5781 35.0469 18.5625 36.6719 18.5625 36.6719C20.2344 39.2656 22.8906 38.5 23.2969 38.0312C23.4531 36.8594 23.9219 36.0781 24.4219 35.625C20.8906 35.1562 17.1875 33.7031 17.1875 26.9531C17.1875 25.125 17.8906 23.625 18.9375 22.4531C18.7656 22.0156 18.125 20.2031 19.125 17.6562C19.125 17.6562 20.3594 17.1875 23.2188 19.2656C24.5938 18.8906 26.0469 18.7031 27.5 18.7031C28.9531 18.7031 30.4062 18.8906 31.7812 19.2656C34.6406 17.1875 35.875 17.6562 35.875 17.6562C36.875 20.2031 36.2344 22.0156 36.0625 22.4531C37.1094 23.625 37.8125 25.125 37.8125 26.9531C37.8125 33.7031 34.1094 35.1406 30.5625 35.625C31.2188 36.2188 31.7812 37.375 31.7812 39.1719C31.7812 41.7188 31.7656 42.5156 31.7656 43.1094C31.7656 43.5781 32.0938 44.1406 32.9688 43.9844C39.9219 41.8438 45 35.2422 45 27.5C45 17.835 37.165 10 27.5 10Z" fill="white"/>
</svg>
