<svg width="39" height="53" viewBox="0 0 39 53" fill="none" xmlns="http://www.w3.org/2000/svg">
<g clip-path="url(#clip0_28_56)">
<path d="M7.13056 1.53668L8.98574 22.5601C9.06271 23.4337 9.67075 24.1703 10.5139 24.4111L18.03 26.5586C18.6642 26.7401 19.3357 26.7401 19.9699 26.5586L27.486 24.4111C28.3292 24.1703 28.9372 23.4344 29.0142 22.5601L30.8693 1.53668C30.9428 0.710433 30.2924 0 29.4633 0H8.5373C7.70823 0 7.05782 0.710433 7.13056 1.53668Z" fill="url(#paint0_linear_28_56)"/>
<path d="M18.8711 1.60669V24.7257L26.0042 22.6805C26.5798 22.5153 26.9944 22.0109 27.0464 21.413L28.6975 2.39448C28.7343 1.97051 28.4021 1.60669 27.9781 1.60669H18.8711Z" fill="#F09601"/>
<path d="M18.8711 13.9272V11.0282H25.0826L24.577 19.3627L18.8711 21.247V18.2031L21.8324 17.1885L22.0491 13.9272H18.8711ZM25.2992 8.12929L25.5159 5.23035H18.8711V8.12929H25.2992Z" fill="white"/>
<path d="M18.8711 18.2031V21.247L13.1652 19.3627L12.8763 15.3766H15.7654L15.9098 17.1885L18.8711 18.2031ZM15.332 8.12929H18.8711V5.23035H12.2985L12.8041 13.9272H18.8711V11.0282H15.5487L15.332 8.12929Z" fill="#D6E0E9"/>
<path opacity="0.05" d="M25.5159 5.23035L25.2992 8.12929H18.8711H15.332L15.5487 11.0282H18.8711H25.0826L24.577 19.3627L18.8711 21.247L13.1652 19.3627L12.8763 15.3766H15.7654L15.9098 17.1885L18.8711 18.2031L21.8324 17.1885L22.0491 13.9272H18.8711H12.8041L12.2985 5.23035H18.8711H25.5159ZM26.2945 4.50562H25.5159H18.8711H12.2985H11.5329L11.5777 5.27238L12.0833 13.9692L12.123 14.6519H12.0999L12.1562 15.4295L12.4451 19.4156L12.4805 19.8997L12.9399 20.0512L18.6457 21.9355L18.8711 22.0101L19.0972 21.9355L24.803 20.0512L25.2682 19.8975L25.2978 19.4069L25.8034 11.0724L25.8503 10.3035H25.0826H18.8711H16.2189L16.1106 8.85403H18.8711H25.2992H25.9695L26.0193 8.18365L26.236 5.28471L26.2945 4.50562ZM16.432 14.6519H18.8711H21.277L21.1433 16.6587L18.8711 17.4371L16.5916 16.6565L16.4847 15.3187L16.432 14.6519Z" fill="black"/>
<path opacity="0.07" d="M25.5159 5.23041L25.2992 8.12935H18.8711H15.332L15.5487 11.0283H18.8711H25.0825L24.577 19.3627L18.8711 21.2471L13.1652 19.3627L12.8763 15.3767H15.7653L15.9098 17.1885L18.8711 18.2032L21.8324 17.1885L22.049 13.9272H18.8711H12.8041L12.2985 5.23041H18.8711H25.5159ZM25.9052 4.86804H25.5159H18.8711H12.2985H11.9157L11.9381 5.25143L12.4437 13.9482L12.4632 14.2896H12.8041H18.8711H21.6633L21.4886 16.9233L18.8711 17.8205L16.2507 16.9226L16.125 15.3477L16.0983 15.0143H15.7653H12.8763H12.4877L12.5159 15.4028L12.8048 19.3888L12.8221 19.6309L13.0518 19.707L18.7577 21.5913L18.8711 21.6283L18.9837 21.5913L24.6896 19.707L24.9222 19.6302L24.9374 19.3845L25.4429 11.05L25.4661 10.6659H25.0825H18.8711H15.8838L15.7213 8.49172H18.8711H25.2992H25.6343L25.6596 8.15617L25.8763 5.25722L25.9052 4.86804Z" fill="black"/>
</g>
<path d="M8.28305 33.4041C8.53638 33.4041 8.76305 33.4107 8.96305 33.4241L9.50305 47.4241C9.27638 47.4641 9.02971 47.4907 8.76305 47.5041C8.50971 47.5174 8.25638 47.5241 8.00305 47.5241C7.76305 47.5241 7.52305 47.5241 7.28305 47.5241C7.05638 47.5241 6.86305 47.5307 6.70305 47.5441H6.68305C6.61638 47.1041 6.56971 46.6507 6.54305 46.1841C6.52971 45.7041 6.51638 45.2307 6.50305 44.7641C6.50305 44.2974 6.49638 43.8307 6.48305 43.3641C6.46971 42.8974 6.43638 42.4507 6.38305 42.0241L6.36305 42.0041C5.97638 41.9374 5.58971 41.9041 5.20305 41.9041C4.81638 41.9041 4.42971 41.9507 4.04305 42.0441C4.00305 42.5107 3.98305 42.9707 3.98305 43.4241C3.99638 43.8774 4.00971 44.3307 4.02305 44.7841C4.03638 45.2374 4.03638 45.6841 4.02305 46.1241C4.02305 46.5507 3.98971 46.9774 3.92305 47.4041C3.76305 47.4974 3.54971 47.5441 3.28305 47.5441C3.01638 47.5441 2.74971 47.5307 2.48305 47.5041C2.21638 47.4774 1.96305 47.4574 1.72305 47.4441C1.49638 47.4307 1.32305 47.4574 1.20305 47.5241C1.17638 47.1507 1.14305 46.6441 1.10305 46.0041C1.07638 45.3507 1.04971 44.6241 1.02305 43.8241C0.99638 43.0107 0.969714 42.1507 0.943047 41.2441C0.929714 40.3374 0.91638 39.4307 0.903047 38.5241C0.889714 37.6041 0.883047 36.7241 0.883047 35.8841C0.89638 35.0307 0.909714 34.2641 0.923047 33.5841V33.5641H0.943047H0.983047C1.18305 33.6041 1.38971 33.6174 1.60305 33.6041C1.82971 33.5907 2.04971 33.5774 2.26305 33.5641C2.48971 33.5507 2.70971 33.5441 2.92305 33.5441C3.13638 33.5441 3.33638 33.5707 3.52305 33.6241C3.64305 34.5441 3.70305 35.4374 3.70305 36.3041C3.70305 37.1707 3.78305 38.0307 3.94305 38.8841H3.96305C4.29638 38.9641 4.65638 38.9907 5.04305 38.9641C5.42971 38.9241 5.78971 38.8907 6.12305 38.8641H6.14305C6.22305 37.9441 6.26305 37.0841 6.26305 36.2841C6.27638 35.4841 6.26305 34.6041 6.22305 33.6441C6.38305 33.5907 6.57638 33.5441 6.80305 33.5041C7.04305 33.4641 7.28971 33.4374 7.54305 33.4241C7.79638 33.3974 8.04305 33.3907 8.28305 33.4041ZM14.5035 33.4441C15.9568 33.4307 17.3702 33.4974 18.7435 33.6441C18.7702 34.0841 18.7768 34.5907 18.7635 35.1641C18.7635 35.7374 18.7302 36.2641 18.6635 36.7441C18.4102 36.6907 18.0968 36.6707 17.7235 36.6841C17.3502 36.6974 16.8502 36.7174 16.2235 36.7441H16.1835H16.1635C16.1635 36.7574 16.1568 36.7707 16.1435 36.7841C16.1435 36.7841 16.1435 36.7907 16.1435 36.8041C16.1302 36.8707 16.1168 36.9774 16.1035 37.1241C16.1035 37.2574 16.1035 37.4774 16.1035 37.7841C16.1035 38.0774 16.1035 38.4707 16.1035 38.9641C16.1168 39.4441 16.1302 40.0707 16.1435 40.8441C16.1568 41.6041 16.1702 42.5241 16.1835 43.6041C16.1968 44.6707 16.2168 45.9307 16.2435 47.3841V47.4041V47.4241C16.0035 47.4641 15.7368 47.4907 15.4435 47.5041C15.1635 47.5041 14.8768 47.5041 14.5835 47.5041C14.3035 47.5041 14.0235 47.5041 13.7435 47.5041C13.4635 47.5041 13.2035 47.5241 12.9635 47.5641C12.9502 47.5107 12.9502 47.2707 12.9635 46.8441C12.9768 46.4174 12.9835 45.7841 12.9835 44.9441C12.9968 44.0907 12.9902 43.0041 12.9635 41.6841C12.9502 40.3641 12.9035 38.7707 12.8235 36.9041L12.8035 36.8841C12.6435 36.8041 12.4435 36.7574 12.2035 36.7441C11.9635 36.7174 11.7235 36.7041 11.4835 36.7041C11.2435 36.6907 11.0235 36.6841 10.8235 36.6841C10.6235 36.6841 10.4835 36.6707 10.4035 36.6441C10.3768 36.5907 10.3502 36.4574 10.3235 36.2441C10.3102 36.0307 10.2968 35.7774 10.2835 35.4841C10.2835 35.1774 10.2835 34.8507 10.2835 34.5041C10.2835 34.1574 10.2968 33.8241 10.3235 33.5041C10.3235 33.4907 10.3168 33.4841 10.3035 33.4841C10.3035 33.4841 10.3035 33.4774 10.3035 33.4641C11.6635 33.4507 13.0635 33.4441 14.5035 33.4441ZM28.1707 37.4041C28.224 38.6441 28.2174 39.9041 28.1507 41.1841L28.0907 47.5641C27.8907 47.5374 27.6707 47.5241 27.4307 47.5241C27.1907 47.5241 26.9507 47.5241 26.7107 47.5241C26.4707 47.5241 26.2374 47.5307 26.0107 47.5441C25.7974 47.5441 25.6107 47.5441 25.4507 47.5441C25.424 46.9707 25.404 46.3507 25.3907 45.6841C25.3907 45.0174 25.384 44.3374 25.3707 43.6441C25.3707 42.9507 25.3507 42.2707 25.3107 41.6041C25.284 40.9374 25.2374 40.3241 25.1707 39.7641C25.0774 39.9107 24.9707 40.1441 24.8507 40.4641C24.7307 40.7707 24.6107 41.0907 24.4907 41.4241C24.3707 41.7574 24.2574 42.0507 24.1507 42.3041C24.044 42.5574 23.964 42.6841 23.9107 42.6841C23.844 42.6841 23.764 42.6174 23.6707 42.4841C23.5907 42.3374 23.504 42.1574 23.4107 41.9441C23.3307 41.7307 23.244 41.5041 23.1507 41.2641C23.0574 41.0241 22.9774 40.8041 22.9107 40.6041C22.844 40.4041 22.784 40.2374 22.7307 40.1041C22.6907 39.9707 22.6707 39.9041 22.6707 39.9041C22.564 41.1574 22.524 42.4241 22.5507 43.7041C22.5907 44.9841 22.6507 46.2441 22.7307 47.4841C22.304 47.5507 21.8374 47.5774 21.3307 47.5641C20.824 47.5507 20.3574 47.5441 19.9307 47.5441C19.904 47.5441 19.884 47.5241 19.8707 47.4841C19.8574 47.4307 19.844 47.3041 19.8307 47.1041C19.8174 46.9041 19.804 46.6041 19.7907 46.2041C19.7907 45.7907 19.7907 45.2507 19.7907 44.5841C19.7907 43.9174 19.7907 43.0907 19.7907 42.1041C19.804 41.1174 19.8107 39.9441 19.8107 38.5841C19.824 37.2241 19.8374 35.6374 19.8507 33.8241C20.024 33.7707 20.224 33.7374 20.4507 33.7241C20.6774 33.7107 20.9107 33.7107 21.1507 33.7241C21.3907 33.7241 21.6307 33.7307 21.8707 33.7441C22.1107 33.7441 22.344 33.7374 22.5707 33.7241H22.5907C22.7107 33.8574 22.8307 34.0641 22.9507 34.3441C23.0707 34.6107 23.184 34.8974 23.2907 35.2041C23.3974 35.5107 23.4974 35.8041 23.5907 36.0841C23.6974 36.3641 23.804 36.5841 23.9107 36.7441C23.9507 36.7841 23.9907 36.8041 24.0307 36.8041C24.0707 36.8174 24.1307 36.6907 24.2107 36.4241C24.304 36.1574 24.3974 35.8507 24.4907 35.5041C24.5974 35.1441 24.7107 34.7907 24.8307 34.4441C24.964 34.0974 25.0907 33.8441 25.2107 33.6841C25.304 33.6974 25.4707 33.6974 25.7107 33.6841C25.964 33.6707 26.2307 33.6574 26.5107 33.6441C26.804 33.6307 27.0974 33.6241 27.3907 33.6241C27.6974 33.6107 27.9574 33.6041 28.1707 33.6041C28.1174 34.8841 28.1174 36.1507 28.1707 37.4041ZM38.1102 45.3641C38.1102 45.4974 38.1169 45.6174 38.1302 45.7241C38.1569 46.2041 38.1702 46.5707 38.1702 46.8241C38.1702 47.0641 38.1502 47.2441 38.1102 47.3641C38.0836 47.4707 38.0302 47.5307 37.9502 47.5441C37.8702 47.5441 37.7569 47.5441 37.6102 47.5441C37.4636 47.5307 37.2702 47.5307 37.0302 47.5441C36.8036 47.5574 36.4102 47.5707 35.8502 47.5841C35.3036 47.5974 34.5436 47.6041 33.5702 47.6041C32.6102 47.6041 31.3236 47.5907 29.7102 47.5641V47.2041C29.7502 46.2041 29.7836 45.3041 29.8102 44.5041C29.8369 43.6907 29.8502 42.9374 29.8502 42.2441C29.8636 41.5374 29.8702 40.8574 29.8702 40.2041C29.8702 39.5507 29.8636 38.8841 29.8502 38.2041C29.8369 37.5241 29.8236 36.8041 29.8102 36.0441C29.7969 35.2707 29.7836 34.4174 29.7702 33.4841C29.9036 33.4307 30.1102 33.3907 30.3902 33.3641C30.6702 33.3241 30.9702 33.3041 31.2902 33.3041C31.6102 33.3041 31.9236 33.3241 32.2302 33.3641C32.5369 33.4041 32.7836 33.4641 32.9702 33.5441C32.9436 34.4107 32.9302 35.3041 32.9302 36.2241C32.9436 37.1307 32.9569 38.0441 32.9702 38.9641C32.9836 39.8841 32.9902 40.8041 32.9902 41.7241C33.0036 42.6307 33.0036 43.5107 32.9902 44.3641V44.3841C33.0836 44.3574 33.2569 44.3507 33.5102 44.3641C33.7769 44.3641 34.0836 44.3707 34.4302 44.3841C34.7769 44.3974 35.1436 44.4174 35.5302 44.4441C35.9302 44.4574 36.3036 44.4707 36.6502 44.4841C37.0102 44.4974 37.3236 44.5107 37.5902 44.5241C37.8702 44.5241 38.0636 44.5174 38.1702 44.5041C38.1702 44.6507 38.1636 44.7974 38.1502 44.9441C38.1369 45.0774 38.1236 45.2174 38.1102 45.3641Z" fill="white"/>
<defs>
<linearGradient id="paint0_linear_28_56" x1="14.91" y1="-1.82693" x2="26.1745" y2="29.1207" gradientUnits="userSpaceOnUse">
<stop stop-color="#F09701"/>
<stop offset="1" stop-color="#E36001"/>
</linearGradient>
<clipPath id="clip0_28_56">
<rect width="23.75" height="26.5441" fill="white" transform="translate(7.125)"/>
</clipPath>
</defs>
</svg>
