<svg width="83" height="50" viewBox="0 0 83 50" fill="none" xmlns="http://www.w3.org/2000/svg">
<g clip-path="url(#clip0_30_70)">
<path d="M29.625 23.75V0H53.375V23.75H29.625Z" fill="#FFD600"/>
<path d="M45.1536 17.7775C45.6101 18.519 46.1062 19.2296 47.1571 19.2296C48.0398 19.2296 48.503 18.7909 48.503 18.1839C48.503 17.4576 48.024 17.1996 47.0529 16.7767L46.5205 16.5498C44.984 15.898 43.9621 15.0812 43.9621 13.3561C43.9621 11.7661 45.1793 10.5562 47.0813 10.5562C48.4357 10.5562 49.4088 11.0253 50.1107 12.2537L48.4522 13.3138C48.0873 12.662 47.6928 12.4054 47.0813 12.4054C46.4572 12.4054 46.062 12.7993 46.062 13.3138C46.062 13.9498 46.4578 14.2071 47.3715 14.601L47.9039 14.8279C49.7149 15.5991 50.7361 16.3868 50.7361 18.1575C50.7361 20.0654 49.2293 21.1111 47.2066 21.1111C45.2281 21.1111 44.1046 20.1182 43.4792 18.8892L45.1536 17.7775ZM37.51 17.8316C37.8438 18.4293 38.3512 18.8892 39.0808 18.8892C39.7788 18.8892 40.1806 18.6134 40.1806 17.5413V10.5555H42.3794V17.8791C42.3794 20.1004 41.091 21.1111 39.2095 21.1111C37.5093 21.1111 36.2823 19.9592 35.7822 18.8892L37.51 17.8316Z" fill="#000001"/>
</g>
<path d="M5.70305 30.69V30.55L8.62305 30.51C8.59638 31.7633 8.60971 33.03 8.66305 34.31C8.71638 35.59 8.72971 36.8767 8.70305 38.17C8.67638 38.7167 8.65638 39.31 8.64305 39.95C8.62971 40.5767 8.55638 41.1833 8.42305 41.77C8.30305 42.3567 8.08305 42.89 7.76305 43.37C7.45638 43.85 6.99638 44.2033 6.38305 44.43C5.82305 44.71 5.20971 44.8633 4.54305 44.89C3.87638 44.93 3.24305 44.8833 2.64305 44.75C2.09638 44.59 1.65638 44.2967 1.32305 43.87C0.989714 43.4433 0.73638 42.9567 0.563047 42.41C0.389714 41.85 0.27638 41.27 0.223047 40.67C0.183047 40.0567 0.17638 39.4967 0.203047 38.99C0.37638 38.95 0.589714 38.9233 0.843047 38.91C1.10971 38.8967 1.38305 38.89 1.66305 38.89C1.94305 38.89 2.22305 38.9033 2.50305 38.93C2.79638 38.9567 3.06305 38.99 3.30305 39.03V39.05V39.15C3.31638 39.35 3.33638 39.5833 3.36305 39.85C3.40305 40.1033 3.46971 40.35 3.56305 40.59C3.65638 40.8167 3.77638 41.01 3.92305 41.17C4.06971 41.33 4.26305 41.4167 4.50305 41.43C4.70305 41.47 4.87638 41.4567 5.02305 41.39C5.16971 41.3233 5.28971 41.2233 5.38305 41.09C5.48971 40.9433 5.56971 40.7833 5.62305 40.61C5.67638 40.4233 5.70971 40.23 5.72305 40.03C5.69638 38.5367 5.66971 37.0033 5.64305 35.43C5.62971 33.8567 5.64971 32.2767 5.70305 30.69ZM17.0209 34.73C17.3542 34.7433 17.7342 34.7633 18.1609 34.79C18.1742 34.87 18.1809 34.95 18.1809 35.03C18.1942 35.11 18.2009 35.19 18.2009 35.27V35.47C18.1609 36.91 18.1675 38.33 18.2209 39.73C18.2742 41.1167 18.2542 42.5233 18.1609 43.95C18.1609 44.1233 18.1542 44.2967 18.1409 44.47C18.1409 44.6433 18.0609 44.7433 17.9009 44.77H17.6609C17.4475 44.77 17.2275 44.7633 17.0009 44.75C16.7875 44.7233 16.5742 44.71 16.3609 44.71C16.2142 44.71 16.0675 44.7233 15.9209 44.75C15.7875 44.7633 15.6475 44.77 15.5009 44.77C15.4075 44.7433 15.3409 44.69 15.3009 44.61C15.2742 44.53 15.2609 44.4367 15.2609 44.33C15.2609 44.1833 15.2742 44.0633 15.3009 43.97C15.3275 43.8767 15.3409 43.7633 15.3409 43.63C15.0209 43.95 14.6142 44.2233 14.1209 44.45C13.6409 44.6767 13.1675 44.79 12.7009 44.79C12.1809 44.79 11.7342 44.61 11.3609 44.25C11.0009 43.89 10.7009 43.4433 10.4609 42.91C10.2209 42.3767 10.0409 41.7967 9.92086 41.17C9.81419 40.5433 9.76086 39.9633 9.76086 39.43C9.76086 38.7633 9.84753 38.15 10.0209 37.59C10.1942 37.03 10.4275 36.55 10.7209 36.15C11.0275 35.7367 11.3875 35.4167 11.8009 35.19C12.2142 34.95 12.6542 34.8233 13.1209 34.81C13.3609 34.81 13.5809 34.8167 13.7809 34.83C13.9942 34.83 14.1875 34.8633 14.3609 34.93C14.5342 34.9833 14.6875 35.0767 14.8209 35.21C14.9542 35.33 15.0675 35.5033 15.1609 35.73C15.1475 35.5167 15.1542 35.3367 15.1809 35.19C15.2209 35.03 15.2409 34.87 15.2409 34.71C15.2409 34.6967 15.2809 34.69 15.3609 34.69C15.4542 34.6767 15.5542 34.6767 15.6609 34.69C15.7675 34.69 15.8742 34.69 15.9809 34.69C16.0875 34.69 16.1609 34.69 16.2009 34.69C16.4275 34.7033 16.7009 34.7167 17.0209 34.73ZM12.9009 37.89C12.5942 38.1433 12.4075 38.4367 12.3409 38.77C12.2875 38.9433 12.2542 39.1233 12.2409 39.31C12.2275 39.4833 12.2209 39.6567 12.2209 39.83C12.2209 40.43 12.3742 40.9433 12.6809 41.37C13.0009 41.7833 13.4409 41.99 14.0009 41.99C14.3342 41.99 14.5809 41.9367 14.7409 41.83C14.9142 41.71 15.0342 41.55 15.1009 41.35C15.1809 41.1367 15.2209 40.8833 15.2209 40.59C15.2342 40.2833 15.2409 39.9433 15.2409 39.57C15.2409 39.1033 15.2342 38.7367 15.2209 38.47C15.2209 38.19 15.1875 37.9767 15.1209 37.83C15.0675 37.6833 14.9675 37.59 14.8209 37.55C14.6875 37.51 14.4809 37.49 14.2009 37.49C13.6542 37.49 13.2209 37.6233 12.9009 37.89ZM20.5326 34.79C21.0126 34.75 21.4659 34.7567 21.8926 34.81C21.9859 35.29 22.0792 35.8433 22.1726 36.47C22.2659 37.0833 22.3659 37.71 22.4726 38.35C22.5792 38.99 22.6926 39.6033 22.8126 40.19C22.9326 40.7633 23.0659 41.25 23.2126 41.65C23.3592 41.25 23.4926 40.75 23.6126 40.15C23.7326 39.5367 23.8459 38.9033 23.9526 38.25C24.0726 37.5967 24.1992 36.9633 24.3326 36.35C24.4659 35.7367 24.6126 35.23 24.7726 34.83C24.9992 34.83 25.2126 34.8233 25.4126 34.81C25.6126 34.7967 25.8192 34.7833 26.0326 34.77C26.2459 34.7567 26.4659 34.75 26.6926 34.75C26.9192 34.75 27.1726 34.7567 27.4526 34.77C27.1726 35.53 26.9259 36.3233 26.7126 37.15C26.5126 37.9633 26.3192 38.7967 26.1326 39.65C25.9459 40.5033 25.7592 41.3633 25.5726 42.23C25.3859 43.0833 25.1792 43.93 24.9526 44.77C24.6859 44.81 24.3859 44.83 24.0526 44.83C23.7326 44.8433 23.3992 44.8433 23.0526 44.83C22.7192 44.83 22.3859 44.8233 22.0526 44.81C21.7326 44.81 21.4459 44.81 21.1926 44.81C20.9259 43.1433 20.6192 41.4433 20.2726 39.71C19.9259 37.9767 19.5392 36.3233 19.1126 34.75C19.5926 34.8033 20.0659 34.8167 20.5326 34.79ZM34.7943 34.73C35.1276 34.7433 35.5076 34.7633 35.9343 34.79C35.9476 34.87 35.9543 34.95 35.9543 35.03C35.9676 35.11 35.9743 35.19 35.9743 35.27V35.47C35.9343 36.91 35.941 38.33 35.9943 39.73C36.0476 41.1167 36.0276 42.5233 35.9343 43.95C35.9343 44.1233 35.9276 44.2967 35.9143 44.47C35.9143 44.6433 35.8343 44.7433 35.6743 44.77H35.4343C35.221 44.77 35.001 44.7633 34.7743 44.75C34.561 44.7233 34.3476 44.71 34.1343 44.71C33.9876 44.71 33.841 44.7233 33.6943 44.75C33.561 44.7633 33.421 44.77 33.2743 44.77C33.181 44.7433 33.1143 44.69 33.0743 44.61C33.0476 44.53 33.0343 44.4367 33.0343 44.33C33.0343 44.1833 33.0476 44.0633 33.0743 43.97C33.101 43.8767 33.1143 43.7633 33.1143 43.63C32.7943 43.95 32.3876 44.2233 31.8943 44.45C31.4143 44.6767 30.941 44.79 30.4743 44.79C29.9543 44.79 29.5076 44.61 29.1343 44.25C28.7743 43.89 28.4743 43.4433 28.2343 42.91C27.9943 42.3767 27.8143 41.7967 27.6943 41.17C27.5876 40.5433 27.5343 39.9633 27.5343 39.43C27.5343 38.7633 27.621 38.15 27.7943 37.59C27.9676 37.03 28.201 36.55 28.4943 36.15C28.801 35.7367 29.161 35.4167 29.5743 35.19C29.9876 34.95 30.4276 34.8233 30.8943 34.81C31.1343 34.81 31.3543 34.8167 31.5543 34.83C31.7676 34.83 31.961 34.8633 32.1343 34.93C32.3076 34.9833 32.461 35.0767 32.5943 35.21C32.7276 35.33 32.841 35.5033 32.9343 35.73C32.921 35.5167 32.9276 35.3367 32.9543 35.19C32.9943 35.03 33.0143 34.87 33.0143 34.71C33.0143 34.6967 33.0543 34.69 33.1343 34.69C33.2276 34.6767 33.3276 34.6767 33.4343 34.69C33.541 34.69 33.6476 34.69 33.7543 34.69C33.861 34.69 33.9343 34.69 33.9743 34.69C34.201 34.7033 34.4743 34.7167 34.7943 34.73ZM30.6743 37.89C30.3676 38.1433 30.181 38.4367 30.1143 38.77C30.061 38.9433 30.0276 39.1233 30.0143 39.31C30.001 39.4833 29.9943 39.6567 29.9943 39.83C29.9943 40.43 30.1476 40.9433 30.4543 41.37C30.7743 41.7833 31.2143 41.99 31.7743 41.99C32.1076 41.99 32.3543 41.9367 32.5143 41.83C32.6876 41.71 32.8076 41.55 32.8743 41.35C32.9543 41.1367 32.9943 40.8833 32.9943 40.59C33.0076 40.2833 33.0143 39.9433 33.0143 39.57C33.0143 39.1033 33.0076 38.7367 32.9943 38.47C32.9943 38.19 32.961 37.9767 32.8943 37.83C32.841 37.6833 32.741 37.59 32.5943 37.55C32.461 37.51 32.2543 37.49 31.9743 37.49C31.4276 37.49 30.9943 37.6233 30.6743 37.89ZM44.986 35.89C45.2527 36.4633 45.386 37.11 45.386 37.83C44.9593 37.8967 44.486 37.9367 43.966 37.95C43.4593 37.9633 42.9793 37.9233 42.526 37.83C42.566 37.67 42.546 37.51 42.466 37.35C42.3993 37.19 42.2927 37.05 42.146 36.93C42.0127 36.81 41.8527 36.7233 41.666 36.67C41.4927 36.6033 41.3193 36.5767 41.146 36.59C40.8393 36.6433 40.606 36.7633 40.446 36.95C40.2993 37.1233 40.226 37.3167 40.226 37.53C40.226 37.7433 40.306 37.9567 40.466 38.17C40.626 38.3833 40.8593 38.5433 41.166 38.65C41.9127 38.7567 42.6127 38.9033 43.266 39.09C43.9193 39.2633 44.3993 39.55 44.706 39.95C44.9993 40.43 45.1793 40.9233 45.246 41.43C45.3127 41.9233 45.2193 42.5367 44.966 43.27C44.6593 43.9233 44.1793 44.39 43.526 44.67C42.8727 44.95 42.1593 45.0833 41.386 45.07C40.706 45.0967 40.0927 45.0367 39.546 44.89C38.9993 44.7433 38.526 44.5233 38.126 44.23C37.7393 43.9367 37.4327 43.5767 37.206 43.15C36.9927 42.7233 36.886 42.2433 36.886 41.71V41.65V41.61C37.326 41.5567 37.826 41.5433 38.386 41.57C38.946 41.5833 39.4327 41.59 39.846 41.59C39.8593 41.8967 39.9993 42.15 40.266 42.35C40.546 42.5367 40.8393 42.65 41.146 42.69C41.4527 42.7167 41.7327 42.6567 41.986 42.51C42.2393 42.3633 42.3593 42.0967 42.346 41.71C42.386 41.39 42.3127 41.15 42.126 40.99C41.9393 40.83 41.6927 40.71 41.386 40.63C41.0793 40.5367 40.7327 40.4567 40.346 40.39C39.9593 40.3233 39.5793 40.21 39.206 40.05C38.4593 39.7967 37.9127 39.4033 37.566 38.87C37.2327 38.3233 37.0727 37.7633 37.086 37.19C37.1127 36.6033 37.2993 36.0633 37.646 35.57C38.006 35.0767 38.5127 34.7433 39.166 34.57C39.4193 34.5033 39.726 34.45 40.086 34.41C40.4593 34.37 40.8527 34.35 41.266 34.35C41.6793 34.35 42.0927 34.3767 42.506 34.43C42.9193 34.47 43.2993 34.53 43.646 34.61C44.2727 34.8767 44.7193 35.3033 44.986 35.89ZM53.5299 40.85C53.7566 40.85 53.9433 40.87 54.0899 40.91C54.0633 41.2567 54.0366 41.5967 54.0099 41.93C53.9833 42.2633 53.9499 42.5767 53.9099 42.87C53.8699 43.15 53.8166 43.3967 53.7499 43.61C53.6966 43.81 53.6233 43.9567 53.5299 44.05C53.3033 44.37 53.0033 44.5967 52.6299 44.73C52.2699 44.8633 51.8766 44.9433 51.4499 44.97C51.0233 45.01 50.5833 45.01 50.1299 44.97C49.6766 44.9433 49.2633 44.93 48.8899 44.93C48.2099 44.81 47.6366 44.5167 47.1699 44.05C46.8099 43.73 46.5633 43.33 46.4299 42.85C46.2966 42.37 46.2166 41.87 46.1899 41.35C46.1633 40.8167 46.1566 40.2833 46.1699 39.75C46.1966 39.2167 46.1833 38.73 46.1299 38.29C46.1299 37.81 46.1699 37.33 46.2499 36.85C46.2633 36.7033 46.3099 36.5033 46.3899 36.25C46.4699 35.9967 46.5299 35.8033 46.5699 35.67C46.6633 35.47 46.8099 35.2967 47.0099 35.15C47.2233 35.0033 47.4633 34.8833 47.7299 34.79C48.0099 34.6833 48.3033 34.61 48.6099 34.57C48.9299 34.53 49.2499 34.51 49.5699 34.51C49.8366 34.5367 50.0899 34.5433 50.3299 34.53C50.5833 34.5033 50.8499 34.5033 51.1299 34.53C51.5566 34.5567 51.9633 34.6367 52.3499 34.77C52.7366 34.9033 53.0699 35.1033 53.3499 35.37C53.5366 35.5033 53.6766 35.6833 53.7699 35.91C53.8766 36.1367 53.9566 36.4033 54.0099 36.71C54.0633 37.0167 54.0899 37.3633 54.0899 37.75C54.1033 38.1233 54.1166 38.53 54.1299 38.97C53.9566 39.01 53.7566 39.03 53.5299 39.03C53.3166 39.03 53.0899 39.0233 52.8499 39.01C52.6233 38.9967 52.3966 38.9767 52.1699 38.95C51.9566 38.9233 51.7633 38.8967 51.5899 38.87C51.5233 38.4033 51.3299 38.0433 51.0099 37.79C50.6899 37.5233 50.2699 37.4567 49.7499 37.59C49.4699 37.67 49.2433 37.8167 49.0699 38.03C48.9899 38.0833 48.9299 38.2167 48.8899 38.43C48.8366 38.8433 48.8099 39.2633 48.8099 39.69C48.8099 40.1167 48.7966 40.5633 48.7699 41.03C48.7433 41.3367 48.8166 41.5767 48.9899 41.75C49.1766 41.9233 49.3966 42.0433 49.6499 42.11C49.9033 42.1633 50.1633 42.1767 50.4299 42.15C50.6966 42.11 50.9099 42.0367 51.0699 41.93C51.2033 41.8367 51.3033 41.6833 51.3699 41.47C51.4499 41.2433 51.5099 41.0433 51.5499 40.87C51.6833 40.8833 51.8633 40.89 52.0899 40.89C52.3166 40.8767 52.5566 40.8633 52.8099 40.85C53.0633 40.8367 53.3033 40.8367 53.5299 40.85ZM57.9576 35.25C57.9709 35.29 57.9776 35.3567 57.9776 35.45C58.0309 35.4233 58.1509 35.37 58.3376 35.29C58.5376 35.21 58.7309 35.1367 58.9176 35.07C59.1709 34.99 59.4576 34.93 59.7776 34.89C60.0976 34.8367 60.3976 34.8033 60.6776 34.79C60.9576 34.7767 61.1909 34.7767 61.3776 34.79C61.5776 34.79 61.6776 34.7967 61.6776 34.81C61.6776 35.2633 61.6709 35.6633 61.6576 36.01C61.6576 36.3567 61.6576 36.67 61.6576 36.95C61.6576 37.2167 61.6576 37.4633 61.6576 37.69C61.6576 37.9167 61.6642 38.13 61.6776 38.33L61.4976 38.27C61.4309 38.2433 61.3576 38.2233 61.2776 38.21C61.2109 38.1833 61.1442 38.1567 61.0776 38.13C60.9176 38.09 60.7509 38.0567 60.5776 38.03C60.4176 38.0033 60.3309 37.99 60.3176 37.99C59.9576 37.95 59.6242 37.93 59.3176 37.93C59.0242 37.93 58.7642 37.9767 58.5376 38.07C58.3242 38.1633 58.1576 38.31 58.0376 38.51C57.9176 38.71 57.8642 38.9967 57.8776 39.37C57.8909 39.8367 57.9042 40.2767 57.9176 40.69C57.9309 41.1033 57.9376 41.5233 57.9376 41.95C57.9376 42.3633 57.9376 42.79 57.9376 43.23C57.9509 43.6567 57.9576 44.1167 57.9576 44.61V44.69C57.7309 44.7567 57.5242 44.7967 57.3376 44.81C57.1509 44.8233 56.9576 44.8233 56.7576 44.81C56.5576 44.81 56.3376 44.8033 56.0976 44.79C55.8709 44.7767 55.5976 44.7833 55.2776 44.81C55.2776 43.17 55.2576 41.53 55.2176 39.89C55.1909 38.25 55.2042 36.55 55.2576 34.79C55.4176 34.8033 55.5509 34.8167 55.6576 34.83C55.7642 34.83 55.8642 34.83 55.9576 34.83C56.0509 34.83 56.1509 34.83 56.2576 34.83C56.3642 34.8167 56.4976 34.8033 56.6576 34.79C56.7109 34.79 56.8042 34.7833 56.9376 34.77C57.0842 34.7567 57.2309 34.7433 57.3776 34.73C57.5376 34.7167 57.6709 34.7167 57.7776 34.73C57.8976 34.73 57.9576 34.7433 57.9576 34.77C57.9576 34.8767 57.9576 34.9567 57.9576 35.01C57.9576 35.0633 57.9576 35.11 57.9576 35.15C57.9576 35.1767 57.9576 35.21 57.9576 35.25ZM63.9409 34.69C64.2475 34.7033 64.6142 34.7033 65.0409 34.69H65.3809V34.75C65.3675 36.3633 65.3342 38.01 65.2809 39.69C65.2409 41.37 65.2675 43.0167 65.3609 44.63C65.2942 44.71 65.1275 44.75 64.8609 44.75C64.5942 44.7633 64.3009 44.7633 63.9809 44.75C63.6742 44.75 63.3809 44.7433 63.1009 44.73C62.8209 44.7167 62.6342 44.7233 62.5409 44.75C62.6075 43.91 62.6342 43.0567 62.6209 42.19C62.6209 41.3233 62.6075 40.4633 62.5809 39.61C62.5542 38.7567 62.5409 37.9167 62.5409 37.09C62.5409 36.25 62.5809 35.4367 62.6609 34.65V34.63C62.7142 34.6167 62.8009 34.6167 62.9209 34.63C63.0542 34.6433 63.1542 34.65 63.2209 34.65C63.3942 34.6633 63.6342 34.6767 63.9409 34.69ZM62.6009 31.89C62.5742 31.4633 62.5675 30.9433 62.5809 30.33L65.3009 30.39C65.3009 30.47 65.3009 30.6167 65.3009 30.83C65.3142 31.03 65.3209 31.2567 65.3209 31.51C65.3342 31.75 65.3409 32.0033 65.3409 32.27C65.3542 32.5233 65.3609 32.75 65.3609 32.95C65.3075 33.03 65.1809 33.0833 64.9809 33.11C64.7942 33.1367 64.5675 33.15 64.3009 33.15C64.0475 33.1367 63.7742 33.1233 63.4809 33.11C63.1875 33.0833 62.9142 33.0767 62.6609 33.09C62.6609 32.7033 62.6409 32.3033 62.6009 31.89ZM69.3815 47.97C69.3815 48.1167 69.3748 48.3233 69.3615 48.59V48.81C69.3615 48.8233 69.2682 48.8367 69.0815 48.85C68.9082 48.8767 68.6882 48.89 68.4215 48.89C68.1682 48.9033 67.8948 48.9033 67.6015 48.89C67.3082 48.89 67.0548 48.87 66.8415 48.83V47.51C66.8415 46.4033 66.8282 45.2967 66.8015 44.19C66.7748 43.0833 66.7482 41.9967 66.7215 40.93C66.7082 39.85 66.6948 38.7967 66.6815 37.77C66.6815 36.73 66.6948 35.73 66.7215 34.77C67.1348 34.77 67.5882 34.7633 68.0815 34.75C68.5748 34.7233 69.0215 34.7367 69.4215 34.79C69.4348 34.8167 69.4415 34.8633 69.4415 34.93C69.4415 35.0633 69.4415 35.17 69.4415 35.25C69.4548 35.33 69.4615 35.4433 69.4615 35.59C69.4882 35.6567 69.5148 35.71 69.5415 35.75C69.5815 35.7767 69.6215 35.75 69.6615 35.67C69.8615 35.27 70.1282 35.0167 70.4615 34.91C70.7948 34.79 71.1482 34.7567 71.5215 34.81C72.2815 34.8633 72.8815 35.0633 73.3215 35.41C73.7615 35.7433 74.0882 36.1767 74.3015 36.71C74.5282 37.23 74.6748 37.8167 74.7415 38.47C74.8082 39.1233 74.8548 39.7833 74.8815 40.45C74.8815 40.9167 74.8482 41.37 74.7815 41.81C74.7282 42.25 74.6348 42.6567 74.5015 43.03C74.3815 43.39 74.2148 43.7033 74.0015 43.97C73.8015 44.2233 73.5548 44.4033 73.2615 44.51C72.9015 44.6433 72.5015 44.7233 72.0615 44.75C71.6348 44.79 71.2282 44.79 70.8415 44.75C70.4548 44.7233 70.1282 44.6633 69.8615 44.57C69.5948 44.4767 69.4482 44.37 69.4215 44.25C69.4348 44.8767 69.4415 45.3833 69.4415 45.77C69.4415 46.1567 69.4415 46.4633 69.4415 46.69C69.4415 46.93 69.4348 47.11 69.4215 47.23C69.4215 47.3633 69.4148 47.4833 69.4015 47.59C69.4015 47.71 69.3948 47.8367 69.3815 47.97ZM71.8615 42.11C72.1948 41.87 72.3948 41.5167 72.4615 41.05C72.5282 40.8633 72.5682 40.67 72.5815 40.47C72.5948 40.27 72.6015 40.0767 72.6015 39.89C72.6015 39.5567 72.5615 39.2367 72.4815 38.93C72.4015 38.61 72.2815 38.33 72.1215 38.09C71.9615 37.8367 71.7682 37.6367 71.5415 37.49C71.3148 37.3433 71.0615 37.27 70.7815 37.27C70.4348 37.27 70.1682 37.3433 69.9815 37.49C69.7948 37.6367 69.6482 37.8367 69.5415 38.09C69.4482 38.3433 69.3882 38.65 69.3615 39.01C69.3482 39.37 69.3415 39.7567 69.3415 40.17C69.3415 40.69 69.3482 41.1033 69.3615 41.41C69.3882 41.7033 69.4415 41.93 69.5215 42.09C69.6015 42.25 69.7215 42.3567 69.8815 42.41C70.0548 42.45 70.2815 42.47 70.5615 42.47C71.1082 42.47 71.5415 42.35 71.8615 42.11ZM78.7626 31.09C78.9892 31.1033 79.2159 31.0967 79.4426 31.07V33.75C79.4426 33.9233 79.4426 34.1033 79.4426 34.29C79.4559 34.4767 79.4626 34.67 79.4626 34.87C79.8759 34.8567 80.3092 34.8367 80.7626 34.81C81.2292 34.7833 81.8026 34.75 82.4826 34.71C82.5759 34.8167 82.6292 34.9767 82.6426 35.19C82.6559 35.39 82.6559 35.61 82.6426 35.85C82.6292 36.09 82.6092 36.3367 82.5826 36.59C82.5692 36.83 82.5759 37.0367 82.6026 37.21H79.5026C79.5026 37.93 79.5026 38.6367 79.5026 39.33C79.5026 40.01 79.5092 40.65 79.5226 41.25C79.6559 41.4367 79.8492 41.5833 80.1026 41.69C80.3559 41.7967 80.6292 41.8833 80.9226 41.95C81.2159 42.0033 81.5092 42.0367 81.8026 42.05C82.1092 42.0633 82.3759 42.0633 82.6026 42.05C82.6292 42.2367 82.6559 42.4433 82.6826 42.67C82.7092 42.8967 82.7292 43.13 82.7426 43.37C82.7559 43.61 82.7492 43.85 82.7226 44.09C82.7092 44.33 82.6692 44.55 82.6026 44.75C82.0692 44.7767 81.5159 44.7767 80.9426 44.75C80.3692 44.71 79.8292 44.63 79.3226 44.51C78.8159 44.39 78.3626 44.21 77.9626 43.97C77.5759 43.73 77.2959 43.4033 77.1226 42.99C76.9492 41.9633 76.8492 40.9967 76.8226 40.09C76.7959 39.17 76.7892 38.2233 76.8026 37.25C76.5892 37.2633 76.3626 37.27 76.1226 37.27C75.8959 37.27 75.6426 37.27 75.3626 37.27L75.4226 34.83C75.6892 34.8433 75.9359 34.85 76.1626 34.85C76.4026 34.85 76.6292 34.85 76.8426 34.85C76.8426 34.5567 76.8359 34.2433 76.8226 33.91C76.8092 33.5633 76.8026 33.2167 76.8026 32.87C76.8026 32.5233 76.8026 32.19 76.8026 31.87C76.8159 31.55 76.8359 31.2633 76.8626 31.01C77.0359 30.9833 77.2226 30.9767 77.4226 30.99C77.6359 31.0033 77.8559 31.0233 78.0826 31.05C78.3092 31.0633 78.5359 31.0767 78.7626 31.09Z" fill="white"/>
<defs>
<clipPath id="clip0_30_70">
<rect width="23.75" height="23.75" fill="white" transform="translate(29.625)"/>
</clipPath>
</defs>
</svg>
