<svg width="80" height="80" viewBox="0 0 80 80" fill="none" xmlns="http://www.w3.org/2000/svg">
<path d="M70.4762 0H9.52381C4.26667 0 0 4.26667 0 9.52381V70.4762C0 75.7333 4.26667 80 9.52381 80H70.4762C75.7333 80 80 75.7333 80 70.4762V9.52381C80 4.26667 75.7333 0 70.4762 0ZM24.7619 30.4762V66.6667H13.3333V30.4762H24.7619ZM13.3333 19.9429C13.3333 17.2762 15.619 15.2381 19.0476 15.2381C22.4762 15.2381 24.6286 17.2762 24.7619 19.9429C24.7619 22.6095 22.6286 24.7619 19.0476 24.7619C15.619 24.7619 13.3333 22.6095 13.3333 19.9429ZM66.6667 66.6667H55.2381C55.2381 66.6667 55.2381 49.0286 55.2381 47.619C55.2381 43.8095 53.3333 40 48.5714 39.9238H48.419C43.8095 39.9238 41.9048 43.8476 41.9048 47.619C41.9048 49.3524 41.9048 66.6667 41.9048 66.6667H30.4762V30.4762H41.9048V35.3524C41.9048 35.3524 45.581 30.4762 52.9714 30.4762C60.5333 30.4762 66.6667 35.6762 66.6667 46.2095V66.6667Z" fill="white"/>
</svg>
