<svg width="47" height="45" viewBox="0 0 47 45" fill="none" xmlns="http://www.w3.org/2000/svg">
<g clip-path="url(#clip0_114_109)">
<path d="M34 9.38062C34 7.98534 32.2578 6.66303 29.5868 5.84303C30.2032 3.11256 29.9293 0.940209 28.7222 0.244712C28.4439 0.0815705 28.1186 0.00429313 27.7633 0.00429313V0.961675C27.9603 0.961675 28.1186 1.00031 28.2513 1.0733C28.8335 1.40817 29.086 2.68324 28.8891 4.32324C28.842 4.7268 28.765 5.15183 28.6708 5.58544C27.8318 5.37937 26.9158 5.22052 25.9527 5.11748C25.3748 4.32324 24.7756 3.60199 24.172 2.97089C25.5675 1.67005 26.8773 0.957382 27.7676 0.957382V0C26.5905 0 25.0495 0.841466 23.4914 2.30115C21.9333 0.850052 20.3924 0.0171728 19.2153 0.0171728V0.974554C20.1013 0.974554 21.4154 1.68293 22.8108 2.97518C22.2116 3.60628 21.6123 4.32324 21.043 5.11748C20.0756 5.22052 19.1596 5.37937 18.3206 5.58974C18.2222 5.16042 18.1494 4.74398 18.098 4.34471C17.8969 2.70471 18.1451 1.42963 18.723 1.09047C18.8514 1.01319 19.0183 0.978848 19.2153 0.978848V0.021466C18.8557 0.021466 18.5304 0.0987433 18.2479 0.261885C17.045 0.957382 16.7754 3.12544 17.396 5.84733C14.7336 6.67162 13 7.98963 13 9.38062C13 10.7759 14.7421 12.0982 17.4132 12.9182C16.7968 15.6487 17.0707 17.821 18.2778 18.5165C18.5561 18.6797 18.8814 18.757 19.2409 18.757C20.4181 18.757 21.959 17.9155 23.5171 16.4558C25.0752 17.9069 26.6162 18.7398 27.7933 18.7398C28.1529 18.7398 28.4782 18.6625 28.7607 18.4994C29.9635 17.8039 30.2332 15.6358 29.6125 12.9139C32.2664 12.0939 34 10.7716 34 9.38062ZM28.4268 6.51707C28.2684 7.07089 28.0715 7.64188 27.849 8.21288C27.6735 7.86942 27.4894 7.52597 27.2882 7.18251C27.0913 6.83905 26.8816 6.50419 26.6718 6.1779C27.2797 6.26806 27.8661 6.37968 28.4268 6.51707ZM26.4664 11.0893C26.1325 11.6689 25.7901 12.2184 25.4348 12.7293C24.797 12.7851 24.1506 12.8152 23.5 12.8152C22.8536 12.8152 22.2073 12.7851 21.5738 12.7336C21.2185 12.2227 20.8718 11.6775 20.5379 11.1022C20.2126 10.5398 19.9172 9.96879 19.6476 9.3935C19.913 8.81822 20.2126 8.24293 20.5336 7.68052C20.8675 7.10094 21.21 6.55141 21.5652 6.04052C22.203 5.98471 22.8494 5.95466 23.5 5.95466C24.1464 5.95466 24.7927 5.98471 25.4262 6.03623C25.7815 6.54712 26.1282 7.09235 26.4621 7.66764C26.7874 8.23005 27.0828 8.80104 27.3524 9.37633C27.0828 9.95162 26.7874 10.5269 26.4664 11.0893ZM27.849 10.5312C28.0801 11.1065 28.277 11.6818 28.4397 12.2399C27.8789 12.3773 27.2882 12.4932 26.6761 12.5833C26.8859 12.2528 27.0956 11.9136 27.2925 11.5659C27.4894 11.2224 27.6735 10.8747 27.849 10.5312ZM23.5086 15.112C23.1105 14.6999 22.7124 14.2405 22.3186 13.7382C22.7038 13.7554 23.0976 13.7683 23.4957 13.7683C23.8981 13.7683 24.2962 13.7597 24.6857 13.7382C24.3004 14.2405 23.9024 14.6999 23.5086 15.112ZM20.3239 12.5833C19.7161 12.4932 19.1296 12.3816 18.5689 12.2442C18.7273 11.6904 18.9242 11.1194 19.1468 10.5484C19.3223 10.8918 19.5063 11.2353 19.7075 11.5787C19.9087 11.9222 20.1142 12.2571 20.3239 12.5833ZM23.4872 3.64921C23.8852 4.06136 24.2833 4.52073 24.6771 5.02303C24.2919 5.00586 23.8981 4.99298 23.5 4.99298C23.0976 4.99298 22.6995 5.00157 22.31 5.02303C22.6953 4.52073 23.0934 4.06136 23.4872 3.64921ZM20.3196 6.1779C20.1099 6.50848 19.9001 6.84764 19.7032 7.19539C19.5063 7.53885 19.3223 7.8823 19.1468 8.22576C18.9156 7.65047 18.7187 7.07518 18.556 6.51707C19.1168 6.38398 19.7075 6.26806 20.3196 6.1779ZM16.4458 11.553C14.9305 10.9047 13.9503 10.0547 13.9503 9.38062C13.9503 8.70659 14.9305 7.85225 16.4458 7.20827C16.8139 7.04942 17.2163 6.90775 17.6315 6.77466C17.8755 7.61612 18.1965 8.49193 18.5946 9.38921C18.2008 10.2822 17.884 11.1537 17.6443 11.9909C17.2206 11.8578 16.8182 11.7118 16.4458 11.553ZM18.7487 17.688C18.1665 17.3531 17.914 16.078 18.1109 14.438C18.158 14.0344 18.235 13.6094 18.3292 13.1758C19.1682 13.3819 20.0842 13.5407 21.0473 13.6438C21.6251 14.438 22.2244 15.1593 22.828 15.7904C21.4325 17.0912 20.1227 17.8039 19.2324 17.8039C19.0397 17.7996 18.8771 17.7609 18.7487 17.688ZM28.902 14.4165C29.1031 16.0565 28.8549 17.3316 28.277 17.6708C28.1486 17.7481 27.9817 17.7824 27.7848 17.7824C26.8987 17.7824 25.5846 17.074 24.1892 15.7818C24.7884 15.1507 25.3877 14.4337 25.957 13.6395C26.9244 13.5364 27.8404 13.3776 28.6794 13.1672C28.7778 13.6008 28.8549 14.0173 28.902 14.4165ZM30.5499 11.553C30.1818 11.7118 29.7795 11.8535 29.3642 11.9866C29.1203 11.1451 28.7992 10.2693 28.4011 9.37204C28.7949 8.47905 29.1117 7.60754 29.3514 6.77036C29.7752 6.90345 30.1775 7.04942 30.5542 7.20827C32.0695 7.85654 33.0497 8.70659 33.0497 9.38062C33.0455 10.0547 32.0652 10.909 30.5499 11.553Z" fill="#61DAFB"/>
<path d="M23.4957 11.3427C24.5761 11.3427 25.4519 10.4643 25.4519 9.38069C25.4519 8.29711 24.5761 7.4187 23.4957 7.4187C22.4154 7.4187 21.5396 8.29711 21.5396 9.38069C21.5396 10.4643 22.4154 11.3427 23.4957 11.3427Z" fill="#61DAFB"/>
</g>
<path d="M10.5214 38.36C10.8147 38.8667 11.0614 39.3933 11.2614 39.94H11.2814C10.8147 39.94 10.2947 39.96 9.72141 40C9.14807 40.0267 8.56141 40.02 7.96141 39.98H7.94141C7.80807 39.6733 7.64141 39.3067 7.44141 38.88C7.24141 38.4533 7.02141 38.0067 6.78141 37.54C6.54141 37.0733 6.28141 36.6133 6.00141 36.16C5.72141 35.7067 5.44141 35.3067 5.16141 34.96L5.12141 34.9C5.08141 35.2067 5.06141 35.5867 5.06141 36.04C5.06141 36.48 5.06807 36.94 5.08141 37.42C5.10807 37.8867 5.13474 38.3333 5.16141 38.76C5.18807 39.1867 5.20807 39.5267 5.22141 39.78C4.99474 39.8733 4.69474 39.9333 4.32141 39.96C3.96141 39.9867 3.60141 40 3.24141 40C2.88141 40.0133 2.55474 40.0133 2.26141 40C1.98141 39.9867 1.80807 39.9867 1.74141 40C1.76807 40 1.78807 39.82 1.80141 39.46C1.81474 39.0867 1.82141 38.6 1.82141 38C1.82141 37.4 1.82141 36.7133 1.82141 35.94C1.82141 35.1533 1.81474 34.3467 1.80141 33.52C1.80141 32.68 1.78807 31.8533 1.76141 31.04C1.74807 30.2133 1.73474 29.46 1.72141 28.78C1.70807 28.0867 1.68807 27.5 1.66141 27.02C1.64807 26.5267 1.62807 26.1933 1.60141 26.02C2.34807 25.9133 3.16807 25.8133 4.06141 25.72C4.95474 25.6267 5.88807 25.6333 6.86141 25.74C7.64807 25.78 8.35474 26.0067 8.98141 26.42C9.60807 26.8333 10.0947 27.3467 10.4414 27.96C10.7881 28.5733 10.9681 29.2533 10.9814 30C11.0081 30.7333 10.8147 31.4467 10.4014 32.14C10.1481 32.62 9.80807 33.02 9.38141 33.34C8.96807 33.66 8.44141 33.84 7.80141 33.88H7.72141H7.70141V33.9C7.98141 34.3933 8.28807 34.8867 8.62141 35.38C8.95474 35.86 9.28141 36.3467 9.60141 36.84C9.92141 37.3333 10.2281 37.84 10.5214 38.36ZM5.90141 28.52C5.44807 28.5333 4.98807 28.6333 4.52141 28.82C4.53474 28.9933 4.54141 29.1933 4.54141 29.42C4.55474 29.6333 4.56141 29.8533 4.56141 30.08C4.56141 30.3067 4.56141 30.5267 4.56141 30.74C4.57474 30.9533 4.59474 31.1333 4.62141 31.28H4.64141C4.94807 31.3067 5.28141 31.3267 5.64141 31.34C6.00141 31.3533 6.34141 31.3333 6.66141 31.28C6.91474 31.2267 7.10807 31.1 7.24141 30.9C7.38807 30.6867 7.47474 30.46 7.50141 30.22C7.52807 29.9667 7.50141 29.72 7.42141 29.48C7.34141 29.2267 7.20807 29.0267 7.02141 28.88C6.72807 28.6133 6.35474 28.4933 5.90141 28.52ZM14.8381 35.04C14.5448 35.0267 14.3315 35.0067 14.1981 34.98V35.34C14.2115 35.74 14.2248 36.0667 14.2381 36.32C14.2648 36.5733 14.3515 36.82 14.4981 37.06C14.6581 37.3667 14.8848 37.5933 15.1781 37.74C15.4715 37.8867 15.7581 37.9333 16.0381 37.88C16.3181 37.8267 16.5515 37.6667 16.7381 37.4C16.9381 37.12 17.0248 36.7067 16.9981 36.16C17.1315 36.1733 17.3115 36.18 17.5381 36.18C17.7648 36.1667 17.9981 36.1533 18.2381 36.14C18.4915 36.1267 18.7315 36.1267 18.9581 36.14C19.1848 36.14 19.3715 36.16 19.5181 36.2C19.4915 36.5467 19.4648 36.8867 19.4381 37.22C19.4115 37.5533 19.3781 37.8667 19.3381 38.16C19.2981 38.44 19.2448 38.6867 19.1781 38.9C19.1248 39.1 19.0515 39.24 18.9581 39.32C18.7315 39.64 18.4381 39.8667 18.0781 40C17.7181 40.1333 17.3248 40.2133 16.8981 40.24C16.4715 40.2667 16.0315 40.2667 15.5781 40.24C15.1381 40.2133 14.7315 40.2 14.3581 40.2C13.9848 40.1467 13.6381 40.0267 13.3181 39.84C12.9581 39.5867 12.6581 39.26 12.4181 38.86C12.1781 38.4467 11.9848 38 11.8381 37.52C11.6915 37.0267 11.5915 36.5067 11.5381 35.96C11.4848 35.4133 11.4715 34.8667 11.4981 34.32C11.5381 33.8267 11.5781 33.3533 11.6181 32.9C11.6715 32.4333 11.7781 31.98 11.9381 31.54C12.1115 31.1533 12.3781 30.8267 12.7381 30.56C13.0981 30.28 13.5048 30.0733 13.9581 29.94C14.4115 29.7933 14.8915 29.7133 15.3981 29.7C15.9048 29.6867 16.3981 29.74 16.8781 29.86C17.4915 29.9667 17.9848 30.18 18.3581 30.5C18.7315 30.82 19.0115 31.2067 19.1981 31.66C19.3981 32.1133 19.5181 32.6133 19.5581 33.16C19.5981 33.7067 19.5981 34.26 19.5581 34.82C19.4648 34.8467 19.2848 34.8733 19.0181 34.9C18.7648 34.9267 18.4581 34.9533 18.0981 34.98C17.7515 35.0067 17.3781 35.0267 16.9781 35.04C16.5781 35.0533 16.1915 35.06 15.8181 35.06C15.4581 35.06 15.1315 35.0533 14.8381 35.04ZM17.1781 32.42C17.0448 32.18 16.8581 32 16.6181 31.88C16.5115 31.8133 16.4048 31.7667 16.2981 31.74C16.1915 31.7 16.0648 31.68 15.9181 31.68C15.5981 31.68 15.3381 31.7133 15.1381 31.78C14.9381 31.8467 14.7781 31.94 14.6581 32.06C14.5381 32.18 14.4448 32.32 14.3781 32.48C14.3248 32.64 14.2848 32.8067 14.2581 32.98C14.2315 33.1267 14.2181 33.2333 14.2181 33.3C14.2315 33.3533 14.2981 33.3933 14.4181 33.42C14.5381 33.4333 14.7248 33.44 14.9781 33.44C15.2448 33.4267 15.6315 33.42 16.1381 33.42C16.4848 33.42 16.7448 33.4267 16.9181 33.44C17.0915 33.4533 17.2115 33.46 17.2781 33.46C17.3581 33.4467 17.3981 33.4267 17.3981 33.4C17.3981 33.36 17.3981 33.2867 17.3981 33.18C17.3981 32.9133 17.3248 32.66 17.1781 32.42ZM27.6048 29.98C27.9382 29.9933 28.3182 30.0133 28.7448 30.04C28.7582 30.12 28.7648 30.2 28.7648 30.28C28.7782 30.36 28.7848 30.44 28.7848 30.52V30.72C28.7448 32.16 28.7515 33.58 28.8048 34.98C28.8582 36.3667 28.8382 37.7733 28.7448 39.2C28.7448 39.3733 28.7382 39.5467 28.7248 39.72C28.7248 39.8933 28.6448 39.9933 28.4848 40.02H28.2448C28.0315 40.02 27.8115 40.0133 27.5848 40C27.3715 39.9733 27.1582 39.96 26.9448 39.96C26.7982 39.96 26.6515 39.9733 26.5048 40C26.3715 40.0133 26.2315 40.02 26.0848 40.02C25.9915 39.9933 25.9248 39.94 25.8848 39.86C25.8582 39.78 25.8448 39.6867 25.8448 39.58C25.8448 39.4333 25.8582 39.3133 25.8848 39.22C25.9115 39.1267 25.9248 39.0133 25.9248 38.88C25.6048 39.2 25.1982 39.4733 24.7048 39.7C24.2248 39.9267 23.7515 40.04 23.2848 40.04C22.7648 40.04 22.3182 39.86 21.9448 39.5C21.5848 39.14 21.2848 38.6933 21.0448 38.16C20.8048 37.6267 20.6248 37.0467 20.5048 36.42C20.3982 35.7933 20.3448 35.2133 20.3448 34.68C20.3448 34.0133 20.4315 33.4 20.6048 32.84C20.7782 32.28 21.0115 31.8 21.3048 31.4C21.6115 30.9867 21.9715 30.6667 22.3848 30.44C22.7982 30.2 23.2382 30.0733 23.7048 30.06C23.9448 30.06 24.1648 30.0667 24.3648 30.08C24.5782 30.08 24.7715 30.1133 24.9448 30.18C25.1182 30.2333 25.2715 30.3267 25.4048 30.46C25.5382 30.58 25.6515 30.7533 25.7448 30.98C25.7315 30.7667 25.7382 30.5867 25.7648 30.44C25.8048 30.28 25.8248 30.12 25.8248 29.96C25.8248 29.9467 25.8648 29.94 25.9448 29.94C26.0382 29.9267 26.1382 29.9267 26.2448 29.94C26.3515 29.94 26.4582 29.94 26.5648 29.94C26.6715 29.94 26.7448 29.94 26.7848 29.94C27.0115 29.9533 27.2848 29.9667 27.6048 29.98ZM23.4848 33.14C23.1782 33.3933 22.9915 33.6867 22.9248 34.02C22.8715 34.1933 22.8382 34.3733 22.8248 34.56C22.8115 34.7333 22.8048 34.9067 22.8048 35.08C22.8048 35.68 22.9582 36.1933 23.2648 36.62C23.5848 37.0333 24.0248 37.24 24.5848 37.24C24.9182 37.24 25.1648 37.1867 25.3248 37.08C25.4982 36.96 25.6182 36.8 25.6848 36.6C25.7648 36.3867 25.8048 36.1333 25.8048 35.84C25.8182 35.5333 25.8248 35.1933 25.8248 34.82C25.8248 34.3533 25.8182 33.9867 25.8048 33.72C25.8048 33.44 25.7715 33.2267 25.7048 33.08C25.6515 32.9333 25.5515 32.84 25.4048 32.8C25.2715 32.76 25.0648 32.74 24.7848 32.74C24.2382 32.74 23.8048 32.8733 23.4848 33.14ZM37.3366 36.1C37.5632 36.1 37.7499 36.12 37.8966 36.16C37.8699 36.5067 37.8432 36.8467 37.8166 37.18C37.7899 37.5133 37.7566 37.8267 37.7166 38.12C37.6766 38.4 37.6232 38.6467 37.5566 38.86C37.5032 39.06 37.4299 39.2067 37.3366 39.3C37.1099 39.62 36.8099 39.8467 36.4366 39.98C36.0766 40.1133 35.6832 40.1933 35.2566 40.22C34.8299 40.26 34.3899 40.26 33.9366 40.22C33.4832 40.1933 33.0699 40.18 32.6966 40.18C32.0166 40.06 31.4432 39.7667 30.9766 39.3C30.6166 38.98 30.3699 38.58 30.2366 38.1C30.1032 37.62 30.0232 37.12 29.9966 36.6C29.9699 36.0667 29.9632 35.5333 29.9766 35C30.0032 34.4667 29.9899 33.98 29.9366 33.54C29.9366 33.06 29.9766 32.58 30.0566 32.1C30.0699 31.9533 30.1166 31.7533 30.1966 31.5C30.2766 31.2467 30.3366 31.0533 30.3766 30.92C30.4699 30.72 30.6166 30.5467 30.8166 30.4C31.0299 30.2533 31.2699 30.1333 31.5366 30.04C31.8166 29.9333 32.1099 29.86 32.4166 29.82C32.7366 29.78 33.0566 29.76 33.3766 29.76C33.6432 29.7867 33.8966 29.7933 34.1366 29.78C34.3899 29.7533 34.6566 29.7533 34.9366 29.78C35.3632 29.8067 35.7699 29.8867 36.1566 30.02C36.5432 30.1533 36.8766 30.3533 37.1566 30.62C37.3432 30.7533 37.4832 30.9333 37.5766 31.16C37.6832 31.3867 37.7632 31.6533 37.8166 31.96C37.8699 32.2667 37.8966 32.6133 37.8966 33C37.9099 33.3733 37.9232 33.78 37.9366 34.22C37.7632 34.26 37.5632 34.28 37.3366 34.28C37.1232 34.28 36.8966 34.2733 36.6566 34.26C36.4299 34.2467 36.2032 34.2267 35.9766 34.2C35.7632 34.1733 35.5699 34.1467 35.3966 34.12C35.3299 33.6533 35.1366 33.2933 34.8166 33.04C34.4966 32.7733 34.0766 32.7067 33.5566 32.84C33.2766 32.92 33.0499 33.0667 32.8766 33.28C32.7966 33.3333 32.7366 33.4667 32.6966 33.68C32.6432 34.0933 32.6166 34.5133 32.6166 34.94C32.6166 35.3667 32.6032 35.8133 32.5766 36.28C32.5499 36.5867 32.6232 36.8267 32.7966 37C32.9832 37.1733 33.2032 37.2933 33.4566 37.36C33.7099 37.4133 33.9699 37.4267 34.2366 37.4C34.5032 37.36 34.7166 37.2867 34.8766 37.18C35.0099 37.0867 35.1099 36.9333 35.1766 36.72C35.2566 36.4933 35.3166 36.2933 35.3566 36.12C35.4899 36.1333 35.6699 36.14 35.8966 36.14C36.1232 36.1267 36.3632 36.1133 36.6166 36.1C36.8699 36.0867 37.1099 36.0867 37.3366 36.1ZM41.9442 26.34C42.1709 26.3533 42.3976 26.3467 42.6242 26.32V29C42.6242 29.1733 42.6242 29.3533 42.6242 29.54C42.6376 29.7267 42.6442 29.92 42.6442 30.12C43.0576 30.1067 43.4909 30.0867 43.9442 30.06C44.4109 30.0333 44.9842 30 45.6642 29.96C45.7576 30.0667 45.8109 30.2267 45.8242 30.44C45.8376 30.64 45.8376 30.86 45.8242 31.1C45.8109 31.34 45.7909 31.5867 45.7642 31.84C45.7509 32.08 45.7576 32.2867 45.7842 32.46H42.6842C42.6842 33.18 42.6842 33.8867 42.6842 34.58C42.6842 35.26 42.6909 35.9 42.7042 36.5C42.8376 36.6867 43.0309 36.8333 43.2842 36.94C43.5376 37.0467 43.8109 37.1333 44.1042 37.2C44.3976 37.2533 44.6909 37.2867 44.9842 37.3C45.2909 37.3133 45.5576 37.3133 45.7842 37.3C45.8109 37.4867 45.8376 37.6933 45.8642 37.92C45.8909 38.1467 45.9109 38.38 45.9242 38.62C45.9376 38.86 45.9309 39.1 45.9042 39.34C45.8909 39.58 45.8509 39.8 45.7842 40C45.2509 40.0267 44.6976 40.0267 44.1242 40C43.5509 39.96 43.0109 39.88 42.5042 39.76C41.9976 39.64 41.5442 39.46 41.1442 39.22C40.7576 38.98 40.4776 38.6533 40.3042 38.24C40.1309 37.2133 40.0309 36.2467 40.0042 35.34C39.9776 34.42 39.9709 33.4733 39.9842 32.5C39.7709 32.5133 39.5442 32.52 39.3042 32.52C39.0776 32.52 38.8242 32.52 38.5442 32.52L38.6042 30.08C38.8709 30.0933 39.1176 30.1 39.3442 30.1C39.5842 30.1 39.8109 30.1 40.0242 30.1C40.0242 29.8067 40.0176 29.4933 40.0042 29.16C39.9909 28.8133 39.9842 28.4667 39.9842 28.12C39.9842 27.7733 39.9842 27.44 39.9842 27.12C39.9976 26.8 40.0176 26.5133 40.0442 26.26C40.2176 26.2333 40.4042 26.2267 40.6042 26.24C40.8176 26.2533 41.0376 26.2733 41.2642 26.3C41.4909 26.3133 41.7176 26.3267 41.9442 26.34Z" fill="white"/>
<defs>
<clipPath id="clip0_114_109">
<rect width="21" height="19" fill="white" transform="translate(13)"/>
</clipPath>
</defs>
</svg>
