<svg xmlns="http://www.w3.org/2000/svg" viewBox="0 0 24 24" width="24" height="24" fill="black">
  <path d="M5 4.5a.5.5 0 00-.5.5v14a.5.5 0 00.5.5h14a.5.5 0 00.5-.5V5a.5.5 0 00-.5-.5H5zm0-1h14A1.5 1.5 0 0120.5 5v14a1.5 1.5 0 01-1.5 1.5H5A1.5 1.5 0 013.5 19V5A1.5 1.5 0 015 3.5z"/>
  <path d="M6.5 6.5L17.5 6.5 17.5 17.5 6.5 17.5z"/>
</svg>
<svg xmlns="http://www.w3.org/2000/svg" viewBox="0 0 24 24" width="24" height="24">
  <path fill="#FFFFFF" d="M5 3.5C4.17 3.5 3.5 4.17 3.5 5v14c0 0.83 0.67 1.5 1.5 1.5h14c0.83 0 1.5-0.67 1.5-1.5V5c0-0.83-0.67-1.5-1.5-1.5H5zM5 5h14v14H5V5z"/>
  <rect fill="#FFFFFF" x="7" y="7" width="10" height="10"/>
</svg>
