<svg width="42" height="50" viewBox="0 0 42 50" fill="none" xmlns="http://www.w3.org/2000/svg">
<g clip-path="url(#clip0_30_102)">
<path opacity="0.8" d="M27.355 5.52002L26.5664 11.04L21 11.875L21.7886 6.30859L27.355 5.52002Z" fill="#A295AE"/>
<path opacity="0.8" d="M14.6914 18.23L15.48 12.71L21 11.9214L20.2114 17.4878L14.6914 18.23Z" fill="#5D6F6D"/>
<path opacity="0.8" d="M14.6914 5.52002L20.2114 6.30859L21 11.875L15.4336 11.0864L14.6914 5.52002Z" fill="#8CD592"/>
<path opacity="0.8" d="M27.355 18.1836L21.835 17.395L21.0464 11.8286L26.6128 12.6172L27.355 18.1836Z" fill="#665E74"/>
<path opacity="0.8" d="M21 20.8276L17.6602 16.3745L21 11.9214L24.3398 16.3745L21 20.8276Z" fill="#3C3647"/>
<path opacity="0.8" d="M29.999 11.8286L25.5459 15.1685L21.0928 11.8286L25.5459 8.48877L29.999 11.8286Z" fill="#837193"/>
<path opacity="0.8" d="M21 2.87598L24.3398 7.3291L21 11.7822L17.6602 7.3291L21 2.87598Z" fill="#A2F4AC"/>
<path opacity="0.8" d="M12.0474 11.875L16.5005 8.53516L20.9536 11.875L16.5005 15.2148L12.0474 11.875Z" fill="#7EA685"/>
<path d="M21 9.74121L23.1338 11.875L21 14.0088L18.8662 11.875L21 9.74121Z" fill="#3C3647"/>
</g>
<path d="M5.33164 30.65C6.78497 30.6367 8.19831 30.7033 9.57164 30.85C9.59831 31.29 9.60497 31.7967 9.59164 32.37C9.59164 32.9433 9.55831 33.47 9.49164 33.95C9.23831 33.8967 8.92497 33.8767 8.55164 33.89C8.17831 33.9033 7.67831 33.9233 7.05164 33.95H7.01164H6.99164C6.99164 33.9633 6.98497 33.9767 6.97164 33.99C6.97164 33.99 6.97164 33.9967 6.97164 34.01C6.95831 34.0767 6.94497 34.1833 6.93164 34.33C6.93164 34.4633 6.93164 34.6833 6.93164 34.99C6.93164 35.2833 6.93164 35.6767 6.93164 36.17C6.94497 36.65 6.95831 37.2767 6.97164 38.05C6.98497 38.81 6.99831 39.73 7.01164 40.81C7.02497 41.8767 7.04497 43.1367 7.07164 44.59V44.61V44.63C6.83164 44.67 6.56497 44.6967 6.27164 44.71C5.99164 44.71 5.70497 44.71 5.41164 44.71C5.13164 44.71 4.85164 44.71 4.57164 44.71C4.29164 44.71 4.03164 44.73 3.79164 44.77C3.77831 44.7167 3.77831 44.4767 3.79164 44.05C3.80497 43.6233 3.81164 42.99 3.81164 42.15C3.82497 41.2967 3.81831 40.21 3.79164 38.89C3.77831 37.57 3.73164 35.9767 3.65164 34.11L3.63164 34.09C3.47164 34.01 3.27164 33.9633 3.03164 33.95C2.79164 33.9233 2.55164 33.91 2.31164 33.91C2.07164 33.8967 1.85164 33.89 1.65164 33.89C1.45164 33.89 1.31164 33.8767 1.23164 33.85C1.20497 33.7967 1.17831 33.6633 1.15164 33.45C1.13831 33.2367 1.12497 32.9833 1.11164 32.69C1.11164 32.3833 1.11164 32.0567 1.11164 31.71C1.11164 31.3633 1.12497 31.03 1.15164 30.71C1.15164 30.6967 1.14497 30.69 1.13164 30.69C1.13164 30.69 1.13164 30.6833 1.13164 30.67C2.49164 30.6567 3.89164 30.65 5.33164 30.65ZM16.2084 34.73C16.5417 34.7433 16.9217 34.7633 17.3484 34.79C17.3617 34.87 17.3684 34.95 17.3684 35.03C17.3817 35.11 17.3884 35.19 17.3884 35.27V35.47C17.3484 36.91 17.355 38.33 17.4084 39.73C17.4617 41.1167 17.4417 42.5233 17.3484 43.95C17.3484 44.1233 17.3417 44.2967 17.3284 44.47C17.3284 44.6433 17.2484 44.7433 17.0884 44.77H16.8484C16.635 44.77 16.415 44.7633 16.1884 44.75C15.975 44.7233 15.7617 44.71 15.5484 44.71C15.4017 44.71 15.255 44.7233 15.1084 44.75C14.975 44.7633 14.835 44.77 14.6884 44.77C14.595 44.7433 14.5284 44.69 14.4884 44.61C14.4617 44.53 14.4484 44.4367 14.4484 44.33C14.4484 44.1833 14.4617 44.0633 14.4884 43.97C14.515 43.8767 14.5284 43.7633 14.5284 43.63C14.2084 43.95 13.8017 44.2233 13.3084 44.45C12.8284 44.6767 12.355 44.79 11.8884 44.79C11.3684 44.79 10.9217 44.61 10.5484 44.25C10.1884 43.89 9.88836 43.4433 9.64836 42.91C9.40836 42.3767 9.22836 41.7967 9.10836 41.17C9.00169 40.5433 8.94836 39.9633 8.94836 39.43C8.94836 38.7633 9.03503 38.15 9.20836 37.59C9.38169 37.03 9.61503 36.55 9.90836 36.15C10.215 35.7367 10.575 35.4167 10.9884 35.19C11.4017 34.95 11.8417 34.8233 12.3084 34.81C12.5484 34.81 12.7684 34.8167 12.9684 34.83C13.1817 34.83 13.375 34.8633 13.5484 34.93C13.7217 34.9833 13.875 35.0767 14.0084 35.21C14.1417 35.33 14.255 35.5033 14.3484 35.73C14.335 35.5167 14.3417 35.3367 14.3684 35.19C14.4084 35.03 14.4284 34.87 14.4284 34.71C14.4284 34.6967 14.4684 34.69 14.5484 34.69C14.6417 34.6767 14.7417 34.6767 14.8484 34.69C14.955 34.69 15.0617 34.69 15.1684 34.69C15.275 34.69 15.3484 34.69 15.3884 34.69C15.615 34.7033 15.8884 34.7167 16.2084 34.73ZM12.0884 37.89C11.7817 38.1433 11.595 38.4367 11.5284 38.77C11.475 38.9433 11.4417 39.1233 11.4284 39.31C11.415 39.4833 11.4084 39.6567 11.4084 39.83C11.4084 40.43 11.5617 40.9433 11.8684 41.37C12.1884 41.7833 12.6284 41.99 13.1884 41.99C13.5217 41.99 13.7684 41.9367 13.9284 41.83C14.1017 41.71 14.2217 41.55 14.2884 41.35C14.3684 41.1367 14.4084 40.8833 14.4084 40.59C14.4217 40.2833 14.4284 39.9433 14.4284 39.57C14.4284 39.1033 14.4217 38.7367 14.4084 38.47C14.4084 38.19 14.375 37.9767 14.3084 37.83C14.255 37.6833 14.155 37.59 14.0084 37.55C13.875 37.51 13.6684 37.49 13.3884 37.49C12.8417 37.49 12.4084 37.6233 12.0884 37.89ZM20.1401 34.69C20.4467 34.7033 20.8134 34.7033 21.2401 34.69H21.5801V34.75C21.5667 36.3633 21.5334 38.01 21.4801 39.69C21.4401 41.37 21.4667 43.0167 21.5601 44.63C21.4934 44.71 21.3267 44.75 21.0601 44.75C20.7934 44.7633 20.5001 44.7633 20.1801 44.75C19.8734 44.75 19.5801 44.7433 19.3001 44.73C19.0201 44.7167 18.8334 44.7233 18.7401 44.75C18.8067 43.91 18.8334 43.0567 18.8201 42.19C18.8201 41.3233 18.8067 40.4633 18.7801 39.61C18.7534 38.7567 18.7401 37.9167 18.7401 37.09C18.7401 36.25 18.7801 35.4367 18.8601 34.65V34.63C18.9134 34.6167 19.0001 34.6167 19.1201 34.63C19.2534 34.6433 19.3534 34.65 19.4201 34.65C19.5934 34.6633 19.8334 34.6767 20.1401 34.69ZM18.8001 31.89C18.7734 31.4633 18.7667 30.9433 18.7801 30.33L21.5001 30.39C21.5001 30.47 21.5001 30.6167 21.5001 30.83C21.5134 31.03 21.5201 31.2567 21.5201 31.51C21.5334 31.75 21.5401 32.0033 21.5401 32.27C21.5534 32.5233 21.5601 32.75 21.5601 32.95C21.5067 33.03 21.3801 33.0833 21.1801 33.11C20.9934 33.1367 20.7667 33.15 20.5001 33.15C20.2467 33.1367 19.9734 33.1233 19.6801 33.11C19.3867 33.0833 19.1134 33.0767 18.8601 33.09C18.8601 32.7033 18.8401 32.3033 18.8001 31.89ZM24.9207 39.63C24.9207 39.75 24.9207 39.8767 24.9207 40.01V40.19C24.9207 40.87 25.1207 41.45 25.5207 41.93C25.7607 42.2233 26.0807 42.4033 26.4807 42.47C26.8807 42.5233 27.254 42.4967 27.6007 42.39C27.7207 42.35 27.814 42.29 27.8807 42.21C27.9474 42.1167 28.0007 42.0167 28.0407 41.91C28.0807 41.79 28.1074 41.67 28.1207 41.55C28.1474 41.4167 28.1674 41.29 28.1807 41.17C28.1807 40.6367 28.1674 40.0967 28.1407 39.55C28.1274 38.99 28.054 38.4567 27.9207 37.95C27.8407 37.75 27.7074 37.5967 27.5207 37.49C27.3474 37.37 27.154 37.2967 26.9407 37.27C26.7274 37.2433 26.514 37.2633 26.3007 37.33C26.1007 37.3833 25.9207 37.4767 25.7607 37.61C25.5607 37.8367 25.3874 38.09 25.2407 38.37C25.1074 38.6367 25.014 38.9233 24.9607 39.23C24.934 39.3633 24.9207 39.4967 24.9207 39.63ZM28.9007 48.67C28.714 48.71 28.5407 48.7367 28.3807 48.75C28.2474 48.7767 28.0074 48.7833 27.6607 48.77C27.314 48.7567 26.8674 48.75 26.3207 48.75C25.694 48.75 25.134 48.6167 24.6407 48.35C24.1474 48.0833 23.7474 47.7233 23.4407 47.27C23.3874 47.1767 23.334 47.05 23.2807 46.89C23.2407 46.7433 23.2007 46.59 23.1607 46.43C23.134 46.27 23.114 46.1167 23.1007 45.97C23.1007 45.8233 23.1074 45.6967 23.1207 45.59C23.254 45.5367 23.434 45.4967 23.6607 45.47C23.8874 45.4567 24.1207 45.45 24.3607 45.45C24.614 45.4633 24.854 45.4767 25.0807 45.49C25.3207 45.5167 25.5207 45.5433 25.6807 45.57C25.6807 45.9167 25.7874 46.19 26.0007 46.39C26.2274 46.6033 26.474 46.7233 26.7407 46.75C27.0207 46.7767 27.2874 46.71 27.5407 46.55C27.8074 46.39 27.9807 46.1233 28.0607 45.75C28.074 45.6167 28.0874 45.4767 28.1007 45.33C28.114 45.1967 28.114 45.0767 28.1007 44.97C28.074 44.7433 28.074 44.51 28.1007 44.27C27.9674 44.4167 27.8074 44.5233 27.6207 44.59C27.4474 44.6567 27.254 44.7033 27.0407 44.73C26.8407 44.7567 26.634 44.77 26.4207 44.77C26.2074 44.77 26.0074 44.7767 25.8207 44.79C25.5674 44.79 25.3074 44.77 25.0407 44.73C24.7874 44.69 24.5407 44.6233 24.3007 44.53C24.074 44.4367 23.8674 44.31 23.6807 44.15C23.494 43.99 23.3407 43.7833 23.2207 43.53C23.034 43.17 22.9007 42.7967 22.8207 42.41C22.7407 42.01 22.6874 41.6033 22.6607 41.19C22.6607 40.5633 22.674 39.89 22.7007 39.17C22.7274 38.45 22.8407 37.7767 23.0407 37.15C23.254 36.51 23.5874 35.9767 24.0407 35.55C24.494 35.11 25.1474 34.8633 26.0007 34.81C26.4274 34.7833 26.8207 34.8433 27.1807 34.99C27.554 35.1233 27.8207 35.3767 27.9807 35.75C28.034 35.7767 28.0607 35.7567 28.0607 35.69C28.074 35.61 28.074 35.5167 28.0607 35.41C28.0607 35.29 28.054 35.1767 28.0407 35.07C28.0407 34.95 28.0607 34.8567 28.1007 34.79C28.5407 34.7367 28.9874 34.7233 29.4407 34.75C29.894 34.7633 30.3474 34.77 30.8007 34.77C30.854 36.4367 30.8807 38.1833 30.8807 40.01C30.894 41.8233 30.8607 43.69 30.7807 45.61C30.7674 45.93 30.7674 46.2433 30.7807 46.55C30.794 46.87 30.734 47.1367 30.6007 47.35C30.414 47.6433 30.2207 47.8767 30.0207 48.05C29.834 48.2233 29.6474 48.3567 29.4607 48.45C29.274 48.5567 29.0874 48.63 28.9007 48.67ZM39.1966 34.73C39.53 34.7433 39.91 34.7633 40.3366 34.79C40.35 34.87 40.3566 34.95 40.3566 35.03C40.37 35.11 40.3766 35.19 40.3766 35.27V35.47C40.3366 36.91 40.3433 38.33 40.3966 39.73C40.45 41.1167 40.43 42.5233 40.3366 43.95C40.3366 44.1233 40.33 44.2967 40.3166 44.47C40.3166 44.6433 40.2366 44.7433 40.0766 44.77H39.8366C39.6233 44.77 39.4033 44.7633 39.1766 44.75C38.9633 44.7233 38.75 44.71 38.5366 44.71C38.39 44.71 38.2433 44.7233 38.0966 44.75C37.9633 44.7633 37.8233 44.77 37.6766 44.77C37.5833 44.7433 37.5166 44.69 37.4766 44.61C37.45 44.53 37.4366 44.4367 37.4366 44.33C37.4366 44.1833 37.45 44.0633 37.4766 43.97C37.5033 43.8767 37.5166 43.7633 37.5166 43.63C37.1966 43.95 36.79 44.2233 36.2966 44.45C35.8166 44.6767 35.3433 44.79 34.8766 44.79C34.3566 44.79 33.91 44.61 33.5366 44.25C33.1766 43.89 32.8766 43.4433 32.6366 42.91C32.3966 42.3767 32.2166 41.7967 32.0966 41.17C31.99 40.5433 31.9366 39.9633 31.9366 39.43C31.9366 38.7633 32.0233 38.15 32.1966 37.59C32.37 37.03 32.6033 36.55 32.8966 36.15C33.2033 35.7367 33.5633 35.4167 33.9766 35.19C34.39 34.95 34.83 34.8233 35.2966 34.81C35.5366 34.81 35.7566 34.8167 35.9566 34.83C36.17 34.83 36.3633 34.8633 36.5366 34.93C36.71 34.9833 36.8633 35.0767 36.9966 35.21C37.13 35.33 37.2433 35.5033 37.3366 35.73C37.3233 35.5167 37.33 35.3367 37.3566 35.19C37.3966 35.03 37.4166 34.87 37.4166 34.71C37.4166 34.6967 37.4566 34.69 37.5366 34.69C37.63 34.6767 37.73 34.6767 37.8366 34.69C37.9433 34.69 38.05 34.69 38.1566 34.69C38.2633 34.69 38.3366 34.69 38.3766 34.69C38.6033 34.7033 38.8766 34.7167 39.1966 34.73ZM35.0766 37.89C34.77 38.1433 34.5833 38.4367 34.5166 38.77C34.4633 38.9433 34.43 39.1233 34.4166 39.31C34.4033 39.4833 34.3966 39.6567 34.3966 39.83C34.3966 40.43 34.55 40.9433 34.8566 41.37C35.1766 41.7833 35.6166 41.99 36.1766 41.99C36.51 41.99 36.7566 41.9367 36.9166 41.83C37.09 41.71 37.21 41.55 37.2766 41.35C37.3566 41.1367 37.3966 40.8833 37.3966 40.59C37.41 40.2833 37.4166 39.9433 37.4166 39.57C37.4166 39.1033 37.41 38.7367 37.3966 38.47C37.3966 38.19 37.3633 37.9767 37.2966 37.83C37.2433 37.6833 37.1433 37.59 36.9966 37.55C36.8633 37.51 36.6566 37.49 36.3766 37.49C35.83 37.49 35.3966 37.6233 35.0766 37.89Z" fill="white"/>
<defs>
<clipPath id="clip0_30_102">
<rect width="23.75" height="23.75" fill="white" transform="translate(9.125)"/>
</clipPath>
</defs>
</svg>
