<?xml version="1.0" encoding="UTF-8" standalone="no"?>
<svg xmlns="http://www.w3.org/2000/svg" width="55" height="55" viewBox="0 0 512 512">
  <path fill="#264DE4" d="M71.357 460.819L30.272 0h451.456l-41.129 460.746L255.724 512z"/>
  <path fill="#2965F1" d="M405.388 431.408l35.148-393.73H256v435.146z"/>
  <path fill="#EBEBEB" d="M124.46 208.59l5.065 56.517H256V208.59zM119.419 150.715H256V94.197H114.281zM256 355.372l-0.248 0.066-63.105-17.033-4.035-45.216H132.5l7.945 88.968 115.304 32.01 0.251-0.069z"/>
  <path fill="#FFF" d="M255.865 208.59v56.517h69.524l-6.55 73.266-62.974 17.007v58.8l115.851-32.104 0.85-9.548 13.28-148.838 1.38-15.1h-131.361zM255.865 94.197v56.518h133.356l1.103-12.382 2.51-27.78 1.318-16.356z"/>
</svg>
