<?xml version="1.0" encoding="UTF-8" standalone="no"?>
<svg xmlns="http://www.w3.org/2000/svg" width="55" height="55" viewBox="0 0 256 185">
  <path d="M250.716 70.496c-5.765-4-18.976-5.5-29.304-3.5-1.371-10-7.744-18.5-18.856-26.244l-6.403-3.5-4.245 5.539c-5.344 7-8.168 16.5-7.354 25.693.467 3.5.514 7.077 2.226 11.077-5.16 2.846-15.305 6.924-28.873 6.693H2.461l-.7 4.077c-2.65 15.77-.7 36.154 7.937 50.462 6.537 10.77 16.26 16.23 29.02 16.23 27.45 0 47.044-13.077 56.7-36.538 3.64 0 11.59.77 22.072-3.538 16.9-6.924 27.542-7.424 29.95-7.424h.28c0 .385-.14.693-.14 1.077l-.047 1.847.98 1.615c2.32 3.77 3.268 13.77 3.594 17.154h3.967v-17.23h21.35v-21.154h-21.35V88.268h21.35V67.534h-13.1c-.32-3.692-3.827-14.23-15.959-22.307 11.308-3.384 21.864 1.23 27.028 4.846l3.5 2.53 4.246-1.23c4.7-1.424 15.678-3.462 24.127-.847-2.832 3.655-8.084 6.847-11.824 8.193l-6.868 2.5.56 7.5c.42 6.193.42 11.693-4.48 16.693-4.252 4.615-10.708 6.846-18.996 6.846h-7.099c5.77 13.308 4.763 30.538 4.66 32.538h4.48c3.734-5.538 22.328-8.692 28.548-9.384 2.333 5.23 2.566 27.308-4.22 41.847C175.94 175.15 163.562 184 147.534 184H40.982c-10.012 0-18.76-3.231-24.966-9.307-8.868-8.847-13.997-22.923-15.316-41.847-.698-10-1.912-34.693 14.245-59.846H139.6c15.352.23 26.713-5 34.036-10.23-1.352-2.54-2.332-5.308-2.658-8.078-14.918 9.307-31.918 10-35.757 10h-.56c-3.5-9.693-3.872-18.693-1.354-27.077.935-3.077 2.332-5.846 3.966-8.154-9.17-4.308-27.59-8-40.067 3.077.467-5.23 1.4-13.077 8.474-20.077-6.402-.385-20.26 2.538-27.077 15.154-9.823-6.308-9.356-16.923-8.798-20.846-7.468 8.77-7.844 22.77-6.257 28.384-17.757 8.462-27.683 23.692-32.43 40.693 4.947-21.385 14.944-37.77 29.77-49.077.842-.692 1.45-1.154 1.45-1.154 6.776-18 22.8-24.308 27.988-26.462-5.345 6.693-9.17 14.539-10.757 20.077 0 0 2.193-.693 4.9-1.77-2.753 10.462-1.354 21.308 4.2 30 5.254 8.231 13.152 12.923 21.997 13.77-5.95 1.153-12.486 1.153-19.898-.078C82.8 77.188 94.033 97.573 118.954 97.958H2.46" fill="#2396ED"/>
</svg>
