<svg width="80" height="80" viewBox="0 0 80 80" fill="none" xmlns="http://www.w3.org/2000/svg">
<path d="M27.4626 80C28.6991 79.454 29.5652 78.1925 29.5652 76.7241V67.0889C29.5652 66.7374 29.593 66.3717 29.6365 66.0005C29.6122 66.0077 29.5896 66.013 29.5652 66.0184C29.5652 66.0184 24.3478 66.0184 23.3043 66.0184C20.6957 66.0184 18.4348 64.9478 17.3913 62.8067C16.1739 60.4871 15.6522 56.5617 12.5217 54.4206C12 54.0637 12.3478 53.5284 13.3913 53.5284C14.4348 53.7068 16.6957 55.1343 18.087 57.097C19.6522 59.0597 21.2174 60.6655 24 60.6655C28.3252 60.6655 30.6435 60.4425 32.0383 59.6753C33.6626 57.1969 35.9113 55.3127 38.2609 55.3127V55.2681C28.4035 54.9433 22.1061 51.5818 19.1739 46.3913C12.8 46.4662 7.25043 47.1139 4.08348 47.6528C3.98261 47.0693 3.89565 46.4823 3.82087 45.8917C6.94609 45.3635 12.2435 44.7373 18.3339 44.6177C18.1391 44.1253 17.9704 43.6203 17.8278 43.1029C11.7217 42.7853 6.45217 43.0333 3.58957 43.2759C3.55478 42.6836 3.50783 42.093 3.50087 41.4934C6.3687 41.2526 11.4957 41.0117 17.4452 41.2954C17.3078 40.4032 17.2191 39.4915 17.2191 38.5422C17.2191 35.509 18.2626 32.2973 20.1757 29.6208C19.3061 26.5876 18.0887 20.1642 20.5235 17.8446C25.2191 17.8446 28.5235 20.1642 30.0887 21.5916C33.0435 20.3408 36.3478 19.6271 40 19.6271C43.6522 19.6271 46.9565 20.3408 49.7391 21.5898C51.3043 20.1624 54.6087 17.8428 59.3043 17.8428C61.913 20.3408 60.5217 26.7642 59.6522 29.6191C61.5652 32.2955 62.6087 35.3288 62.4348 38.5405C62.4348 39.404 62.3565 40.2373 62.2435 41.0545C68.3287 40.7476 73.5948 40.9938 76.5113 41.2365C76.5078 41.8378 76.4539 42.4248 76.4226 43.019C73.5165 42.7728 68.1183 42.5194 61.8852 42.8602C61.7304 43.4597 61.5426 44.0432 61.32 44.6088C67.487 44.6909 72.9113 45.3029 76.1861 45.8382C76.1113 46.4305 76.0243 47.0176 75.9235 47.5993C72.5983 47.0533 66.9304 46.4145 60.4817 46.3824C57.5861 51.5175 51.4035 54.8666 41.7391 55.2574V55.3127C46.2609 55.3127 50.4348 62.2714 50.4348 67.0889V76.7241C50.4348 78.1925 51.3009 79.454 52.5374 80C68.4696 74.5901 80 59.1739 80 41.0385C80 18.4102 62.0574 0 40 0C17.9426 0 0 18.4102 0 41.0385C0 59.1739 11.5304 74.5901 27.4626 80Z" fill="white"/>
</svg>
