<svg width="16" height="16" viewBox="0 0 16 16" fill="none" xmlns="http://www.w3.org/2000/svg">
<path d="M5.95216 12.265C5.95216 12.265 5.35629 12.6118 6.37679 12.7288C7.61329 12.87 8.24516 12.8498 9.60741 12.5923C9.60741 12.5923 9.96629 12.8166 10.4665 13.0111C7.41166 14.3199 3.55304 12.9353 5.95216 12.265ZM5.57866 10.5569C5.57866 10.5569 4.91016 11.0518 5.93154 11.1575C7.25241 11.2939 8.29529 11.305 10.1008 10.9575C10.1008 10.9575 10.3499 11.2106 10.7423 11.3489C7.04954 12.4289 2.93654 11.4339 5.57866 10.5569Z" fill="#0074BD"/>
<path d="M8.72532 7.65887C9.47844 8.52575 8.52782 9.30512 8.52782 9.30512C8.52782 9.30512 10.4389 8.31875 9.56144 7.083C8.74157 5.93112 8.11307 5.359 11.5158 3.3855C11.5158 3.38562 6.17444 4.71925 8.72532 7.65887Z" fill="#EA2D2E"/>
<path d="M12.7653 13.5286C12.7653 13.5286 13.2064 13.8924 12.2793 14.1735C10.5166 14.7075 4.94105 14.8685 3.39255 14.1949C2.83618 13.9526 3.87993 13.6167 4.2083 13.5459C4.55068 13.4717 4.74618 13.4852 4.74618 13.4852C4.12705 13.0494 0.744554 14.3415 3.0283 14.7121C9.25593 15.7216 14.3804 14.2575 12.7653 13.5286ZM6.23893 8.78675C6.23893 8.78675 3.40318 9.46037 5.2348 9.70525C6.0083 9.80875 7.54955 9.785 8.98618 9.6645C10.1599 9.56587 11.3378 9.35525 11.3378 9.35525C11.3378 9.35525 10.9243 9.53262 10.6248 9.73687C7.74455 10.4945 2.1818 10.1416 3.78343 9.36712C5.13743 8.71225 6.23893 8.78675 6.23893 8.78675ZM11.3261 11.6301C14.2537 10.1092 12.8999 8.64762 11.9551 8.8445C11.7241 8.89262 11.6204 8.9345 11.6204 8.9345C11.6204 8.9345 11.7064 8.79962 11.8704 8.74162C13.7396 8.08475 15.1768 10.6795 11.2676 11.7072C11.2676 11.707 11.3124 11.6664 11.3261 11.6301Z" fill="#0074BD"/>
<path d="M9.56127 0.198364C9.56127 0.198364 11.1823 1.82036 8.0234 4.31374C5.49015 6.31449 7.44577 7.45499 8.02252 8.75861C6.54365 7.42449 5.4589 6.24986 6.18652 5.15674C7.25502 3.55249 10.2151 2.77436 9.56127 0.198364Z" fill="#EA2D2E"/>
<path d="M6.52668 15.7526C9.33618 15.9322 13.6517 15.6526 13.7538 14.3231C13.7538 14.3231 13.5574 14.8271 11.4317 15.227C9.03343 15.6785 6.07493 15.6259 4.3208 15.3362C4.3208 15.3364 4.68018 15.6339 6.52668 15.7526Z" fill="#0074BD"/>
</svg>
