<svg width="80" height="80" viewBox="0 0 80 80" fill="none" xmlns="http://www.w3.org/2000/svg">
<path d="M72.7273 0H7.27273C3.27273 0 0 3.27273 0 7.27273V72.7273C0 76.7273 3.27273 80 7.27273 80H72.7273C76.7273 80 80 76.7273 80 72.7273V7.27273C80 3.27273 76.7273 0 72.7273 0ZM24.5455 69.0909H12.7273V30.9091H24.5455V69.0909ZM18.1818 25.4545C14.5455 25.4545 11.8182 22.7273 11.8182 19.0909C11.8182 15.4545 14.5455 12.7273 18.1818 12.7273C21.8182 12.7273 24.5455 15.4545 24.5455 19.0909C24.5455 22.7273 21.8182 25.4545 18.1818 25.4545ZM69.0909 69.0909H56.3636V47.2727C56.3636 33.6364 40 34.5455 40 47.2727V69.0909H27.2727V30.9091H40V37.2727C45.4545 27.2727 69.0909 26.3636 69.0909 45.4545V69.0909Z" fill="white"/>
</svg>
