<svg width="44" height="52" viewBox="0 0 44 52" fill="none" xmlns="http://www.w3.org/2000/svg">
<g clip-path="url(#clip0_30_73)">
<path d="M30.5797 0.51919C29.8214 0.498164 29.0102 0.916327 28.2054 1.63045C28.0142 1.80041 27.8232 1.98907 27.6335 2.19012C25.4313 4.52661 23.3866 8.85409 22.7513 12.1591C22.9985 12.6607 23.1926 13.3014 23.3201 13.7905C23.3527 13.9159 23.3818 14.0331 23.4051 14.1336C23.4611 14.3709 23.4911 14.5243 23.4911 14.5243C23.4911 14.5243 23.4718 14.4498 23.3909 14.2146C23.3754 14.1695 23.3575 14.1208 23.3373 14.0628C23.3285 14.0389 23.3174 14.0099 23.3039 13.9788C23.1604 13.6445 22.7625 12.9395 22.5873 12.6327C22.4376 13.0742 22.306 13.4867 22.1957 13.8603C22.7004 14.7843 23.0074 16.3673 23.0074 16.3673C23.0074 16.3673 22.9815 16.2648 22.8545 15.9068C22.7421 15.5902 22.1811 14.6066 22.0479 14.3765C21.8204 15.216 21.7297 15.7831 21.8111 15.9209C21.9691 16.1883 22.1202 16.6488 22.2523 17.1587C22.2985 17.3354 22.3415 17.5178 22.3829 17.7002C22.2456 18.906 22.2133 20.1172 22.2797 21.3163C22.3486 22.6159 22.5304 23.8988 22.7361 25.1642C22.7579 25.2974 22.8802 25.3937 23.0165 25.3808C23.159 25.3673 23.2637 25.2409 23.2503 25.0984C23.1855 24.4087 23.1306 23.7209 23.0954 23.0348L23.1268 23.3425C23.0776 22.7263 23.0639 22.0631 23.0903 21.3568C23.1841 18.8519 23.7612 15.8308 24.8261 12.6823C26.6257 7.92953 29.1219 4.11526 31.4066 2.29437C29.324 4.17537 26.5056 10.2637 25.662 12.5183C24.7174 15.0429 24.0476 17.4116 23.644 19.6818C24.3404 17.5536 26.5911 16.6395 26.5911 16.6395C26.5911 16.6395 27.6959 15.2773 28.9857 13.332C28.2131 13.5082 26.9431 13.8101 26.5182 13.9889C25.8912 14.2521 25.7227 14.3421 25.7227 14.3421C25.7227 14.3421 27.7536 13.1048 29.4958 12.5447C31.8924 8.77022 34.5034 3.40796 31.8741 1.06267C31.4701 0.702407 31.0347 0.531805 30.5797 0.51919ZM12.6296 1.55454C11.4914 1.55454 10.5568 2.48907 10.5568 3.62727V20.7273C10.5568 21.8655 11.4914 22.8 12.6296 22.8H20.4023C20.4709 22.801 20.5391 22.7883 20.6028 22.7627C20.6666 22.7371 20.7246 22.6991 20.7735 22.6508C20.8224 22.6026 20.8612 22.5452 20.8877 22.4818C20.9142 22.4185 20.9278 22.3505 20.9278 22.2818C20.9278 22.2131 20.9142 22.1452 20.8877 22.0818C20.8612 22.0184 20.8224 21.961 20.7735 21.9128C20.7246 21.8646 20.6666 21.8266 20.6028 21.801C20.5391 21.7753 20.4709 21.7627 20.4023 21.7636H12.6296C12.0536 21.7636 11.5932 21.3032 11.5932 20.7273V3.62727C11.5932 3.05132 12.0536 2.5909 12.6296 2.5909H25.0659C25.1346 2.59188 25.2028 2.57919 25.2665 2.55358C25.3302 2.52798 25.3882 2.48997 25.4371 2.44175C25.486 2.39354 25.5248 2.33609 25.5513 2.27273C25.5778 2.20938 25.5915 2.14139 25.5915 2.07272C25.5915 2.00405 25.5778 1.93606 25.5513 1.87271C25.5248 1.80936 25.486 1.75191 25.4371 1.70369C25.3882 1.65548 25.3302 1.61747 25.2665 1.59186C25.2028 1.56626 25.1346 1.55357 25.0659 1.55454H12.6296Z" fill="white"/>
</g>
<path d="M9.09617 34.9491C9.44284 35.6024 9.52284 36.4291 9.33617 37.4291H9.31617C8.84951 37.5091 8.34951 37.5624 7.81617 37.5891C7.28284 37.6024 6.78284 37.5424 6.31617 37.4091C6.39617 37.0491 6.32284 36.7491 6.09617 36.5091C5.86951 36.2691 5.59617 36.1157 5.27617 36.0491C4.95617 35.9824 4.64284 36.0157 4.33617 36.1491C4.04284 36.2824 3.86951 36.5357 3.81617 36.9091C3.78951 37.0024 3.77617 37.0957 3.77617 37.1891C3.78951 37.2691 3.80284 37.3557 3.81617 37.4491C3.92284 37.7691 4.09617 37.9824 4.33617 38.0891C4.57617 38.1957 4.83617 38.2691 5.11617 38.3091C5.82284 38.3891 6.47617 38.6157 7.07617 38.9891C7.68951 39.3624 8.18951 39.8357 8.57617 40.4091C8.81617 40.7157 8.99617 41.0491 9.11617 41.4091C9.23617 41.7557 9.30284 42.1157 9.31617 42.4891C9.34284 42.8624 9.31617 43.2424 9.23617 43.6291C9.16951 44.0024 9.05617 44.3624 8.89617 44.7091C8.73617 45.1224 8.52284 45.4757 8.25617 45.7691C7.98951 46.0624 7.68284 46.3024 7.33617 46.4891C7.00284 46.6757 6.63617 46.8157 6.23617 46.9091C5.84951 46.9891 5.44951 47.0224 5.03617 47.0091C4.44951 46.9957 3.86284 46.8957 3.27617 46.7091C2.70284 46.5091 2.18951 46.2357 1.73617 45.8891C1.28284 45.5424 0.922839 45.1224 0.656172 44.6291C0.389505 44.1224 0.276172 43.5491 0.316172 42.9091V42.8491V42.7891C0.782839 42.7224 1.29617 42.7091 1.85617 42.7491C2.41617 42.7757 2.92284 42.7824 3.37617 42.7691C3.40284 43.1957 3.56951 43.5157 3.87617 43.7291C4.19617 43.9424 4.52951 44.0491 4.87617 44.0491C5.23617 44.0357 5.54284 43.9157 5.79617 43.6891C6.06284 43.4624 6.15617 43.1157 6.07617 42.6491C6.03617 42.3291 5.91617 42.0757 5.71617 41.8891C5.51617 41.6891 5.27617 41.5291 4.99617 41.4091C4.72951 41.2891 4.43617 41.2024 4.11617 41.1491C3.79617 41.0824 3.49617 41.0224 3.21617 40.9691C2.94951 40.9157 2.70284 40.8291 2.47617 40.7091C2.24951 40.5891 2.04284 40.4491 1.85617 40.2891C1.24284 39.7024 0.842839 39.0557 0.656172 38.3491C0.482839 37.6424 0.476172 36.9557 0.636172 36.2891C0.796172 35.6224 1.09617 35.0157 1.53617 34.4691C1.98951 33.9224 2.53617 33.5157 3.17617 33.2491C3.49617 33.1157 3.84951 33.0291 4.23617 32.9891C4.62284 32.9357 5.00951 32.9224 5.39617 32.9491C5.79617 32.9624 6.18284 33.0157 6.55617 33.1091C6.94284 33.2024 7.29617 33.3224 7.61617 33.4691C8.25617 33.8024 8.74951 34.2957 9.09617 34.9491ZM15.9832 51.0091C15.8099 50.9957 15.7232 50.9824 15.7232 50.9691V50.7491C15.7099 50.4824 15.6965 50.2757 15.6832 50.1291C15.6832 49.9957 15.6765 49.8691 15.6632 49.7491C15.6632 49.6424 15.6565 49.5224 15.6432 49.3891C15.6432 49.2691 15.6432 49.0891 15.6432 48.8491C15.6432 48.6224 15.6432 48.3157 15.6432 47.9291C15.6432 47.5424 15.6499 47.0357 15.6632 46.4091C15.6365 46.5291 15.4899 46.6357 15.2232 46.7291C14.9565 46.8224 14.6299 46.8824 14.2432 46.9091C13.8565 46.9491 13.4432 46.9491 13.0032 46.9091C12.5765 46.8824 12.1832 46.8024 11.8232 46.6691C11.5299 46.5624 11.2765 46.3824 11.0632 46.1291C10.8632 45.8624 10.6965 45.5491 10.5632 45.1891C10.4432 44.8157 10.3499 44.4091 10.2832 43.9691C10.2299 43.5291 10.2032 43.0757 10.2032 42.6091C10.2165 41.9424 10.2565 41.2824 10.3232 40.6291C10.4032 39.9757 10.5499 39.3891 10.7632 38.8691C10.9899 38.3357 11.3232 37.9024 11.7632 37.5691C12.2032 37.2224 12.8032 37.0224 13.5632 36.9691C13.9365 36.9157 14.2899 36.9491 14.6232 37.0691C14.9565 37.1757 15.2232 37.4291 15.4232 37.8291C15.4632 37.9091 15.4965 37.9357 15.5232 37.9091C15.5632 37.8691 15.5965 37.8157 15.6232 37.7491C15.6232 37.6024 15.6232 37.4891 15.6232 37.4091C15.6365 37.3291 15.6432 37.2224 15.6432 37.0891C15.6432 37.0224 15.6499 36.9757 15.6632 36.9491C16.0632 36.8957 16.5099 36.8824 17.0032 36.9091C17.4965 36.9224 17.9499 36.9291 18.3632 36.9291C18.3899 37.8891 18.3965 38.8891 18.3832 39.9291C18.3832 40.9557 18.3699 42.0091 18.3432 43.0891C18.3299 44.1557 18.3099 45.2424 18.2832 46.3491C18.2565 47.4557 18.2432 48.5624 18.2432 49.6691V50.9891C18.0299 51.0291 17.7765 51.0491 17.4832 51.0491C17.1899 51.0624 16.9099 51.0624 16.6432 51.0491C16.3899 51.0491 16.1699 51.0357 15.9832 51.0091ZM12.5032 42.6291C12.5165 42.8291 12.5565 43.0224 12.6232 43.2091C12.6899 43.6757 12.8832 44.0291 13.2032 44.2691C13.5365 44.5091 13.9765 44.6291 14.5232 44.6291C14.8032 44.6291 15.0232 44.6091 15.1832 44.5691C15.3565 44.5157 15.4832 44.4091 15.5632 44.2491C15.6432 44.0891 15.6899 43.8624 15.7032 43.5691C15.7299 43.2624 15.7432 42.8491 15.7432 42.3291C15.7432 41.9157 15.7299 41.5291 15.7032 41.1691C15.6899 40.8091 15.6299 40.5024 15.5232 40.2491C15.4299 39.9957 15.2832 39.7957 15.0832 39.6491C14.8965 39.5024 14.6365 39.4291 14.3032 39.4291C14.0232 39.4291 13.7699 39.5024 13.5432 39.6491C13.3165 39.7957 13.1232 39.9957 12.9632 40.2491C12.8032 40.4891 12.6832 40.7691 12.6032 41.0891C12.5232 41.3957 12.4832 41.7157 12.4832 42.0491C12.4832 42.2357 12.4899 42.4291 12.5032 42.6291ZM19.641 36.0091C19.641 34.7957 19.701 33.5824 19.821 32.3691L22.541 32.4291C22.541 32.9757 22.5343 33.6357 22.521 34.4091C22.5077 35.1824 22.4943 36.0091 22.481 36.8891C22.4677 37.7691 22.4543 38.6824 22.441 39.6291C22.441 40.5757 22.441 41.4891 22.441 42.3691C22.441 43.2491 22.4477 44.0757 22.461 44.8491C22.4743 45.6091 22.4943 46.2557 22.521 46.7891C22.4543 46.8691 22.2877 46.9091 22.021 46.9091C21.7543 46.9224 21.461 46.9224 21.141 46.9091C20.8343 46.9091 20.541 46.9024 20.261 46.8891C19.981 46.8757 19.7943 46.8824 19.701 46.9091C19.7943 45.7091 19.8277 44.5024 19.801 43.2891C19.7877 42.0757 19.761 40.8624 19.721 39.6491C19.681 38.4357 19.6543 37.2224 19.641 36.0091ZM25.2221 36.8491C25.5288 36.8624 25.8954 36.8624 26.3221 36.8491H26.6621V36.9091C26.6488 38.5224 26.6154 40.1691 26.5621 41.8491C26.5221 43.5291 26.5488 45.1757 26.6421 46.7891C26.5754 46.8691 26.4088 46.9091 26.1421 46.9091C25.8754 46.9224 25.5821 46.9224 25.2621 46.9091C24.9554 46.9091 24.6621 46.9024 24.3821 46.8891C24.1021 46.8757 23.9154 46.8824 23.8221 46.9091C23.8888 46.0691 23.9154 45.2157 23.9021 44.3491C23.9021 43.4824 23.8888 42.6224 23.8621 41.7691C23.8354 40.9157 23.8221 40.0757 23.8221 39.2491C23.8221 38.4091 23.8621 37.5957 23.9421 36.8091V36.7891C23.9954 36.7757 24.0821 36.7757 24.2021 36.7891C24.3354 36.8024 24.4354 36.8091 24.5021 36.8091C24.6754 36.8224 24.9154 36.8357 25.2221 36.8491ZM23.8821 34.0491C23.8554 33.6224 23.8488 33.1024 23.8621 32.4891L26.5821 32.5491C26.5821 32.6291 26.5821 32.7757 26.5821 32.9891C26.5954 33.1891 26.6021 33.4157 26.6021 33.6691C26.6154 33.9091 26.6221 34.1624 26.6221 34.4291C26.6354 34.6824 26.6421 34.9091 26.6421 35.1091C26.5888 35.1891 26.4621 35.2424 26.2621 35.2691C26.0754 35.2957 25.8488 35.3091 25.5821 35.3091C25.3288 35.2957 25.0554 35.2824 24.7621 35.2691C24.4688 35.2424 24.1954 35.2357 23.9421 35.2491C23.9421 34.8624 23.9221 34.4624 23.8821 34.0491ZM30.9227 33.2491C31.1494 33.2624 31.3761 33.2557 31.6027 33.2291V35.9091C31.6027 36.0824 31.6027 36.2624 31.6027 36.4491C31.6161 36.6357 31.6227 36.8291 31.6227 37.0291C32.0361 37.0157 32.4694 36.9957 32.9227 36.9691C33.3894 36.9424 33.9627 36.9091 34.6427 36.8691C34.7361 36.9757 34.7894 37.1357 34.8027 37.3491C34.8161 37.5491 34.8161 37.7691 34.8027 38.0091C34.7894 38.2491 34.7694 38.4957 34.7427 38.7491C34.7294 38.9891 34.7361 39.1957 34.7627 39.3691H31.6627C31.6627 40.0891 31.6627 40.7957 31.6627 41.4891C31.6627 42.1691 31.6694 42.8091 31.6827 43.4091C31.8161 43.5957 32.0094 43.7424 32.2627 43.8491C32.5161 43.9557 32.7894 44.0424 33.0827 44.1091C33.3761 44.1624 33.6694 44.1957 33.9627 44.2091C34.2694 44.2224 34.5361 44.2224 34.7627 44.2091C34.7894 44.3957 34.8161 44.6024 34.8427 44.8291C34.8694 45.0557 34.8894 45.2891 34.9027 45.5291C34.9161 45.7691 34.9094 46.0091 34.8827 46.2491C34.8694 46.4891 34.8294 46.7091 34.7627 46.9091C34.2294 46.9357 33.6761 46.9357 33.1027 46.9091C32.5294 46.8691 31.9894 46.7891 31.4827 46.6691C30.9761 46.5491 30.5227 46.3691 30.1227 46.1291C29.7361 45.8891 29.4561 45.5624 29.2827 45.1491C29.1094 44.1224 29.0094 43.1557 28.9827 42.2491C28.9561 41.3291 28.9494 40.3824 28.9627 39.4091C28.7494 39.4224 28.5227 39.4291 28.2827 39.4291C28.0561 39.4291 27.8027 39.4291 27.5227 39.4291L27.5827 36.9891C27.8494 37.0024 28.0961 37.0091 28.3227 37.0091C28.5627 37.0091 28.7894 37.0091 29.0027 37.0091C29.0027 36.7157 28.9961 36.4024 28.9827 36.0691C28.9694 35.7224 28.9627 35.3757 28.9627 35.0291C28.9627 34.6824 28.9627 34.3491 28.9627 34.0291C28.9761 33.7091 28.9961 33.4224 29.0227 33.1691C29.1961 33.1424 29.3827 33.1357 29.5827 33.1491C29.7961 33.1624 30.0161 33.1824 30.2427 33.2091C30.4694 33.2224 30.6961 33.2357 30.9227 33.2491ZM38.7971 41.9491C38.5038 41.9357 38.2904 41.9157 38.1571 41.8891V42.2491C38.1704 42.6491 38.1838 42.9757 38.1971 43.2291C38.2238 43.4824 38.3104 43.7291 38.4571 43.9691C38.6171 44.2757 38.8438 44.5024 39.1371 44.6491C39.4304 44.7957 39.7171 44.8424 39.9971 44.7891C40.2771 44.7357 40.5104 44.5757 40.6971 44.3091C40.8971 44.0291 40.9838 43.6157 40.9571 43.0691C41.0904 43.0824 41.2704 43.0891 41.4971 43.0891C41.7238 43.0757 41.9571 43.0624 42.1971 43.0491C42.4504 43.0357 42.6904 43.0357 42.9171 43.0491C43.1438 43.0491 43.3304 43.0691 43.4771 43.1091C43.4504 43.4557 43.4238 43.7957 43.3971 44.1291C43.3704 44.4624 43.3371 44.7757 43.2971 45.0691C43.2571 45.3491 43.2038 45.5957 43.1371 45.8091C43.0838 46.0091 43.0104 46.1491 42.9171 46.2291C42.6904 46.5491 42.3971 46.7757 42.0371 46.9091C41.6771 47.0424 41.2838 47.1224 40.8571 47.1491C40.4304 47.1757 39.9904 47.1757 39.5371 47.1491C39.0971 47.1224 38.6904 47.1091 38.3171 47.1091C37.9438 47.0557 37.5971 46.9357 37.2771 46.7491C36.9171 46.4957 36.6171 46.1691 36.3771 45.7691C36.1371 45.3557 35.9438 44.9091 35.7971 44.4291C35.6504 43.9357 35.5504 43.4157 35.4971 42.8691C35.4438 42.3224 35.4304 41.7757 35.4571 41.2291C35.4971 40.7357 35.5371 40.2624 35.5771 39.8091C35.6304 39.3424 35.7371 38.8891 35.8971 38.4491C36.0704 38.0624 36.3371 37.7357 36.6971 37.4691C37.0571 37.1891 37.4638 36.9824 37.9171 36.8491C38.3704 36.7024 38.8504 36.6224 39.3571 36.6091C39.8638 36.5957 40.3571 36.6491 40.8371 36.7691C41.4504 36.8757 41.9438 37.0891 42.3171 37.4091C42.6904 37.7291 42.9704 38.1157 43.1571 38.5691C43.3571 39.0224 43.4771 39.5224 43.5171 40.0691C43.5571 40.6157 43.5571 41.1691 43.5171 41.7291C43.4238 41.7557 43.2438 41.7824 42.9771 41.8091C42.7238 41.8357 42.4171 41.8624 42.0571 41.8891C41.7104 41.9157 41.3371 41.9357 40.9371 41.9491C40.5371 41.9624 40.1504 41.9691 39.7771 41.9691C39.4171 41.9691 39.0904 41.9624 38.7971 41.9491ZM41.1371 39.3291C41.0038 39.0891 40.8171 38.9091 40.5771 38.7891C40.4704 38.7224 40.3638 38.6757 40.2571 38.6491C40.1504 38.6091 40.0238 38.5891 39.8771 38.5891C39.5571 38.5891 39.2971 38.6224 39.0971 38.6891C38.8971 38.7557 38.7371 38.8491 38.6171 38.9691C38.4971 39.0891 38.4038 39.2291 38.3371 39.3891C38.2838 39.5491 38.2438 39.7157 38.2171 39.8891C38.1904 40.0357 38.1771 40.1424 38.1771 40.2091C38.1904 40.2624 38.2571 40.3024 38.3771 40.3291C38.4971 40.3424 38.6838 40.3491 38.9371 40.3491C39.2038 40.3357 39.5904 40.3291 40.0971 40.3291C40.4438 40.3291 40.7038 40.3357 40.8771 40.3491C41.0504 40.3624 41.1704 40.3691 41.2371 40.3691C41.3171 40.3557 41.3571 40.3357 41.3571 40.3091C41.3571 40.2691 41.3571 40.1957 41.3571 40.0891C41.3571 39.8224 41.2838 39.5691 41.1371 39.3291Z" fill="white"/>
<defs>
<clipPath id="clip0_30_73">
<rect width="23.75" height="25.9091" fill="white" transform="translate(10.125)"/>
</clipPath>
</defs>
</svg>
