<svg width="24" height="24" viewBox="0 0 24 24" fill="none" xmlns="http://www.w3.org/2000/svg">
<g clip-path="url(#clip0_28_36)">
<path opacity="0.8" d="M18.355 5.52002L17.5664 11.04L12 11.875L12.7886 6.30859L18.355 5.52002Z" fill="#A295AE"/>
<path opacity="0.8" d="M5.69141 18.23L6.47998 12.71L12 11.9214L11.2114 17.4878L5.69141 18.23Z" fill="#5D6F6D"/>
<path opacity="0.8" d="M5.69141 5.52002L11.2114 6.30859L12 11.875L6.43359 11.0864L5.69141 5.52002Z" fill="#8CD592"/>
<path opacity="0.8" d="M18.355 18.1836L12.835 17.395L12.0464 11.8286L17.6128 12.6172L18.355 18.1836Z" fill="#665E74"/>
<path opacity="0.8" d="M12 20.8276L8.66016 16.3745L12 11.9214L15.3398 16.3745L12 20.8276Z" fill="#3C3647"/>
<path opacity="0.8" d="M20.999 11.8286L16.5459 15.1685L12.0928 11.8286L16.5459 8.48877L20.999 11.8286Z" fill="#837193"/>
<path opacity="0.8" d="M12 2.87598L15.3398 7.3291L12 11.7822L8.66016 7.3291L12 2.87598Z" fill="#A2F4AC"/>
<path opacity="0.8" d="M3.04736 11.875L7.50049 8.53516L11.9536 11.875L7.50049 15.2148L3.04736 11.875Z" fill="#7EA685"/>
<path d="M12 9.74121L14.1338 11.875L12 14.0088L9.86621 11.875L12 9.74121Z" fill="#3C3647"/>
</g>
<defs>
<clipPath id="clip0_28_36">
<rect width="23.75" height="23.75" fill="white" transform="translate(0.125)"/>
</clipPath>
</defs>
</svg>
