<?xml version="1.0" encoding="UTF-8"?>
<svg xmlns="http://www.w3.org/2000/svg" viewBox="0 0 64 64" width="64" height="64" role="img" aria-labelledby="title">
    <title id="title">Tailwind CSS</title>
    <defs>
        <linearGradient id="twGrad" x1="0%" x2="100%" y1="0%" y2="100%">
            <stop offset="0%" stop-color="#38bdf8"/>
            <stop offset="100%" stop-color="#06b6d4"/>
        </linearGradient>
    </defs>

    <!-- Top swoosh -->
    <path fill="url(#twGrad)" d="M6 24c6-8 14-12 24-8 10 4 14 12 22 10 0 0-2 4-8 6-6 2-10-2-18-6-8-4-14-2-22-2z"/>

    <!-- Bottom swoosh -->
    <path fill="url(#twGrad)" opacity="0.95" d="M6 36c6-8 14-12 24-8 10 4 14 12 22 10 0 0-2 4-8 6-6 2-10-2-18-6-8-4-14-2-22-2z" transform="translate(0,6) scale(0.98)"/>

</svg>