<svg width="54" height="50" viewBox="0 0 54 50" fill="none" xmlns="http://www.w3.org/2000/svg">
<g clip-path="url(#clip0_30_98)">
<path d="M38.875 4.22161V19.5285C38.875 20.2825 38.406 20.9535 37.6994 21.2029L32.4625 23.661L32.9375 17.2188V6.5313L32.4625 0.0891113L37.6994 2.54724C38.406 2.79661 38.875 3.46755 38.875 4.22161Z" fill="#29B6F6"/>
<path d="M18.0938 17.7507L32.9375 6.53121V0.8033C32.9375 0.0919875 32.0576 -0.240513 31.5867 0.292675L15.5157 14.9856C14.9813 15.4784 15.0116 16.3316 15.5792 16.7859C15.5792 16.7859 16.3654 17.5174 16.6498 17.7204C17.0868 18.0321 17.6609 18.0678 18.0938 17.7507Z" fill="#0277BD"/>
<path d="M18.0938 5.99925L32.9375 17.2188V22.9467C32.9375 23.658 32.0576 23.9905 31.5867 23.4573L15.5157 8.76435C14.9813 8.27153 15.0116 7.41832 15.5792 6.9641C15.5792 6.9641 16.3654 6.2326 16.6498 6.02953C17.0868 5.71782 17.6609 5.68219 18.0938 5.99925Z" fill="#0288D1"/>
</g>
<path d="M8.53938 31.01C8.79271 31.01 9.03271 31.03 9.25938 31.07C9.03271 32.2567 8.78604 33.4167 8.51938 34.55C8.26604 35.6833 7.99938 36.81 7.71938 37.93C7.43938 39.05 7.15271 40.1767 6.85938 41.31C6.56604 42.43 6.25938 43.57 5.93938 44.73C5.83271 44.73 5.66604 44.7433 5.43938 44.77C5.21271 44.7967 4.95938 44.81 4.67938 44.81C4.38604 44.81 4.08604 44.7967 3.77938 44.77C3.48604 44.7567 3.23271 44.7167 3.01938 44.65C2.41938 42.49 1.92604 40.2767 1.53938 38.01C1.15271 35.73 0.866042 33.4367 0.679375 31.13V31.11C0.759375 31.0167 0.932708 30.95 1.19938 30.91C1.46604 30.87 1.75271 30.85 2.05938 30.85C2.36604 30.8367 2.65938 30.8367 2.93938 30.85C3.21938 30.8633 3.41271 30.8833 3.51938 30.91C3.57271 31.1767 3.60604 31.61 3.61938 32.21C3.63271 32.81 3.66604 33.53 3.71938 34.37C3.77271 35.21 3.85938 36.1367 3.97938 37.15C4.11271 38.1633 4.31271 39.21 4.57938 40.29C4.83271 39.21 5.03938 38.2233 5.19938 37.33C5.35938 36.4233 5.49938 35.59 5.61938 34.83C5.73938 34.07 5.85271 33.37 5.95938 32.73C6.06604 32.09 6.19271 31.49 6.33938 30.93C6.33938 30.9033 6.35271 30.89 6.37938 30.89C6.60604 30.9433 6.83938 30.9767 7.07938 30.99C7.31938 30.99 7.55938 30.99 7.79938 30.99C8.05271 30.99 8.29938 30.9967 8.53938 31.01ZM16.9997 35.89C17.2664 36.4633 17.3997 37.11 17.3997 37.83C16.973 37.8967 16.4997 37.9367 15.9797 37.95C15.473 37.9633 14.993 37.9233 14.5397 37.83C14.5797 37.67 14.5597 37.51 14.4797 37.35C14.413 37.19 14.3064 37.05 14.1597 36.93C14.0264 36.81 13.8664 36.7233 13.6797 36.67C13.5064 36.6033 13.333 36.5767 13.1597 36.59C12.853 36.6433 12.6197 36.7633 12.4597 36.95C12.313 37.1233 12.2397 37.3167 12.2397 37.53C12.2397 37.7433 12.3197 37.9567 12.4797 38.17C12.6397 38.3833 12.873 38.5433 13.1797 38.65C13.9264 38.7567 14.6264 38.9033 15.2797 39.09C15.933 39.2633 16.413 39.55 16.7197 39.95C17.013 40.43 17.193 40.9233 17.2597 41.43C17.3264 41.9233 17.233 42.5367 16.9797 43.27C16.673 43.9233 16.193 44.39 15.5397 44.67C14.8864 44.95 14.173 45.0833 13.3997 45.07C12.7197 45.0967 12.1064 45.0367 11.5597 44.89C11.013 44.7433 10.5397 44.5233 10.1397 44.23C9.75302 43.9367 9.44635 43.5767 9.21969 43.15C9.00635 42.7233 8.89969 42.2433 8.89969 41.71V41.65V41.61C9.33969 41.5567 9.83969 41.5433 10.3997 41.57C10.9597 41.5833 11.4464 41.59 11.8597 41.59C11.873 41.8967 12.013 42.15 12.2797 42.35C12.5597 42.5367 12.853 42.65 13.1597 42.69C13.4664 42.7167 13.7464 42.6567 13.9997 42.51C14.253 42.3633 14.373 42.0967 14.3597 41.71C14.3997 41.39 14.3264 41.15 14.1397 40.99C13.953 40.83 13.7064 40.71 13.3997 40.63C13.093 40.5367 12.7464 40.4567 12.3597 40.39C11.973 40.3233 11.593 40.21 11.2197 40.05C10.473 39.7967 9.92635 39.4033 9.57969 38.87C9.24635 38.3233 9.08635 37.7633 9.09969 37.19C9.12635 36.6033 9.31302 36.0633 9.65969 35.57C10.0197 35.0767 10.5264 34.7433 11.1797 34.57C11.433 34.5033 11.7397 34.45 12.0997 34.41C12.473 34.37 12.8664 34.35 13.2797 34.35C13.693 34.35 14.1064 34.3767 14.5197 34.43C14.933 34.47 15.313 34.53 15.6597 34.61C16.2864 34.8767 16.733 35.3033 16.9997 35.89ZM25.5436 40.85C25.7703 40.85 25.9569 40.87 26.1036 40.91C26.0769 41.2567 26.0503 41.5967 26.0236 41.93C25.9969 42.2633 25.9636 42.5767 25.9236 42.87C25.8836 43.15 25.8303 43.3967 25.7636 43.61C25.7103 43.81 25.6369 43.9567 25.5436 44.05C25.3169 44.37 25.0169 44.5967 24.6436 44.73C24.2836 44.8633 23.8903 44.9433 23.4636 44.97C23.0369 45.01 22.5969 45.01 22.1436 44.97C21.6903 44.9433 21.2769 44.93 20.9036 44.93C20.2236 44.81 19.6503 44.5167 19.1836 44.05C18.8236 43.73 18.5769 43.33 18.4436 42.85C18.3103 42.37 18.2303 41.87 18.2036 41.35C18.1769 40.8167 18.1703 40.2833 18.1836 39.75C18.2103 39.2167 18.1969 38.73 18.1436 38.29C18.1436 37.81 18.1836 37.33 18.2636 36.85C18.2769 36.7033 18.3236 36.5033 18.4036 36.25C18.4836 35.9967 18.5436 35.8033 18.5836 35.67C18.6769 35.47 18.8236 35.2967 19.0236 35.15C19.2369 35.0033 19.4769 34.8833 19.7436 34.79C20.0236 34.6833 20.3169 34.61 20.6236 34.57C20.9436 34.53 21.2636 34.51 21.5836 34.51C21.8503 34.5367 22.1036 34.5433 22.3436 34.53C22.5969 34.5033 22.8636 34.5033 23.1436 34.53C23.5703 34.5567 23.9769 34.6367 24.3636 34.77C24.7503 34.9033 25.0836 35.1033 25.3636 35.37C25.5503 35.5033 25.6903 35.6833 25.7836 35.91C25.8903 36.1367 25.9703 36.4033 26.0236 36.71C26.0769 37.0167 26.1036 37.3633 26.1036 37.75C26.1169 38.1233 26.1303 38.53 26.1436 38.97C25.9703 39.01 25.7703 39.03 25.5436 39.03C25.3303 39.03 25.1036 39.0233 24.8636 39.01C24.6369 38.9967 24.4103 38.9767 24.1836 38.95C23.9703 38.9233 23.7769 38.8967 23.6036 38.87C23.5369 38.4033 23.3436 38.0433 23.0236 37.79C22.7036 37.5233 22.2836 37.4567 21.7636 37.59C21.4836 37.67 21.2569 37.8167 21.0836 38.03C21.0036 38.0833 20.9436 38.2167 20.9036 38.43C20.8503 38.8433 20.8236 39.2633 20.8236 39.69C20.8236 40.1167 20.8103 40.5633 20.7836 41.03C20.7569 41.3367 20.8303 41.5767 21.0036 41.75C21.1903 41.9233 21.4103 42.0433 21.6636 42.11C21.9169 42.1633 22.1769 42.1767 22.4436 42.15C22.7103 42.11 22.9236 42.0367 23.0836 41.93C23.2169 41.8367 23.3169 41.6833 23.3836 41.47C23.4636 41.2433 23.5236 41.0433 23.5636 40.87C23.6969 40.8833 23.8769 40.89 24.1036 40.89C24.3303 40.8767 24.5703 40.8633 24.8236 40.85C25.0769 40.8367 25.3169 40.8367 25.5436 40.85ZM27.2513 36.23C27.3313 35.9767 27.3913 35.7767 27.4313 35.63C27.5246 35.43 27.6713 35.2567 27.8713 35.11C28.0846 34.9633 28.3246 34.8433 28.5913 34.75C28.8713 34.6433 29.1646 34.57 29.4712 34.53C29.7913 34.49 30.1113 34.47 30.4313 34.47C30.6979 34.4967 30.9513 34.5033 31.1913 34.49C31.4446 34.4633 31.7113 34.4633 31.9913 34.49C32.4179 34.5167 32.8246 34.6033 33.2113 34.75C33.5979 34.8833 33.9313 35.0833 34.2113 35.35C34.3979 35.47 34.5446 35.6633 34.6513 35.93C34.7579 36.1967 34.8379 36.51 34.8913 36.87C34.9446 37.2167 34.9779 37.6033 34.9913 38.03C35.0046 38.4433 35.0179 38.87 35.0313 39.31C35.0179 39.6967 34.9979 40.1367 34.9713 40.63C34.9579 41.1233 34.9246 41.5967 34.8713 42.05C34.8313 42.5033 34.7713 42.91 34.6913 43.27C34.6246 43.63 34.5246 43.8767 34.3913 44.01C34.1646 44.33 33.8646 44.5567 33.4913 44.69C33.1313 44.8233 32.7379 44.9033 32.3113 44.93C31.8846 44.97 31.4446 44.97 30.9913 44.93C30.5379 44.9033 30.1246 44.89 29.7513 44.89C29.0713 44.77 28.4979 44.4767 28.0313 44.01C27.6713 43.69 27.4246 43.29 27.2913 42.81C27.1579 42.33 27.0779 41.83 27.0513 41.31C27.0246 40.7767 27.0179 40.2433 27.0313 39.71C27.0579 39.1767 27.0513 38.69 27.0113 38.25C27.0113 38.01 27.0179 37.7767 27.0313 37.55C27.0446 37.31 27.0713 37.0633 27.1113 36.81C27.1246 36.6633 27.1713 36.47 27.2513 36.23ZM30.6113 37.55C30.3313 37.63 30.1046 37.7767 29.9313 37.99C29.8513 38.0433 29.7913 38.1767 29.7513 38.39C29.6979 38.8167 29.6713 39.2433 29.6713 39.67C29.6713 40.0833 29.6579 40.5233 29.6313 40.99C29.6179 41.2967 29.6979 41.5367 29.8713 41.71C30.0446 41.87 30.2513 41.9833 30.4913 42.05C30.7446 42.1033 31.0046 42.1167 31.2713 42.09C31.5379 42.05 31.7579 41.9833 31.9313 41.89C32.1579 41.7833 32.3113 41.5633 32.3913 41.23C32.4446 40.8033 32.4846 40.3767 32.5113 39.95C32.5513 39.51 32.5313 39.0967 32.4513 38.71C32.3846 38.2433 32.1913 37.9033 31.8713 37.69C31.5513 37.4767 31.1313 37.43 30.6113 37.55ZM41.3961 31.53C41.4094 31.3833 41.4228 31.1767 41.4361 30.91V30.69C41.4361 30.6767 41.5228 30.6633 41.6961 30.65C41.8828 30.6233 42.1028 30.61 42.3561 30.61C42.6228 30.5967 42.9028 30.5967 43.1961 30.61C43.4894 30.61 43.7428 30.63 43.9561 30.67V31.99C43.9561 34.2167 43.9894 36.4167 44.0561 38.59C44.1228 40.7633 44.1294 42.81 44.0761 44.73C43.6628 44.73 43.2094 44.7367 42.7161 44.75C42.2228 44.7767 41.7761 44.7633 41.3761 44.71C41.3628 44.6833 41.3561 44.6367 41.3561 44.57C41.3561 44.4367 41.3494 44.33 41.3361 44.25C41.3361 44.17 41.3361 44.0567 41.3361 43.91C41.3094 43.8433 41.2761 43.7967 41.2361 43.77C41.2094 43.73 41.1761 43.75 41.1361 43.83C40.9361 44.23 40.6694 44.49 40.3361 44.61C40.0028 44.7167 39.6494 44.7433 39.2761 44.69C38.5161 44.6367 37.9161 44.4433 37.4761 44.11C37.0361 43.7633 36.7028 43.33 36.4761 42.81C36.2628 42.2767 36.1161 41.6833 36.0361 41.03C35.9694 40.3767 35.9294 39.7167 35.9161 39.05C35.9161 38.5833 35.9428 38.13 35.9961 37.69C36.0628 37.25 36.1561 36.85 36.2761 36.49C36.4094 36.1167 36.5761 35.8033 36.7761 35.55C36.9894 35.2833 37.2428 35.0967 37.5361 34.99C37.8961 34.8567 38.2894 34.7767 38.7161 34.75C39.1561 34.71 39.5694 34.71 39.9561 34.75C40.3428 34.7767 40.6694 34.8367 40.9361 34.93C41.2028 35.0233 41.3494 35.13 41.3761 35.25C41.3628 34.6233 41.3561 34.1167 41.3561 33.73C41.3561 33.3433 41.3561 33.0367 41.3561 32.81C41.3561 32.57 41.3561 32.39 41.3561 32.27C41.3694 32.1367 41.3761 32.0167 41.3761 31.91C41.3894 31.79 41.3961 31.6633 41.3961 31.53ZM38.9161 37.39C38.5961 37.63 38.4028 37.9833 38.3361 38.45C38.2694 38.6367 38.2294 38.83 38.2161 39.03C38.2028 39.23 38.1961 39.4233 38.1961 39.61C38.1961 39.9433 38.2361 40.27 38.3161 40.59C38.3961 40.8967 38.5161 41.1767 38.6761 41.43C38.8361 41.67 39.0294 41.8633 39.2561 42.01C39.4828 42.1567 39.7361 42.23 40.0161 42.23C40.3494 42.23 40.6094 42.1567 40.7961 42.01C40.9961 41.8633 41.1428 41.6633 41.2361 41.41C41.3428 41.1567 41.4028 40.8567 41.4161 40.51C41.4428 40.15 41.4561 39.7567 41.4561 39.33C41.4561 38.81 41.4428 38.4033 41.4161 38.11C41.4028 37.8033 41.3561 37.57 41.2761 37.41C41.1961 37.25 41.0694 37.15 40.8961 37.11C40.7361 37.0567 40.5161 37.03 40.2361 37.03C39.6894 37.03 39.2494 37.15 38.9161 37.39ZM48.5139 39.79C48.2206 39.7767 48.0072 39.7567 47.8739 39.73V40.09C47.8872 40.49 47.9006 40.8167 47.9139 41.07C47.9406 41.3233 48.0272 41.57 48.1739 41.81C48.3339 42.1167 48.5606 42.3433 48.8539 42.49C49.1472 42.6367 49.4339 42.6833 49.7139 42.63C49.9939 42.5767 50.2272 42.4167 50.4139 42.15C50.6139 41.87 50.7006 41.4567 50.6739 40.91C50.8072 40.9233 50.9872 40.93 51.2139 40.93C51.4406 40.9167 51.6739 40.9033 51.9139 40.89C52.1672 40.8767 52.4072 40.8767 52.6339 40.89C52.8606 40.89 53.0472 40.91 53.1939 40.95C53.1672 41.2967 53.1406 41.6367 53.1139 41.97C53.0872 42.3033 53.0539 42.6167 53.0139 42.91C52.9739 43.19 52.9206 43.4367 52.8539 43.65C52.8006 43.85 52.7272 43.99 52.6339 44.07C52.4072 44.39 52.1139 44.6167 51.7539 44.75C51.3939 44.8833 51.0006 44.9633 50.5739 44.99C50.1472 45.0167 49.7072 45.0167 49.2539 44.99C48.8139 44.9633 48.4072 44.95 48.0339 44.95C47.6606 44.8967 47.3139 44.7767 46.9939 44.59C46.6339 44.3367 46.3339 44.01 46.0939 43.61C45.8539 43.1967 45.6606 42.75 45.5139 42.27C45.3672 41.7767 45.2672 41.2567 45.2139 40.71C45.1606 40.1633 45.1472 39.6167 45.1739 39.07C45.2139 38.5767 45.2539 38.1033 45.2939 37.65C45.3472 37.1833 45.4539 36.73 45.6139 36.29C45.7872 35.9033 46.0539 35.5767 46.4139 35.31C46.7739 35.03 47.1806 34.8233 47.6339 34.69C48.0872 34.5433 48.5672 34.4633 49.0739 34.45C49.5806 34.4367 50.0739 34.49 50.5539 34.61C51.1672 34.7167 51.6606 34.93 52.0339 35.25C52.4072 35.57 52.6872 35.9567 52.8739 36.41C53.0739 36.8633 53.1939 37.3633 53.2339 37.91C53.2739 38.4567 53.2739 39.01 53.2339 39.57C53.1406 39.5967 52.9606 39.6233 52.6939 39.65C52.4406 39.6767 52.1339 39.7033 51.7739 39.73C51.4272 39.7567 51.0539 39.7767 50.6539 39.79C50.2539 39.8033 49.8672 39.81 49.4939 39.81C49.1339 39.81 48.8072 39.8033 48.5139 39.79ZM50.8539 37.17C50.7206 36.93 50.5339 36.75 50.2939 36.63C50.1872 36.5633 50.0806 36.5167 49.9739 36.49C49.8672 36.45 49.7406 36.43 49.5939 36.43C49.2739 36.43 49.0139 36.4633 48.8139 36.53C48.6139 36.5967 48.4539 36.69 48.3339 36.81C48.2139 36.93 48.1206 37.07 48.0539 37.23C48.0006 37.39 47.9606 37.5567 47.9339 37.73C47.9072 37.8767 47.8939 37.9833 47.8939 38.05C47.9072 38.1033 47.9739 38.1433 48.0939 38.17C48.2139 38.1833 48.4006 38.19 48.6539 38.19C48.9206 38.1767 49.3072 38.17 49.8139 38.17C50.1606 38.17 50.4206 38.1767 50.5939 38.19C50.7672 38.2033 50.8872 38.21 50.9539 38.21C51.0339 38.1967 51.0739 38.1767 51.0739 38.15C51.0739 38.11 51.0739 38.0367 51.0739 37.93C51.0739 37.6633 51.0006 37.41 50.8539 37.17Z" fill="white"/>
<defs>
<clipPath id="clip0_30_98">
<rect width="23.75" height="23.75" fill="white" transform="translate(15.125)"/>
</clipPath>
</defs>
</svg>
